solid power2
facet normal 4.105033722805705e-29 -1.0 -3.297110661389374e-16
  outer loop
    vertex 283.79999999999995 139.39175362375448 17.000000000000046
    vertex 278.79999999999995 139.31679044159043 16.4305981007745
    vertex 283.79999999999995 139.31679044159043 16.4305981007745
  endloop
endfacet
facet normal 3.973309969345295e-29 -0.9659258262890627 0.2588190451025418
  outer loop
    vertex 278.79999999999995 139.31679044159043 16.4305981007745
    vertex 283.79999999999995 139.39175362375448 17.000000000000046
    vertex 278.79999999999995 139.39175362375448 17.000000000000046
  endloop
endfacet
facet normal -0.5000000000000053 0.0 0.8660254037844355
  outer loop
    vertex 290.35 104.6917536237544 48.181346652052724
    vertex 289.84351999471534 109.69175362375448 47.971555764793
    vertex 289.84351999471534 104.6917536237544 47.971555764793
  endloop
endfacet
facet normal -0.2588190451025155 0.0 0.9659258262890696
  outer loop
    vertex 289.84351999471534 109.69175362375448 47.971555764793
    vertex 290.35 104.6917536237544 48.181346652052724
    vertex 290.35 109.69175362375448 48.181346652052724
  endloop
endfacet
facet normal 0.2588190451025165 0.0 -0.9659258262890694
  outer loop
    vertex 288.7564800052847 109.69175362375448 12.028444235207088
    vertex 288.24999999999994 104.6917536237544 11.818653347947366
    vertex 288.24999999999994 109.69175362375448 11.818653347947366
  endloop
endfacet
facet normal 0.5000000000000067 0.0 -0.8660254037844349
  outer loop
    vertex 288.24999999999994 104.6917536237544 11.818653347947366
    vertex 288.7564800052847 109.69175362375448 12.028444235207088
    vertex 288.7564800052847 104.6917536237544 12.028444235207088
  endloop
endfacet
facet normal 0.9659258262890754 0.0 0.2588190451024941
  outer loop
    vertex 287.2715557647929 109.69175362375448 49.45648000528475
    vertex 287.2 104.6917536237544 50.00000000000005
    vertex 287.2715557647929 104.6917536237544 49.45648000528475
  endloop
endfacet
facet normal 1.0 0.0 -1.78222197912937e-17
  outer loop
    vertex 287.2 104.6917536237544 50.00000000000005
    vertex 287.2715557647929 109.69175362375448 49.45648000528475
    vertex 287.2 109.69175362375448 50.00000000000005
  endloop
endfacet
facet normal -9.822204355378639e-31 0.8660254037844283 0.5000000000000178
  outer loop
    vertex 278.79999999999995 135.28649773542867 15.900000000000045
    vertex 283.79999999999995 135.63611870514407 15.444365081389641
    vertex 278.79999999999995 135.63611870514407 15.444365081389641
  endloop
endfacet
facet normal 2.4999793160386508e-29 0.7071067811865466 0.7071067811865487
  outer loop
    vertex 283.79999999999995 135.63611870514407 15.444365081389641
    vertex 278.79999999999995 135.28649773542867 15.900000000000045
    vertex 283.79999999999995 135.28649773542867 15.900000000000045
  endloop
endfacet
facet normal 3.3054150487520816e-29 0.7071067811865291 -0.7071067811865657
  outer loop
    vertex 278.79999999999995 135.63611870514407 18.55563491861045
    vertex 283.79999999999995 135.28649773542867 18.100000000000044
    vertex 278.79999999999995 135.28649773542867 18.100000000000044
  endloop
endfacet
facet normal 3.003565725433331e-29 0.866025403784429 -0.5000000000000164
  outer loop
    vertex 283.79999999999995 135.28649773542867 18.100000000000044
    vertex 278.79999999999995 135.63611870514407 18.55563491861045
    vertex 283.79999999999995 135.63611870514407 18.55563491861045
  endloop
endfacet
facet normal 0.7071067811865372 0.0 0.707106781186558
  outer loop
    vertex 287.8150757595082 109.69175362375448 8.515075759508296
    vertex 287.4813466520526 104.6917536237544 8.950000000000044
    vertex 287.8150757595082 104.6917536237544 8.515075759508296
  endloop
endfacet
facet normal 0.8660254037844285 0.0 0.5000000000000174
  outer loop
    vertex 287.4813466520526 104.6917536237544 8.950000000000044
    vertex 287.8150757595082 109.69175362375448 8.515075759508296
    vertex 287.4813466520526 109.69175362375448 8.950000000000044
  endloop
endfacet
facet normal 6.518152035290089e-19 -0.9659258262890629 -0.2588190451025412
  outer loop
    vertex 283.79999999999995 139.31679044159043 17.56940189922559
    vertex 278.79999999999995 139.39175362375448 17.000000000000046
    vertex 283.79999999999995 139.39175362375448 17.000000000000046
  endloop
endfacet
facet normal 4.105033722805705e-29 -1.0 -3.297110661389374e-16
  outer loop
    vertex 278.79999999999995 139.39175362375448 17.000000000000046
    vertex 283.79999999999995 139.31679044159043 17.56940189922559
    vertex 278.79999999999995 139.31679044159043 17.56940189922559
  endloop
endfacet
facet normal 3.973309969345295e-29 -0.9659258262890627 0.2588190451025418
  outer loop
    vertex 283.79999999999995 139.31679044159043 16.4305981007745
    vertex 278.79999999999995 139.09700951208023 15.900000000000045
    vertex 283.79999999999995 139.09700951208023 15.900000000000045
  endloop
endfacet
facet normal -9.8222043553786e-31 -0.866025403784444 0.49999999999999095
  outer loop
    vertex 278.79999999999995 139.09700951208023 15.900000000000045
    vertex 283.79999999999995 139.31679044159043 16.4305981007745
    vertex 278.79999999999995 139.31679044159043 16.4305981007745
  endloop
endfacet
facet normal 0.0 -0.49999999999999845 0.8660254037844397
  outer loop
    vertex 283.79999999999995 138.29175362375446 15.094744111674279
    vertex 278.79999999999995 138.7473885423649 15.444365081389641
    vertex 278.79999999999995 138.29175362375446 15.094744111674279
  endloop
endfacet
facet normal 0.0 -0.7071067811865516 0.7071067811865434
  outer loop
    vertex 278.79999999999995 138.7473885423649 15.444365081389641
    vertex 283.79999999999995 138.29175362375446 15.094744111674279
    vertex 283.79999999999995 138.7473885423649 15.444365081389641
  endloop
endfacet
facet normal 2.0362727976497818e-30 0.4999999999999966 -0.8660254037844407
  outer loop
    vertex 283.79999999999995 136.09175362375447 18.90525588832581
    vertex 278.79999999999995 135.63611870514407 18.55563491861045
    vertex 278.79999999999995 136.09175362375447 18.90525588832581
  endloop
endfacet
facet normal 3.3054150487520816e-29 0.7071067811865291 -0.7071067811865657
  outer loop
    vertex 278.79999999999995 135.63611870514407 18.55563491861045
    vertex 283.79999999999995 136.09175362375447 18.90525588832581
    vertex 283.79999999999995 135.63611870514407 18.55563491861045
  endloop
endfacet
facet normal 3.003565725433331e-29 0.866025403784429 -0.5000000000000164
  outer loop
    vertex 278.79999999999995 135.28649773542867 18.100000000000044
    vertex 283.79999999999995 135.06671680591847 17.569401899225593
    vertex 278.79999999999995 135.06671680591847 17.569401899225593
  endloop
endfacet
facet normal -9.822204355378632e-31 0.9659258262890726 -0.25881904510250425
  outer loop
    vertex 283.79999999999995 135.06671680591847 17.569401899225593
    vertex 278.79999999999995 135.28649773542867 18.100000000000044
    vertex 283.79999999999995 135.28649773542867 18.100000000000044
  endloop
endfacet
facet normal -0.4999999999999985 0.0 -0.8660254037844396
  outer loop
    vertex 290.34999999999997 109.69175362375448 11.818653347947368
    vertex 289.84351999471534 104.6917536237544 12.02844423520709
    vertex 289.84351999471534 109.69175362375448 12.02844423520709
  endloop
endfacet
facet normal -0.2588190451025305 0.0 -0.9659258262890658
  outer loop
    vertex 289.84351999471534 104.6917536237544 12.02844423520709
    vertex 290.34999999999997 109.69175362375448 11.818653347947368
    vertex 290.34999999999997 104.6917536237544 11.818653347947368
  endloop
endfacet
facet normal 3.497419368029204e-19 0.2588190451025203 -0.9659258262890683
  outer loop
    vertex 283.79999999999995 136.62235172452893 19.125036817835998
    vertex 278.79999999999995 136.09175362375447 18.90525588832581
    vertex 278.79999999999995 136.62235172452893 19.125036817835998
  endloop
endfacet
facet normal 2.0362727976497818e-30 0.4999999999999966 -0.8660254037844407
  outer loop
    vertex 278.79999999999995 136.09175362375447 18.90525588832581
    vertex 283.79999999999995 136.62235172452893 19.125036817835998
    vertex 283.79999999999995 136.09175362375447 18.90525588832581
  endloop
endfacet
facet normal 4.072545595299565e-30 -0.7071067811865516 -0.7071067811865434
  outer loop
    vertex 283.79999999999995 138.7473885423649 18.55563491861045
    vertex 278.79999999999995 138.29175362375446 18.90525588832581
    vertex 278.79999999999995 138.7473885423649 18.55563491861045
  endloop
endfacet
facet normal 4.0725455952995545e-30 -0.49999999999999845 -0.8660254037844397
  outer loop
    vertex 278.79999999999995 138.29175362375446 18.90525588832581
    vertex 283.79999999999995 138.7473885423649 18.55563491861045
    vertex 283.79999999999995 138.29175362375446 18.90525588832581
  endloop
endfacet
facet normal -9.822204355378632e-31 0.9659258262890726 0.2588190451025042
  outer loop
    vertex 278.79999999999995 135.06671680591847 16.4305981007745
    vertex 283.79999999999995 135.28649773542867 15.900000000000045
    vertex 278.79999999999995 135.28649773542867 15.900000000000045
  endloop
endfacet
facet normal -9.822204355378639e-31 0.8660254037844283 0.5000000000000178
  outer loop
    vertex 283.79999999999995 135.28649773542867 15.900000000000045
    vertex 278.79999999999995 135.06671680591847 16.4305981007745
    vertex 283.79999999999995 135.06671680591847 16.4305981007745
  endloop
endfacet
facet normal 2.4999793160386508e-29 0.7071067811865466 0.7071067811865487
  outer loop
    vertex 283.79999999999995 135.63611870514407 15.444365081389641
    vertex 278.79999999999995 136.09175362375444 15.094744111674279
    vertex 278.79999999999995 135.63611870514407 15.444365081389641
  endloop
endfacet
facet normal 2.4999793160386746e-29 0.500000000000006 0.8660254037844352
  outer loop
    vertex 278.79999999999995 136.09175362375444 15.094744111674279
    vertex 283.79999999999995 135.63611870514407 15.444365081389641
    vertex 283.79999999999995 136.09175362375444 15.094744111674279
  endloop
endfacet
facet normal -0.7071067811865401 0.0 -0.7071067811865549
  outer loop
    vertex 290.78492424049176 109.69175362375448 51.4849242404918
    vertex 291.1186533479473 104.6917536237544 51.050000000000054
    vertex 290.78492424049176 104.6917536237544 51.4849242404918
  endloop
endfacet
facet normal -0.8660254037844448 0.0 -0.49999999999998923
  outer loop
    vertex 291.1186533479473 104.6917536237544 51.050000000000054
    vertex 290.78492424049176 109.69175362375448 51.4849242404918
    vertex 291.1186533479473 109.69175362375448 51.050000000000054
  endloop
endfacet
facet normal 3.4974193680827996e-19 -0.2588190451025253 0.9659258262890672
  outer loop
    vertex 283.79999999999995 137.76115552298003 14.874963182164095
    vertex 278.79999999999995 138.29175362375446 15.094744111674279
    vertex 278.79999999999995 137.76115552298003 14.874963182164095
  endloop
endfacet
facet normal 0.0 -0.49999999999999845 0.8660254037844397
  outer loop
    vertex 278.79999999999995 138.29175362375446 15.094744111674279
    vertex 283.79999999999995 137.76115552298003 14.874963182164095
    vertex 283.79999999999995 138.29175362375446 15.094744111674279
  endloop
endfacet
facet normal 4.072545595299565e-30 -0.7071067811865516 -0.7071067811865434
  outer loop
    vertex 283.79999999999995 138.7473885423649 18.55563491861045
    vertex 278.79999999999995 139.09700951208023 18.100000000000044
    vertex 283.79999999999995 139.09700951208023 18.100000000000044
  endloop
endfacet
facet normal 6.518152035286752e-19 -0.8660254037844444 -0.49999999999999006
  outer loop
    vertex 278.79999999999995 139.09700951208023 18.100000000000044
    vertex 283.79999999999995 138.7473885423649 18.55563491861045
    vertex 278.79999999999995 138.7473885423649 18.55563491861045
  endloop
endfacet
facet normal 0.0 1.0 0.0
  outer loop
    vertex 278.79999999999995 134.99175362375445 17.000000000000046
    vertex 283.79999999999995 135.06671680591847 16.4305981007745
    vertex 278.79999999999995 135.06671680591847 16.4305981007745
  endloop
endfacet
facet normal -9.822204355378632e-31 0.9659258262890726 0.2588190451025042
  outer loop
    vertex 283.79999999999995 135.06671680591847 16.4305981007745
    vertex 278.79999999999995 134.99175362375445 17.000000000000046
    vertex 283.79999999999995 134.99175362375445 17.000000000000046
  endloop
endfacet
facet normal 4.328327229236618e-34 -5.1060659702056755e-15 -1.0
  outer loop
    vertex 283.79999999999995 137.1917536237545 19.200000000000045
    vertex 278.79999999999995 136.62235172452893 19.125036817835998
    vertex 278.79999999999995 137.1917536237545 19.200000000000045
  endloop
endfacet
facet normal 3.497419368029204e-19 0.2588190451025203 -0.9659258262890683
  outer loop
    vertex 278.79999999999995 136.62235172452893 19.125036817835998
    vertex 283.79999999999995 137.1917536237545 19.200000000000045
    vertex 283.79999999999995 136.62235172452893 19.125036817835998
  endloop
endfacet
facet normal -0.707106781186563 0.0 0.7071067811865323
  outer loop
    vertex 290.78492424049176 104.6917536237544 48.5150757595083
    vertex 290.35 109.69175362375448 48.181346652052724
    vertex 290.35 104.6917536237544 48.181346652052724
  endloop
endfacet
facet normal -0.5000000000000053 0.0 0.8660254037844355
  outer loop
    vertex 290.35 109.69175362375448 48.181346652052724
    vertex 290.78492424049176 104.6917536237544 48.5150757595083
    vertex 290.78492424049176 109.69175362375448 48.5150757595083
  endloop
endfacet
facet normal -0.9659258262890644 0.0 -0.25881904510253473
  outer loop
    vertex 291.32844423520703 109.69175362375448 10.54351999471534
    vertex 291.40000000000003 104.6917536237544 10.000000000000044
    vertex 291.32844423520703 104.6917536237544 10.54351999471534
  endloop
endfacet
facet normal -0.9999999999999999 0.0 1.693110880172919e-16
  outer loop
    vertex 291.40000000000003 104.6917536237544 10.000000000000044
    vertex 291.32844423520703 109.69175362375448 10.54351999471534
    vertex 291.40000000000003 109.69175362375448 10.000000000000044
  endloop
endfacet
facet normal 0.5000000000000067 0.0 -0.8660254037844349
  outer loop
    vertex 288.24999999999994 109.69175362375448 11.818653347947366
    vertex 287.8150757595082 104.6917536237544 11.484924240491793
    vertex 287.8150757595082 109.69175362375448 11.484924240491793
  endloop
endfacet
facet normal 0.7071067811865379 0.0 -0.7071067811865572
  outer loop
    vertex 287.8150757595082 104.6917536237544 11.484924240491793
    vertex 288.24999999999994 109.69175362375448 11.818653347947366
    vertex 288.24999999999994 104.6917536237544 11.818653347947366
  endloop
endfacet
facet normal 0.8660254037844285 0.0 0.5000000000000174
  outer loop
    vertex 287.4813466520526 109.69175362375448 8.950000000000044
    vertex 287.2715557647929 104.6917536237544 9.456480005284751
    vertex 287.4813466520526 104.6917536237544 8.950000000000044
  endloop
endfacet
facet normal 0.9659258262890751 0.0 0.2588190451024954
  outer loop
    vertex 287.2715557647929 104.6917536237544 9.456480005284751
    vertex 287.4813466520526 109.69175362375448 8.950000000000044
    vertex 287.2715557647929 109.69175362375448 9.456480005284751
  endloop
endfacet
facet normal -0.7071067811865432 0.0 -0.7071067811865518
  outer loop
    vertex 290.78492424049176 109.69175362375448 11.484924240491795
    vertex 291.1186533479473 104.6917536237544 11.050000000000047
    vertex 290.78492424049176 104.6917536237544 11.484924240491795
  endloop
endfacet
facet normal -0.8660254037844448 0.0 -0.4999999999999893
  outer loop
    vertex 291.1186533479473 104.6917536237544 11.050000000000047
    vertex 290.78492424049176 109.69175362375448 11.484924240491795
    vertex 291.1186533479473 109.69175362375448 11.050000000000047
  endloop
endfacet
facet normal -0.2588190451025165 0.0 0.9659258262890694
  outer loop
    vertex 289.84351999471534 104.6917536237544 7.971555764793002
    vertex 289.3 109.69175362375448 7.900000000000045
    vertex 289.3 104.6917536237544 7.900000000000045
  endloop
endfacet
facet normal 0.0 0.0 1.0
  outer loop
    vertex 289.3 109.69175362375448 7.900000000000045
    vertex 289.84351999471534 104.6917536237544 7.971555764793002
    vertex 289.84351999471534 109.69175362375448 7.971555764793002
  endloop
endfacet
facet normal 0.9659258262890754 0.0 -0.2588190451024941
  outer loop
    vertex 287.2715557647929 109.69175362375448 50.54351999471534
    vertex 287.4813466520526 104.6917536237544 51.050000000000054
    vertex 287.2715557647929 104.6917536237544 50.54351999471534
  endloop
endfacet
facet normal 0.8660254037844285 0.0 -0.5000000000000175
  outer loop
    vertex 287.4813466520526 104.6917536237544 51.050000000000054
    vertex 287.2715557647929 109.69175362375448 50.54351999471534
    vertex 287.4813466520526 109.69175362375448 51.050000000000054
  endloop
endfacet
facet normal 1.0 0.0 -1.5148886822599639e-16
  outer loop
    vertex 287.2 109.69175362375448 10.000000000000044
    vertex 287.2715557647929 104.6917536237544 10.54351999471534
    vertex 287.2 104.6917536237544 10.000000000000044
  endloop
endfacet
facet normal 0.9659258262890749 0.0 -0.25881904510249554
  outer loop
    vertex 287.2715557647929 104.6917536237544 10.54351999471534
    vertex 287.2 109.69175362375448 10.000000000000044
    vertex 287.2715557647929 109.69175362375448 10.54351999471534
  endloop
endfacet
facet normal 0.0 0.0 1.0
  outer loop
    vertex 289.3 104.6917536237544 7.900000000000045
    vertex 288.7564800052847 109.69175362375448 7.971555764793002
    vertex 288.7564800052847 104.6917536237544 7.971555764793002
  endloop
endfacet
facet normal 0.2588190451025165 0.0 0.9659258262890694
  outer loop
    vertex 288.7564800052847 109.69175362375448 7.971555764793002
    vertex 289.3 104.6917536237544 7.900000000000045
    vertex 289.3 109.69175362375448 7.900000000000045
  endloop
endfacet
facet normal 2.4999793160386746e-29 0.500000000000006 0.8660254037844352
  outer loop
    vertex 283.79999999999995 136.09175362375444 15.094744111674279
    vertex 278.79999999999995 136.62235172452893 14.874963182164095
    vertex 278.79999999999995 136.09175362375444 15.094744111674279
  endloop
endfacet
facet normal 3.497419368029197e-19 0.25881904510250575 0.9659258262890723
  outer loop
    vertex 278.79999999999995 136.62235172452893 14.874963182164095
    vertex 283.79999999999995 136.09175362375444 15.094744111674279
    vertex 283.79999999999995 136.62235172452893 14.874963182164095
  endloop
endfacet
facet normal -0.8660254037844448 0.0 -0.49999999999998923
  outer loop
    vertex 291.1186533479473 109.69175362375448 51.050000000000054
    vertex 291.32844423520703 104.6917536237544 50.54351999471534
    vertex 291.1186533479473 104.6917536237544 51.050000000000054
  endloop
endfacet
facet normal -0.9659258262890648 0.0 -0.2588190451025335
  outer loop
    vertex 291.32844423520703 104.6917536237544 50.54351999471534
    vertex 291.1186533479473 109.69175362375448 51.050000000000054
    vertex 291.32844423520703 109.69175362375448 50.54351999471534
  endloop
endfacet
facet normal -0.9659258262890644 0.0 0.25881904510253495
  outer loop
    vertex 291.32844423520703 109.69175362375448 9.456480005284751
    vertex 291.1186533479473 104.6917536237544 8.950000000000045
    vertex 291.32844423520703 104.6917536237544 9.456480005284751
  endloop
endfacet
facet normal -0.8660254037844453 0.0 0.4999999999999886
  outer loop
    vertex 291.1186533479473 104.6917536237544 8.950000000000045
    vertex 291.32844423520703 109.69175362375448 9.456480005284751
    vertex 291.1186533479473 109.69175362375448 8.950000000000045
  endloop
endfacet
facet normal 4.0725455952995545e-30 -0.49999999999999845 -0.8660254037844397
  outer loop
    vertex 283.79999999999995 138.29175362375446 18.90525588832581
    vertex 278.79999999999995 137.76115552298003 19.125036817835998
    vertex 278.79999999999995 138.29175362375446 18.90525588832581
  endloop
endfacet
facet normal -3.497419368029198e-19 -0.2588190451025253 -0.9659258262890672
  outer loop
    vertex 278.79999999999995 137.76115552298003 19.125036817835998
    vertex 283.79999999999995 138.29175362375446 18.90525588832581
    vertex 283.79999999999995 137.76115552298003 19.125036817835998
  endloop
endfacet
facet normal -9.8222043553786e-31 -0.866025403784444 0.49999999999999095
  outer loop
    vertex 283.79999999999995 139.09700951208023 15.900000000000045
    vertex 278.79999999999995 138.7473885423649 15.444365081389641
    vertex 283.79999999999995 138.7473885423649 15.444365081389641
  endloop
endfacet
facet normal 0.0 -0.7071067811865516 0.7071067811865434
  outer loop
    vertex 278.79999999999995 138.7473885423649 15.444365081389641
    vertex 283.79999999999995 139.09700951208023 15.900000000000045
    vertex 278.79999999999995 139.09700951208023 15.900000000000045
  endloop
endfacet
facet normal 0.2588190451025155 0.0 0.9659258262890696
  outer loop
    vertex 288.7564800052847 104.6917536237544 47.971555764793
    vertex 288.24999999999994 109.69175362375448 48.181346652052724
    vertex 288.24999999999994 104.6917536237544 48.181346652052724
  endloop
endfacet
facet normal 0.5000000000000053 0.0 0.8660254037844355
  outer loop
    vertex 288.24999999999994 109.69175362375448 48.181346652052724
    vertex 288.7564800052847 104.6917536237544 47.971555764793
    vertex 288.7564800052847 109.69175362375448 47.971555764793
  endloop
endfacet
facet normal 1.0 -0.0 -0.0
  outer loop
    vertex 296.29999999999995 108.19175362375448 4.511946372076636e-14
    vertex 296.29999999999995 104.6917536237544 60.00000000000005
    vertex 296.29999999999995 104.6917536237544 4.511946372076636e-14
  endloop
endfacet
facet normal 1.0 -0.0 -0.0
  outer loop
    vertex 296.29999999999995 104.6917536237544 60.00000000000005
    vertex 296.29999999999995 108.19175362375448 4.511946372076636e-14
    vertex 296.29999999999995 108.19175362375448 60.00000000000005
  endloop
endfacet
facet normal 0.7071067811865422 0.7071067811865528 -0.0
  outer loop
    vertex 294.79999999999995 109.69175362375448 1.5000000000000453
    vertex 296.29999999999995 108.19175362375448 60.00000000000005
    vertex 296.29999999999995 108.19175362375448 4.511946372076636e-14
  endloop
endfacet
facet normal 0.7071067811865422 0.7071067811865528 -0.0
  outer loop
    vertex 296.29999999999995 108.19175362375448 60.00000000000005
    vertex 294.79999999999995 109.69175362375448 1.5000000000000453
    vertex 294.79999999999995 109.69175362375448 58.50000000000005
  endloop
endfacet
facet normal 0.8660254037844285 0.0 -0.5000000000000175
  outer loop
    vertex 287.4813466520526 109.69175362375448 51.050000000000054
    vertex 287.8150757595082 104.6917536237544 51.4849242404918
    vertex 287.4813466520526 104.6917536237544 51.050000000000054
  endloop
endfacet
facet normal 0.7071067811865346 0.0 -0.7071067811865603
  outer loop
    vertex 287.8150757595082 104.6917536237544 51.4849242404918
    vertex 287.4813466520526 109.69175362375448 51.050000000000054
    vertex 287.8150757595082 109.69175362375448 51.4849242404918
  endloop
endfacet
facet normal -0.7071067811865427 1.285985454919687e-17 -0.7071067811865523
  outer loop
    vertex 275.29999999999995 144.6917536237544 4.511946372076636e-14
    vertex 273.79999999999995 104.6917536237544 1.5000000000000437
    vertex 273.79999999999995 144.6917536237544 1.5000000000000453
  endloop
endfacet
facet normal -0.7071067811865427 1.285985454919687e-17 -0.7071067811865523
  outer loop
    vertex 273.79999999999995 104.6917536237544 1.5000000000000437
    vertex 275.29999999999995 144.6917536237544 4.511946372076636e-14
    vertex 275.29999999999995 104.6917536237544 4.511946372076636e-14
  endloop
endfacet
facet normal 0.5000000000000053 0.0 0.8660254037844355
  outer loop
    vertex 288.24999999999994 104.6917536237544 48.181346652052724
    vertex 287.8150757595082 109.69175362375448 48.5150757595083
    vertex 287.8150757595082 104.6917536237544 48.5150757595083
  endloop
endfacet
facet normal 0.7071067811865376 0.0 0.7071067811865576
  outer loop
    vertex 287.8150757595082 109.69175362375448 48.5150757595083
    vertex 288.24999999999994 104.6917536237544 48.181346652052724
    vertex 288.24999999999994 109.69175362375448 48.181346652052724
  endloop
endfacet
facet normal 0.9659258262890751 0.0 0.2588190451024954
  outer loop
    vertex 287.2715557647929 109.69175362375448 9.456480005284751
    vertex 287.2 104.6917536237544 10.000000000000044
    vertex 287.2715557647929 104.6917536237544 9.456480005284751
  endloop
endfacet
facet normal 1.0 0.0 -1.5148886822599639e-16
  outer loop
    vertex 287.2 104.6917536237544 10.000000000000044
    vertex 287.2715557647929 109.69175362375448 9.456480005284751
    vertex 287.2 109.69175362375448 10.000000000000044
  endloop
endfacet
facet normal -0.25881904510253495 0.0 -0.9659258262890645
  outer loop
    vertex 289.84351999471534 109.69175362375448 52.0284442352071
    vertex 289.3 104.6917536237544 52.10000000000005
    vertex 289.3 109.69175362375448 52.10000000000005
  endloop
endfacet
facet normal 1.0194309720620055e-14 0.0 -1.0
  outer loop
    vertex 289.3 104.6917536237544 52.10000000000005
    vertex 289.84351999471534 109.69175362375448 52.0284442352071
    vertex 289.84351999471534 104.6917536237544 52.0284442352071
  endloop
endfacet
facet normal 1.0194309720620055e-14 0.0 -1.0
  outer loop
    vertex 289.3 109.69175362375448 52.10000000000005
    vertex 288.7564800052847 104.6917536237544 52.02844423520709
    vertex 288.7564800052847 109.69175362375448 52.02844423520709
  endloop
endfacet
facet normal 0.2588190451025204 0.0 -0.9659258262890685
  outer loop
    vertex 288.7564800052847 104.6917536237544 52.02844423520709
    vertex 289.3 109.69175362375448 52.10000000000005
    vertex 289.3 104.6917536237544 52.10000000000005
  endloop
endfacet
facet normal 0.0 -1.0 0.0
  outer loop
    vertex 296.29999999999995 104.6917536237544 4.511946372076636e-14
    vertex 290.35 104.6917536237544 8.181346652052724
    vertex 275.29999999999995 104.6917536237544 4.511946372076636e-14
  endloop
endfacet
facet normal 0.0 -1.0 0.0
  outer loop
    vertex 290.35 104.6917536237544 8.181346652052724
    vertex 296.29999999999995 104.6917536237544 4.511946372076636e-14
    vertex 290.78492424049176 104.6917536237544 8.515075759508296
  endloop
endfacet
facet normal 0.0 -1.0 0.0
  outer loop
    vertex 290.78492424049176 104.6917536237544 8.515075759508296
    vertex 296.29999999999995 104.6917536237544 4.511946372076636e-14
    vertex 291.1186533479473 104.6917536237544 8.950000000000045
  endloop
endfacet
facet normal 0.0 -1.0 0.0
  outer loop
    vertex 291.1186533479473 104.6917536237544 8.950000000000045
    vertex 296.29999999999995 104.6917536237544 4.511946372076636e-14
    vertex 291.32844423520703 104.6917536237544 9.456480005284751
  endloop
endfacet
facet normal 0.0 -1.0 0.0
  outer loop
    vertex 291.32844423520703 104.6917536237544 9.456480005284751
    vertex 296.29999999999995 104.6917536237544 4.511946372076636e-14
    vertex 291.40000000000003 104.6917536237544 10.000000000000044
  endloop
endfacet
facet normal 0.0 -1.0 0.0
  outer loop
    vertex 291.40000000000003 104.6917536237544 10.000000000000044
    vertex 296.29999999999995 104.6917536237544 4.511946372076636e-14
    vertex 296.29999999999995 104.6917536237544 60.00000000000005
  endloop
endfacet
facet normal 0.0 -1.0 0.0
  outer loop
    vertex 275.29999999999995 104.6917536237544 4.511946372076636e-14
    vertex 290.35 104.6917536237544 8.181346652052724
    vertex 289.84351999471534 104.6917536237544 7.971555764793002
  endloop
endfacet
facet normal 0.0 -1.0 0.0
  outer loop
    vertex 275.29999999999995 104.6917536237544 4.511946372076636e-14
    vertex 289.84351999471534 104.6917536237544 7.971555764793002
    vertex 273.79999999999995 104.6917536237544 1.5000000000000437
  endloop
endfacet
facet normal 0.0 -1.0 0.0
  outer loop
    vertex 273.79999999999995 104.6917536237544 1.5000000000000437
    vertex 289.84351999471534 104.6917536237544 7.971555764793002
    vertex 278.79999999999995 104.6917536237544 5.0000000000000435
  endloop
endfacet
facet normal 0.0 -1.0 0.0
  outer loop
    vertex 278.79999999999995 104.6917536237544 5.0000000000000435
    vertex 289.84351999471534 104.6917536237544 7.971555764793002
    vertex 289.3 104.6917536237544 7.900000000000045
  endloop
endfacet
facet normal 0.0 -1.0 0.0
  outer loop
    vertex 291.40000000000003 104.6917536237544 10.000000000000044
    vertex 296.29999999999995 104.6917536237544 60.00000000000005
    vertex 291.32844423520703 104.6917536237544 10.54351999471534
  endloop
endfacet
facet normal 0.0 -1.0 0.0
  outer loop
    vertex 291.32844423520703 104.6917536237544 10.54351999471534
    vertex 296.29999999999995 104.6917536237544 60.00000000000005
    vertex 291.1186533479473 104.6917536237544 11.050000000000047
  endloop
endfacet
facet normal 0.0 -1.0 0.0
  outer loop
    vertex 291.1186533479473 104.6917536237544 11.050000000000047
    vertex 296.29999999999995 104.6917536237544 60.00000000000005
    vertex 290.78492424049176 104.6917536237544 11.484924240491795
  endloop
endfacet
facet normal 0.0 -1.0 0.0
  outer loop
    vertex 290.78492424049176 104.6917536237544 11.484924240491795
    vertex 296.29999999999995 104.6917536237544 60.00000000000005
    vertex 290.34999999999997 104.6917536237544 11.818653347947368
  endloop
endfacet
facet normal 0.0 -1.0 0.0
  outer loop
    vertex 290.34999999999997 104.6917536237544 11.818653347947368
    vertex 296.29999999999995 104.6917536237544 60.00000000000005
    vertex 289.84351999471534 104.6917536237544 12.02844423520709
  endloop
endfacet
facet normal 0.0 -1.0 0.0
  outer loop
    vertex 289.84351999471534 104.6917536237544 12.02844423520709
    vertex 296.29999999999995 104.6917536237544 60.00000000000005
    vertex 289.3 104.6917536237544 12.100000000000046
  endloop
endfacet
facet normal 0.0 -1.0 0.0
  outer loop
    vertex 289.3 104.6917536237544 12.100000000000046
    vertex 296.29999999999995 104.6917536237544 60.00000000000005
    vertex 291.1186533479473 104.6917536237544 48.95000000000005
  endloop
endfacet
facet normal 0.0 -1.0 0.0
  outer loop
    vertex 289.3 104.6917536237544 12.100000000000046
    vertex 291.1186533479473 104.6917536237544 48.95000000000005
    vertex 290.78492424049176 104.6917536237544 48.5150757595083
  endloop
endfacet
facet normal 0.0 -1.0 0.0
  outer loop
    vertex 289.3 104.6917536237544 12.100000000000046
    vertex 290.78492424049176 104.6917536237544 48.5150757595083
    vertex 290.35 104.6917536237544 48.181346652052724
  endloop
endfacet
facet normal 0.0 -1.0 0.0
  outer loop
    vertex 289.3 104.6917536237544 12.100000000000046
    vertex 290.35 104.6917536237544 48.181346652052724
    vertex 289.84351999471534 104.6917536237544 47.971555764793
  endloop
endfacet
facet normal 0.0 -1.0 0.0
  outer loop
    vertex 289.3 104.6917536237544 12.100000000000046
    vertex 289.84351999471534 104.6917536237544 47.971555764793
    vertex 289.3 104.6917536237544 47.90000000000005
  endloop
endfacet
facet normal 0.0 -1.0 0.0
  outer loop
    vertex 291.1186533479473 104.6917536237544 48.95000000000005
    vertex 296.29999999999995 104.6917536237544 60.00000000000005
    vertex 291.32844423520703 104.6917536237544 49.45648000528475
  endloop
endfacet
facet normal 0.0 -1.0 0.0
  outer loop
    vertex 291.32844423520703 104.6917536237544 49.45648000528475
    vertex 296.29999999999995 104.6917536237544 60.00000000000005
    vertex 291.40000000000003 104.6917536237544 50.00000000000005
  endloop
endfacet
facet normal 0.0 -1.0 0.0
  outer loop
    vertex 291.40000000000003 104.6917536237544 50.00000000000005
    vertex 296.29999999999995 104.6917536237544 60.00000000000005
    vertex 291.32844423520703 104.6917536237544 50.54351999471534
  endloop
endfacet
facet normal 0.0 -1.0 0.0
  outer loop
    vertex 291.32844423520703 104.6917536237544 50.54351999471534
    vertex 296.29999999999995 104.6917536237544 60.00000000000005
    vertex 291.1186533479473 104.6917536237544 51.050000000000054
  endloop
endfacet
facet normal 0.0 -1.0 0.0
  outer loop
    vertex 291.1186533479473 104.6917536237544 51.050000000000054
    vertex 296.29999999999995 104.6917536237544 60.00000000000005
    vertex 290.78492424049176 104.6917536237544 51.4849242404918
  endloop
endfacet
facet normal 0.0 -1.0 0.0
  outer loop
    vertex 290.78492424049176 104.6917536237544 51.4849242404918
    vertex 296.29999999999995 104.6917536237544 60.00000000000005
    vertex 290.34999999999997 104.6917536237544 51.81865334794737
  endloop
endfacet
facet normal 0.0 -1.0 0.0
  outer loop
    vertex 290.34999999999997 104.6917536237544 51.81865334794737
    vertex 296.29999999999995 104.6917536237544 60.00000000000005
    vertex 289.84351999471534 104.6917536237544 52.0284442352071
  endloop
endfacet
facet normal 0.0 -1.0 0.0
  outer loop
    vertex 289.84351999471534 104.6917536237544 52.0284442352071
    vertex 296.29999999999995 104.6917536237544 60.00000000000005
    vertex 289.3 104.6917536237544 52.10000000000005
  endloop
endfacet
facet normal 0.0 -1.0 0.0
  outer loop
    vertex 289.3 104.6917536237544 52.10000000000005
    vertex 296.29999999999995 104.6917536237544 60.00000000000005
    vertex 278.79999999999995 104.6917536237544 58.19906365191603
  endloop
endfacet
facet normal 0.0 -1.0 0.0
  outer loop
    vertex 278.79999999999995 104.6917536237544 58.19906365191603
    vertex 296.29999999999995 104.6917536237544 60.00000000000005
    vertex 280.29999999999995 104.6917536237544 60.00000000000005
  endloop
endfacet
facet normal 0.0 -1.0 0.0
  outer loop
    vertex 278.79999999999995 104.6917536237544 5.0000000000000435
    vertex 287.2715557647929 104.6917536237544 9.456480005284751
    vertex 278.79999999999995 104.6917536237544 58.19906365191603
  endloop
endfacet
facet normal 0.0 -1.0 0.0
  outer loop
    vertex 287.2715557647929 104.6917536237544 9.456480005284751
    vertex 278.79999999999995 104.6917536237544 5.0000000000000435
    vertex 287.4813466520526 104.6917536237544 8.950000000000044
  endloop
endfacet
facet normal 0.0 -1.0 0.0
  outer loop
    vertex 287.4813466520526 104.6917536237544 8.950000000000044
    vertex 278.79999999999995 104.6917536237544 5.0000000000000435
    vertex 287.8150757595082 104.6917536237544 8.515075759508296
  endloop
endfacet
facet normal 0.0 -1.0 0.0
  outer loop
    vertex 287.8150757595082 104.6917536237544 8.515075759508296
    vertex 278.79999999999995 104.6917536237544 5.0000000000000435
    vertex 288.24999999999994 104.6917536237544 8.181346652052724
  endloop
endfacet
facet normal 0.0 -1.0 0.0
  outer loop
    vertex 288.24999999999994 104.6917536237544 8.181346652052724
    vertex 278.79999999999995 104.6917536237544 5.0000000000000435
    vertex 288.7564800052847 104.6917536237544 7.971555764793002
  endloop
endfacet
facet normal 0.0 -1.0 0.0
  outer loop
    vertex 288.7564800052847 104.6917536237544 7.971555764793002
    vertex 278.79999999999995 104.6917536237544 5.0000000000000435
    vertex 289.3 104.6917536237544 7.900000000000045
  endloop
endfacet
facet normal 0.0 -1.0 0.0
  outer loop
    vertex 278.79999999999995 104.6917536237544 58.19906365191603
    vertex 287.2715557647929 104.6917536237544 9.456480005284751
    vertex 287.2 104.6917536237544 10.000000000000044
  endloop
endfacet
facet normal 0.0 -1.0 0.0
  outer loop
    vertex 278.79999999999995 104.6917536237544 58.19906365191603
    vertex 287.2 104.6917536237544 10.000000000000044
    vertex 287.2715557647929 104.6917536237544 10.54351999471534
  endloop
endfacet
facet normal 0.0 -1.0 0.0
  outer loop
    vertex 278.79999999999995 104.6917536237544 58.19906365191603
    vertex 287.2715557647929 104.6917536237544 10.54351999471534
    vertex 287.4813466520526 104.6917536237544 11.050000000000045
  endloop
endfacet
facet normal 0.0 -1.0 0.0
  outer loop
    vertex 278.79999999999995 104.6917536237544 58.19906365191603
    vertex 287.4813466520526 104.6917536237544 11.050000000000045
    vertex 287.8150757595082 104.6917536237544 11.484924240491793
  endloop
endfacet
facet normal 0.0 -1.0 0.0
  outer loop
    vertex 278.79999999999995 104.6917536237544 58.19906365191603
    vertex 287.8150757595082 104.6917536237544 11.484924240491793
    vertex 288.24999999999994 104.6917536237544 11.818653347947366
  endloop
endfacet
facet normal 0.0 -1.0 0.0
  outer loop
    vertex 278.79999999999995 104.6917536237544 58.19906365191603
    vertex 288.24999999999994 104.6917536237544 11.818653347947366
    vertex 288.7564800052847 104.6917536237544 12.028444235207088
  endloop
endfacet
facet normal 0.0 -1.0 0.0
  outer loop
    vertex 278.79999999999995 104.6917536237544 58.19906365191603
    vertex 288.7564800052847 104.6917536237544 12.028444235207088
    vertex 289.3 104.6917536237544 12.100000000000046
  endloop
endfacet
facet normal 0.0 -1.0 0.0
  outer loop
    vertex 278.79999999999995 104.6917536237544 58.19906365191603
    vertex 289.3 104.6917536237544 12.100000000000046
    vertex 287.8150757595082 104.6917536237544 48.5150757595083
  endloop
endfacet
facet normal 0.0 -1.0 0.0
  outer loop
    vertex 287.8150757595082 104.6917536237544 48.5150757595083
    vertex 289.3 104.6917536237544 12.100000000000046
    vertex 288.24999999999994 104.6917536237544 48.181346652052724
  endloop
endfacet
facet normal 0.0 -1.0 0.0
  outer loop
    vertex 288.24999999999994 104.6917536237544 48.181346652052724
    vertex 289.3 104.6917536237544 12.100000000000046
    vertex 288.7564800052847 104.6917536237544 47.971555764793
  endloop
endfacet
facet normal 0.0 -1.0 0.0
  outer loop
    vertex 288.7564800052847 104.6917536237544 47.971555764793
    vertex 289.3 104.6917536237544 12.100000000000046
    vertex 289.3 104.6917536237544 47.90000000000005
  endloop
endfacet
facet normal 0.0 -1.0 0.0
  outer loop
    vertex 278.79999999999995 104.6917536237544 58.19906365191603
    vertex 287.8150757595082 104.6917536237544 48.5150757595083
    vertex 287.4813466520526 104.6917536237544 48.950000000000045
  endloop
endfacet
facet normal 0.0 -1.0 0.0
  outer loop
    vertex 278.79999999999995 104.6917536237544 58.19906365191603
    vertex 287.4813466520526 104.6917536237544 48.950000000000045
    vertex 287.2715557647929 104.6917536237544 49.45648000528475
  endloop
endfacet
facet normal 0.0 -1.0 0.0
  outer loop
    vertex 278.79999999999995 104.6917536237544 58.19906365191603
    vertex 287.2715557647929 104.6917536237544 49.45648000528475
    vertex 287.2 104.6917536237544 50.00000000000005
  endloop
endfacet
facet normal 0.0 -1.0 0.0
  outer loop
    vertex 278.79999999999995 104.6917536237544 58.19906365191603
    vertex 287.2 104.6917536237544 50.00000000000005
    vertex 287.2715557647929 104.6917536237544 50.54351999471534
  endloop
endfacet
facet normal 0.0 -1.0 0.0
  outer loop
    vertex 278.79999999999995 104.6917536237544 58.19906365191603
    vertex 287.2715557647929 104.6917536237544 50.54351999471534
    vertex 287.4813466520526 104.6917536237544 51.050000000000054
  endloop
endfacet
facet normal 0.0 -1.0 0.0
  outer loop
    vertex 278.79999999999995 104.6917536237544 58.19906365191603
    vertex 287.4813466520526 104.6917536237544 51.050000000000054
    vertex 287.8150757595082 104.6917536237544 51.4849242404918
  endloop
endfacet
facet normal 0.0 -1.0 0.0
  outer loop
    vertex 278.79999999999995 104.6917536237544 58.19906365191603
    vertex 287.8150757595082 104.6917536237544 51.4849242404918
    vertex 288.24999999999994 104.6917536237544 51.81865334794737
  endloop
endfacet
facet normal 0.0 -1.0 0.0
  outer loop
    vertex 278.79999999999995 104.6917536237544 58.19906365191603
    vertex 288.24999999999994 104.6917536237544 51.81865334794737
    vertex 288.7564800052847 104.6917536237544 52.02844423520709
  endloop
endfacet
facet normal 0.0 -1.0 0.0
  outer loop
    vertex 278.79999999999995 104.6917536237544 58.19906365191603
    vertex 288.7564800052847 104.6917536237544 52.02844423520709
    vertex 289.3 104.6917536237544 52.10000000000005
  endloop
endfacet
facet normal 0.0 -1.0 0.0
  outer loop
    vertex 273.79999999999995 104.6917536237544 5.0000000000000435
    vertex 273.79999999999995 104.6917536237544 1.5000000000000437
    vertex 278.79999999999995 104.6917536237544 5.0000000000000435
  endloop
endfacet
facet normal -1.1084252210324462e-15 0.7071067811865529 0.7071067811865422
  outer loop
    vertex 282.29999999999995 108.19175362375448 60.00000000000005
    vertex 294.79999999999995 109.69175362375448 58.50000000000005
    vertex 283.79999999999995 109.69175362375444 58.50000000000005
  endloop
endfacet
facet normal -1.1084252210324462e-15 0.7071067811865529 0.7071067811865422
  outer loop
    vertex 294.79999999999995 109.69175362375448 58.50000000000005
    vertex 282.29999999999995 108.19175362375448 60.00000000000005
    vertex 296.29999999999995 108.19175362375448 60.00000000000005
  endloop
endfacet
facet normal -9.822204355378632e-31 0.9659258262890726 -0.25881904510250425
  outer loop
    vertex 278.79999999999995 135.06671680591847 17.569401899225593
    vertex 283.79999999999995 134.99175362375445 17.000000000000046
    vertex 278.79999999999995 134.99175362375445 17.000000000000046
  endloop
endfacet
facet normal 0.0 1.0 0.0
  outer loop
    vertex 283.79999999999995 134.99175362375445 17.000000000000046
    vertex 278.79999999999995 135.06671680591847 17.569401899225593
    vertex 283.79999999999995 135.06671680591847 17.569401899225593
  endloop
endfacet
facet normal -1.1134181274334935e-15 0.7071067811865536 -0.7071067811865416
  outer loop
    vertex 283.79999999999995 109.69175362375444 1.5000000000000453
    vertex 296.29999999999995 108.19175362375448 4.511946372076636e-14
    vertex 282.29999999999995 108.19175362375448 4.511946372076636e-14
  endloop
endfacet
facet normal -1.1134181274334935e-15 0.7071067811865536 -0.7071067811865416
  outer loop
    vertex 296.29999999999995 108.19175362375448 4.511946372076636e-14
    vertex 283.79999999999995 109.69175362375444 1.5000000000000453
    vertex 294.79999999999995 109.69175362375448 1.5000000000000453
  endloop
endfacet
facet normal 0.7071067811865376 0.0 0.7071067811865576
  outer loop
    vertex 287.8150757595082 109.69175362375448 48.5150757595083
    vertex 287.4813466520526 104.6917536237544 48.950000000000045
    vertex 287.8150757595082 104.6917536237544 48.5150757595083
  endloop
endfacet
facet normal 0.8660254037844285 0.0 0.5000000000000175
  outer loop
    vertex 287.4813466520526 104.6917536237544 48.950000000000045
    vertex 287.8150757595082 109.69175362375448 48.5150757595083
    vertex 287.4813466520526 109.69175362375448 48.950000000000045
  endloop
endfacet
facet normal -4.101769429160568e-15 1.0 -0.0
  outer loop
    vertex 283.79999999999995 109.69175362375444 1.5000000000000453
    vertex 287.8150757595082 109.69175362375448 8.515075759508296
    vertex 294.79999999999995 109.69175362375448 1.5000000000000453
  endloop
endfacet
facet normal -4.101769429160568e-15 1.0 -0.0
  outer loop
    vertex 287.8150757595082 109.69175362375448 8.515075759508296
    vertex 283.79999999999995 109.69175362375444 1.5000000000000453
    vertex 287.4813466520526 109.69175362375448 8.950000000000044
  endloop
endfacet
facet normal -4.101769429160568e-15 1.0 -0.0
  outer loop
    vertex 287.4813466520526 109.69175362375448 8.950000000000044
    vertex 283.79999999999995 109.69175362375444 1.5000000000000453
    vertex 287.2715557647929 109.69175362375448 9.456480005284751
  endloop
endfacet
facet normal -4.101769429160568e-15 1.0 -0.0
  outer loop
    vertex 287.2715557647929 109.69175362375448 9.456480005284751
    vertex 283.79999999999995 109.69175362375444 1.5000000000000453
    vertex 287.2 109.69175362375448 10.000000000000044
  endloop
endfacet
facet normal -4.101769429160568e-15 1.0 -0.0
  outer loop
    vertex 287.2 109.69175362375448 10.000000000000044
    vertex 283.79999999999995 109.69175362375444 1.5000000000000453
    vertex 283.79999999999995 109.69175362375444 58.50000000000005
  endloop
endfacet
facet normal -4.101769429160568e-15 1.0 -0.0
  outer loop
    vertex 294.79999999999995 109.69175362375448 1.5000000000000453
    vertex 287.8150757595082 109.69175362375448 8.515075759508296
    vertex 288.24999999999994 109.69175362375448 8.181346652052724
  endloop
endfacet
facet normal -4.101769429160568e-15 1.0 -0.0
  outer loop
    vertex 294.79999999999995 109.69175362375448 1.5000000000000453
    vertex 288.24999999999994 109.69175362375448 8.181346652052724
    vertex 288.7564800052847 109.69175362375448 7.971555764793002
  endloop
endfacet
facet normal -4.101769429160568e-15 1.0 -0.0
  outer loop
    vertex 294.79999999999995 109.69175362375448 1.5000000000000453
    vertex 288.7564800052847 109.69175362375448 7.971555764793002
    vertex 289.3 109.69175362375448 7.900000000000045
  endloop
endfacet
facet normal -4.101769429160568e-15 1.0 -0.0
  outer loop
    vertex 287.2 109.69175362375448 10.000000000000044
    vertex 283.79999999999995 109.69175362375444 58.50000000000005
    vertex 287.2715557647929 109.69175362375448 10.54351999471534
  endloop
endfacet
facet normal -4.101769429160568e-15 1.0 -0.0
  outer loop
    vertex 287.2715557647929 109.69175362375448 10.54351999471534
    vertex 283.79999999999995 109.69175362375444 58.50000000000005
    vertex 287.4813466520526 109.69175362375448 11.050000000000045
  endloop
endfacet
facet normal -4.101769429160568e-15 1.0 -0.0
  outer loop
    vertex 287.4813466520526 109.69175362375448 11.050000000000045
    vertex 283.79999999999995 109.69175362375444 58.50000000000005
    vertex 287.8150757595082 109.69175362375448 11.484924240491793
  endloop
endfacet
facet normal -4.101769429160568e-15 1.0 -0.0
  outer loop
    vertex 287.8150757595082 109.69175362375448 11.484924240491793
    vertex 283.79999999999995 109.69175362375444 58.50000000000005
    vertex 288.24999999999994 109.69175362375448 11.818653347947366
  endloop
endfacet
facet normal -4.101769429160568e-15 1.0 -0.0
  outer loop
    vertex 288.24999999999994 109.69175362375448 11.818653347947366
    vertex 283.79999999999995 109.69175362375444 58.50000000000005
    vertex 288.7564800052847 109.69175362375448 12.028444235207088
  endloop
endfacet
facet normal -4.101769429160568e-15 1.0 -0.0
  outer loop
    vertex 288.7564800052847 109.69175362375448 12.028444235207088
    vertex 283.79999999999995 109.69175362375444 58.50000000000005
    vertex 289.3 109.69175362375448 12.100000000000046
  endloop
endfacet
facet normal -4.101769429160568e-15 1.0 -0.0
  outer loop
    vertex 289.3 109.69175362375448 12.100000000000046
    vertex 283.79999999999995 109.69175362375444 58.50000000000005
    vertex 287.2715557647929 109.69175362375448 49.45648000528475
  endloop
endfacet
facet normal -4.101769429160568e-15 1.0 -0.0
  outer loop
    vertex 289.3 109.69175362375448 12.100000000000046
    vertex 287.2715557647929 109.69175362375448 49.45648000528475
    vertex 287.4813466520526 109.69175362375448 48.950000000000045
  endloop
endfacet
facet normal -4.101769429160568e-15 1.0 -0.0
  outer loop
    vertex 289.3 109.69175362375448 12.100000000000046
    vertex 287.4813466520526 109.69175362375448 48.950000000000045
    vertex 287.8150757595082 109.69175362375448 48.5150757595083
  endloop
endfacet
facet normal -4.101769429160568e-15 1.0 -0.0
  outer loop
    vertex 289.3 109.69175362375448 12.100000000000046
    vertex 287.8150757595082 109.69175362375448 48.5150757595083
    vertex 288.24999999999994 109.69175362375448 48.181346652052724
  endloop
endfacet
facet normal -4.101769429160568e-15 1.0 -0.0
  outer loop
    vertex 289.3 109.69175362375448 12.100000000000046
    vertex 288.24999999999994 109.69175362375448 48.181346652052724
    vertex 288.7564800052847 109.69175362375448 47.971555764793
  endloop
endfacet
facet normal -4.101769429160568e-15 1.0 -0.0
  outer loop
    vertex 289.3 109.69175362375448 12.100000000000046
    vertex 288.7564800052847 109.69175362375448 47.971555764793
    vertex 289.3 109.69175362375448 47.90000000000005
  endloop
endfacet
facet normal -4.101769429160568e-15 1.0 -0.0
  outer loop
    vertex 287.2715557647929 109.69175362375448 49.45648000528475
    vertex 283.79999999999995 109.69175362375444 58.50000000000005
    vertex 287.2 109.69175362375448 50.00000000000005
  endloop
endfacet
facet normal -4.101769429160568e-15 1.0 -0.0
  outer loop
    vertex 287.2 109.69175362375448 50.00000000000005
    vertex 283.79999999999995 109.69175362375444 58.50000000000005
    vertex 287.2715557647929 109.69175362375448 50.54351999471534
  endloop
endfacet
facet normal -4.101769429160568e-15 1.0 -0.0
  outer loop
    vertex 287.2715557647929 109.69175362375448 50.54351999471534
    vertex 283.79999999999995 109.69175362375444 58.50000000000005
    vertex 287.4813466520526 109.69175362375448 51.050000000000054
  endloop
endfacet
facet normal -4.101769429160568e-15 1.0 -0.0
  outer loop
    vertex 287.4813466520526 109.69175362375448 51.050000000000054
    vertex 283.79999999999995 109.69175362375444 58.50000000000005
    vertex 287.8150757595082 109.69175362375448 51.4849242404918
  endloop
endfacet
facet normal -4.101769429160568e-15 1.0 -0.0
  outer loop
    vertex 287.8150757595082 109.69175362375448 51.4849242404918
    vertex 283.79999999999995 109.69175362375444 58.50000000000005
    vertex 288.24999999999994 109.69175362375448 51.81865334794737
  endloop
endfacet
facet normal -4.101769429160568e-15 1.0 -0.0
  outer loop
    vertex 288.24999999999994 109.69175362375448 51.81865334794737
    vertex 283.79999999999995 109.69175362375444 58.50000000000005
    vertex 288.7564800052847 109.69175362375448 52.02844423520709
  endloop
endfacet
facet normal -4.101769429160568e-15 1.0 -0.0
  outer loop
    vertex 288.7564800052847 109.69175362375448 52.02844423520709
    vertex 283.79999999999995 109.69175362375444 58.50000000000005
    vertex 289.3 109.69175362375448 52.10000000000005
  endloop
endfacet
facet normal -4.101769429160568e-15 1.0 -0.0
  outer loop
    vertex 294.79999999999995 109.69175362375448 1.5000000000000453
    vertex 291.40000000000003 109.69175362375448 10.000000000000044
    vertex 294.79999999999995 109.69175362375448 58.50000000000005
  endloop
endfacet
facet normal -4.101769429160568e-15 1.0 -0.0
  outer loop
    vertex 291.40000000000003 109.69175362375448 10.000000000000044
    vertex 294.79999999999995 109.69175362375448 1.5000000000000453
    vertex 291.32844423520703 109.69175362375448 9.456480005284751
  endloop
endfacet
facet normal -4.101769429160568e-15 1.0 -0.0
  outer loop
    vertex 291.32844423520703 109.69175362375448 9.456480005284751
    vertex 294.79999999999995 109.69175362375448 1.5000000000000453
    vertex 291.1186533479473 109.69175362375448 8.950000000000045
  endloop
endfacet
facet normal -4.101769429160568e-15 1.0 -0.0
  outer loop
    vertex 291.1186533479473 109.69175362375448 8.950000000000045
    vertex 294.79999999999995 109.69175362375448 1.5000000000000453
    vertex 290.78492424049176 109.69175362375448 8.515075759508296
  endloop
endfacet
facet normal -4.101769429160568e-15 1.0 -0.0
  outer loop
    vertex 290.78492424049176 109.69175362375448 8.515075759508296
    vertex 294.79999999999995 109.69175362375448 1.5000000000000453
    vertex 290.35 109.69175362375448 8.181346652052724
  endloop
endfacet
facet normal -4.101769429160568e-15 1.0 -0.0
  outer loop
    vertex 290.35 109.69175362375448 8.181346652052724
    vertex 294.79999999999995 109.69175362375448 1.5000000000000453
    vertex 289.84351999471534 109.69175362375448 7.971555764793002
  endloop
endfacet
facet normal -4.101769429160568e-15 1.0 -0.0
  outer loop
    vertex 289.84351999471534 109.69175362375448 7.971555764793002
    vertex 294.79999999999995 109.69175362375448 1.5000000000000453
    vertex 289.3 109.69175362375448 7.900000000000045
  endloop
endfacet
facet normal -4.101769429160568e-15 1.0 -0.0
  outer loop
    vertex 294.79999999999995 109.69175362375448 58.50000000000005
    vertex 291.40000000000003 109.69175362375448 10.000000000000044
    vertex 291.32844423520703 109.69175362375448 10.54351999471534
  endloop
endfacet
facet normal -4.101769429160568e-15 1.0 -0.0
  outer loop
    vertex 294.79999999999995 109.69175362375448 58.50000000000005
    vertex 291.32844423520703 109.69175362375448 10.54351999471534
    vertex 291.1186533479473 109.69175362375448 11.050000000000047
  endloop
endfacet
facet normal -4.101769429160568e-15 1.0 -0.0
  outer loop
    vertex 294.79999999999995 109.69175362375448 58.50000000000005
    vertex 291.1186533479473 109.69175362375448 11.050000000000047
    vertex 290.78492424049176 109.69175362375448 11.484924240491795
  endloop
endfacet
facet normal -4.101769429160568e-15 1.0 -0.0
  outer loop
    vertex 294.79999999999995 109.69175362375448 58.50000000000005
    vertex 290.78492424049176 109.69175362375448 11.484924240491795
    vertex 290.34999999999997 109.69175362375448 11.818653347947368
  endloop
endfacet
facet normal -4.101769429160568e-15 1.0 -0.0
  outer loop
    vertex 294.79999999999995 109.69175362375448 58.50000000000005
    vertex 290.34999999999997 109.69175362375448 11.818653347947368
    vertex 289.84351999471534 109.69175362375448 12.02844423520709
  endloop
endfacet
facet normal -4.101769429160568e-15 1.0 -0.0
  outer loop
    vertex 294.79999999999995 109.69175362375448 58.50000000000005
    vertex 289.84351999471534 109.69175362375448 12.02844423520709
    vertex 289.3 109.69175362375448 12.100000000000046
  endloop
endfacet
facet normal -4.101769429160568e-15 1.0 -0.0
  outer loop
    vertex 294.79999999999995 109.69175362375448 58.50000000000005
    vertex 289.3 109.69175362375448 12.100000000000046
    vertex 291.32844423520703 109.69175362375448 49.45648000528475
  endloop
endfacet
facet normal -4.101769429160568e-15 1.0 -0.0
  outer loop
    vertex 291.32844423520703 109.69175362375448 49.45648000528475
    vertex 289.3 109.69175362375448 12.100000000000046
    vertex 291.1186533479473 109.69175362375448 48.95000000000005
  endloop
endfacet
facet normal -4.101769429160568e-15 1.0 -0.0
  outer loop
    vertex 291.1186533479473 109.69175362375448 48.95000000000005
    vertex 289.3 109.69175362375448 12.100000000000046
    vertex 290.78492424049176 109.69175362375448 48.5150757595083
  endloop
endfacet
facet normal -4.101769429160568e-15 1.0 -0.0
  outer loop
    vertex 290.78492424049176 109.69175362375448 48.5150757595083
    vertex 289.3 109.69175362375448 12.100000000000046
    vertex 290.35 109.69175362375448 48.181346652052724
  endloop
endfacet
facet normal -4.101769429160568e-15 1.0 -0.0
  outer loop
    vertex 290.35 109.69175362375448 48.181346652052724
    vertex 289.3 109.69175362375448 12.100000000000046
    vertex 289.84351999471534 109.69175362375448 47.971555764793
  endloop
endfacet
facet normal -4.101769429160568e-15 1.0 -0.0
  outer loop
    vertex 289.84351999471534 109.69175362375448 47.971555764793
    vertex 289.3 109.69175362375448 12.100000000000046
    vertex 289.3 109.69175362375448 47.90000000000005
  endloop
endfacet
facet normal -4.101769429160568e-15 1.0 -0.0
  outer loop
    vertex 294.79999999999995 109.69175362375448 58.50000000000005
    vertex 291.32844423520703 109.69175362375448 49.45648000528475
    vertex 291.40000000000003 109.69175362375448 50.00000000000005
  endloop
endfacet
facet normal -4.101769429160568e-15 1.0 -0.0
  outer loop
    vertex 294.79999999999995 109.69175362375448 58.50000000000005
    vertex 291.40000000000003 109.69175362375448 50.00000000000005
    vertex 291.32844423520703 109.69175362375448 50.54351999471534
  endloop
endfacet
facet normal -4.101769429160568e-15 1.0 -0.0
  outer loop
    vertex 294.79999999999995 109.69175362375448 58.50000000000005
    vertex 291.32844423520703 109.69175362375448 50.54351999471534
    vertex 291.1186533479473 109.69175362375448 51.050000000000054
  endloop
endfacet
facet normal -4.101769429160568e-15 1.0 -0.0
  outer loop
    vertex 294.79999999999995 109.69175362375448 58.50000000000005
    vertex 291.1186533479473 109.69175362375448 51.050000000000054
    vertex 290.78492424049176 109.69175362375448 51.4849242404918
  endloop
endfacet
facet normal -4.101769429160568e-15 1.0 -0.0
  outer loop
    vertex 294.79999999999995 109.69175362375448 58.50000000000005
    vertex 290.78492424049176 109.69175362375448 51.4849242404918
    vertex 290.34999999999997 109.69175362375448 51.81865334794737
  endloop
endfacet
facet normal -4.101769429160568e-15 1.0 -0.0
  outer loop
    vertex 294.79999999999995 109.69175362375448 58.50000000000005
    vertex 290.34999999999997 109.69175362375448 51.81865334794737
    vertex 289.84351999471534 109.69175362375448 52.0284442352071
  endloop
endfacet
facet normal -4.101769429160568e-15 1.0 -0.0
  outer loop
    vertex 294.79999999999995 109.69175362375448 58.50000000000005
    vertex 289.84351999471534 109.69175362375448 52.0284442352071
    vertex 289.3 109.69175362375448 52.10000000000005
  endloop
endfacet
facet normal -4.101769429160568e-15 1.0 -0.0
  outer loop
    vertex 294.79999999999995 109.69175362375448 58.50000000000005
    vertex 289.3 109.69175362375448 52.10000000000005
    vertex 283.79999999999995 109.69175362375444 58.50000000000005
  endloop
endfacet
facet normal -0.500000000000002 0.0 -0.8660254037844375
  outer loop
    vertex 290.34999999999997 109.69175362375448 51.81865334794737
    vertex 289.84351999471534 104.6917536237544 52.0284442352071
    vertex 289.84351999471534 109.69175362375448 52.0284442352071
  endloop
endfacet
facet normal -0.25881904510253495 0.0 -0.9659258262890645
  outer loop
    vertex 289.84351999471534 104.6917536237544 52.0284442352071
    vertex 290.34999999999997 109.69175362375448 51.81865334794737
    vertex 290.34999999999997 104.6917536237544 51.81865334794737
  endloop
endfacet
facet normal 0.7071067811865476 0.7071067811865476 -0.0
  outer loop
    vertex 282.29999999999995 144.6917536237544 4.511946372076636e-14
    vertex 283.79999999999995 143.19175362375444 58.50000000000005
    vertex 283.79999999999995 143.19175362375444 1.5000000000000453
  endloop
endfacet
facet normal 0.7071067811865476 0.7071067811865476 -0.0
  outer loop
    vertex 283.79999999999995 143.19175362375444 58.50000000000005
    vertex 282.29999999999995 144.6917536237544 4.511946372076636e-14
    vertex 282.29999999999995 144.6917536237544 60.00000000000005
  endloop
endfacet
facet normal -0.7683849843760452 0.0 0.6399879028430341
  outer loop
    vertex 280.29999999999995 144.6917536237544 60.00000000000005
    vertex 278.79999999999995 104.6917536237544 58.19906365191603
    vertex 280.29999999999995 104.6917536237544 60.00000000000005
  endloop
endfacet
facet normal -0.7683849843760452 0.0 0.6399879028430341
  outer loop
    vertex 278.79999999999995 104.6917536237544 58.19906365191603
    vertex 280.29999999999995 144.6917536237544 60.00000000000005
    vertex 278.79999999999995 144.6917536237544 58.19906365191603
  endloop
endfacet
facet normal 0.7071067811865528 1.0148486918362402e-30 0.7071067811865422
  outer loop
    vertex 283.79999999999995 109.69175362375444 58.50000000000005
    vertex 282.29999999999995 144.6917536237544 60.00000000000005
    vertex 282.29999999999995 108.19175362375448 60.00000000000005
  endloop
endfacet
facet normal 0.7071067811865528 1.0148486918362402e-30 0.7071067811865422
  outer loop
    vertex 282.29999999999995 144.6917536237544 60.00000000000005
    vertex 283.79999999999995 109.69175362375444 58.50000000000005
    vertex 283.79999999999995 143.19175362375444 58.50000000000005
  endloop
endfacet
facet normal -0.9999999999999999 0.0 1.693110880172919e-16
  outer loop
    vertex 291.40000000000003 109.69175362375448 10.000000000000044
    vertex 291.32844423520703 104.6917536237544 9.456480005284751
    vertex 291.40000000000003 104.6917536237544 10.000000000000044
  endloop
endfacet
facet normal -0.9659258262890644 0.0 0.25881904510253495
  outer loop
    vertex 291.32844423520703 104.6917536237544 9.456480005284751
    vertex 291.40000000000003 109.69175362375448 10.000000000000044
    vertex 291.32844423520703 109.69175362375448 9.456480005284751
  endloop
endfacet
facet normal 1.2564664952862123e-15 0.0 -1.0
  outer loop
    vertex 289.3 109.69175362375448 12.100000000000046
    vertex 288.7564800052847 104.6917536237544 12.028444235207088
    vertex 288.7564800052847 109.69175362375448 12.028444235207088
  endloop
endfacet
facet normal 0.2588190451025165 0.0 -0.9659258262890694
  outer loop
    vertex 288.7564800052847 104.6917536237544 12.028444235207088
    vertex 289.3 109.69175362375448 12.100000000000046
    vertex 289.3 104.6917536237544 12.100000000000046
  endloop
endfacet
facet normal -0.8660254037844448 0.0 -0.4999999999999893
  outer loop
    vertex 291.1186533479473 109.69175362375448 11.050000000000047
    vertex 291.32844423520703 104.6917536237544 10.54351999471534
    vertex 291.1186533479473 104.6917536237544 11.050000000000047
  endloop
endfacet
facet normal -0.9659258262890644 0.0 -0.25881904510253473
  outer loop
    vertex 291.32844423520703 104.6917536237544 10.54351999471534
    vertex 291.1186533479473 109.69175362375448 11.050000000000047
    vertex 291.32844423520703 109.69175362375448 10.54351999471534
  endloop
endfacet
facet normal 0.8660254037844285 0.0 -0.5000000000000174
  outer loop
    vertex 287.4813466520526 109.69175362375448 11.050000000000045
    vertex 287.8150757595082 104.6917536237544 11.484924240491793
    vertex 287.4813466520526 104.6917536237544 11.050000000000045
  endloop
endfacet
facet normal 0.7071067811865379 0.0 -0.7071067811865572
  outer loop
    vertex 287.8150757595082 104.6917536237544 11.484924240491793
    vertex 287.4813466520526 109.69175362375448 11.050000000000045
    vertex 287.8150757595082 109.69175362375448 11.484924240491793
  endloop
endfacet
facet normal 0.7071067811865536 1.2896731139798373e-18 -0.7071067811865416
  outer loop
    vertex 282.29999999999995 144.6917536237544 4.511946372076636e-14
    vertex 283.79999999999995 109.69175362375444 1.5000000000000453
    vertex 282.29999999999995 108.19175362375448 4.511946372076636e-14
  endloop
endfacet
facet normal 0.7071067811865536 1.2896731139798373e-18 -0.7071067811865416
  outer loop
    vertex 283.79999999999995 109.69175362375444 1.5000000000000453
    vertex 282.29999999999995 144.6917536237544 4.511946372076636e-14
    vertex 283.79999999999995 143.19175362375444 1.5000000000000453
  endloop
endfacet
facet normal -0.5000000000000056 0.0 0.8660254037844354
  outer loop
    vertex 290.35 104.6917536237544 8.181346652052724
    vertex 289.84351999471534 109.69175362375448 7.971555764793002
    vertex 289.84351999471534 104.6917536237544 7.971555764793002
  endloop
endfacet
facet normal -0.2588190451025165 0.0 0.9659258262890694
  outer loop
    vertex 289.84351999471534 109.69175362375448 7.971555764793002
    vertex 290.35 104.6917536237544 8.181346652052724
    vertex 290.35 109.69175362375448 8.181346652052724
  endloop
endfacet
facet normal -3.497419368029198e-19 -0.2588190451025253 -0.9659258262890672
  outer loop
    vertex 283.79999999999995 137.76115552298003 19.125036817835998
    vertex 278.79999999999995 137.1917536237545 19.200000000000045
    vertex 278.79999999999995 137.76115552298003 19.125036817835998
  endloop
endfacet
facet normal 4.328327229236618e-34 -5.1060659702056755e-15 -1.0
  outer loop
    vertex 278.79999999999995 137.1917536237545 19.200000000000045
    vertex 283.79999999999995 137.76115552298003 19.125036817835998
    vertex 283.79999999999995 137.1917536237545 19.200000000000045
  endloop
endfacet
facet normal 0.2588190451025204 0.0 -0.9659258262890685
  outer loop
    vertex 288.7564800052847 109.69175362375448 52.02844423520709
    vertex 288.24999999999994 104.6917536237544 51.81865334794737
    vertex 288.24999999999994 109.69175362375448 51.81865334794737
  endloop
endfacet
facet normal 0.5000000000000018 0.0 -0.8660254037844376
  outer loop
    vertex 288.24999999999994 104.6917536237544 51.81865334794737
    vertex 288.7564800052847 109.69175362375448 52.02844423520709
    vertex 288.7564800052847 104.6917536237544 52.02844423520709
  endloop
endfacet
facet normal -1.0 0.0 0.0
  outer loop
    vertex 278.79999999999995 144.6917536237544 58.19906365191603
    vertex 278.79999999999995 104.6917536237544 5.0000000000000435
    vertex 278.79999999999995 104.6917536237544 58.19906365191603
  endloop
endfacet
facet normal -1.0 0.0 0.0
  outer loop
    vertex 278.79999999999995 104.6917536237544 5.0000000000000435
    vertex 278.79999999999995 144.6917536237544 58.19906365191603
    vertex 278.79999999999995 135.06671680591847 17.569401899225593
  endloop
endfacet
facet normal -1.0 0.0 0.0
  outer loop
    vertex 278.79999999999995 104.6917536237544 5.0000000000000435
    vertex 278.79999999999995 135.06671680591847 17.569401899225593
    vertex 278.79999999999995 134.99175362375445 17.000000000000046
  endloop
endfacet
facet normal -1.0 0.0 0.0
  outer loop
    vertex 278.79999999999995 135.06671680591847 17.569401899225593
    vertex 278.79999999999995 144.6917536237544 58.19906365191603
    vertex 278.79999999999995 135.28649773542867 18.100000000000044
  endloop
endfacet
facet normal -1.0 0.0 0.0
  outer loop
    vertex 278.79999999999995 135.28649773542867 18.100000000000044
    vertex 278.79999999999995 144.6917536237544 58.19906365191603
    vertex 278.79999999999995 135.63611870514407 18.55563491861045
  endloop
endfacet
facet normal -1.0 0.0 0.0
  outer loop
    vertex 278.79999999999995 135.63611870514407 18.55563491861045
    vertex 278.79999999999995 144.6917536237544 58.19906365191603
    vertex 278.79999999999995 136.09175362375447 18.90525588832581
  endloop
endfacet
facet normal -1.0 0.0 0.0
  outer loop
    vertex 278.79999999999995 136.09175362375447 18.90525588832581
    vertex 278.79999999999995 144.6917536237544 58.19906365191603
    vertex 278.79999999999995 136.62235172452893 19.125036817835998
  endloop
endfacet
facet normal -1.0 0.0 0.0
  outer loop
    vertex 278.79999999999995 136.62235172452893 19.125036817835998
    vertex 278.79999999999995 144.6917536237544 58.19906365191603
    vertex 278.79999999999995 137.1917536237545 19.200000000000045
  endloop
endfacet
facet normal -1.0 0.0 0.0
  outer loop
    vertex 278.79999999999995 137.1917536237545 19.200000000000045
    vertex 278.79999999999995 144.6917536237544 58.19906365191603
    vertex 278.79999999999995 137.76115552298003 19.125036817835998
  endloop
endfacet
facet normal -1.0 0.0 0.0
  outer loop
    vertex 278.79999999999995 137.76115552298003 19.125036817835998
    vertex 278.79999999999995 144.6917536237544 58.19906365191603
    vertex 278.79999999999995 138.29175362375446 18.90525588832581
  endloop
endfacet
facet normal -1.0 0.0 0.0
  outer loop
    vertex 278.79999999999995 138.29175362375446 18.90525588832581
    vertex 278.79999999999995 144.6917536237544 58.19906365191603
    vertex 278.79999999999995 138.7473885423649 18.55563491861045
  endloop
endfacet
facet normal -1.0 0.0 0.0
  outer loop
    vertex 278.79999999999995 138.7473885423649 18.55563491861045
    vertex 278.79999999999995 144.6917536237544 58.19906365191603
    vertex 278.79999999999995 139.09700951208023 18.100000000000044
  endloop
endfacet
facet normal -1.0 0.0 0.0
  outer loop
    vertex 278.79999999999995 139.09700951208023 18.100000000000044
    vertex 278.79999999999995 144.6917536237544 58.19906365191603
    vertex 278.79999999999995 139.31679044159043 17.56940189922559
  endloop
endfacet
facet normal -1.0 0.0 0.0
  outer loop
    vertex 278.79999999999995 139.31679044159043 17.56940189922559
    vertex 278.79999999999995 144.6917536237544 58.19906365191603
    vertex 278.79999999999995 139.39175362375448 17.000000000000046
  endloop
endfacet
facet normal -1.0 0.0 0.0
  outer loop
    vertex 278.79999999999995 104.6917536237544 5.0000000000000435
    vertex 278.79999999999995 135.63611870514407 15.444365081389641
    vertex 278.79999999999995 144.69175362375447 5.0000000000000435
  endloop
endfacet
facet normal -1.0 0.0 0.0
  outer loop
    vertex 278.79999999999995 135.63611870514407 15.444365081389641
    vertex 278.79999999999995 104.6917536237544 5.0000000000000435
    vertex 278.79999999999995 135.28649773542867 15.900000000000045
  endloop
endfacet
facet normal -1.0 0.0 0.0
  outer loop
    vertex 278.79999999999995 135.28649773542867 15.900000000000045
    vertex 278.79999999999995 104.6917536237544 5.0000000000000435
    vertex 278.79999999999995 135.06671680591847 16.4305981007745
  endloop
endfacet
facet normal -1.0 0.0 0.0
  outer loop
    vertex 278.79999999999995 135.06671680591847 16.4305981007745
    vertex 278.79999999999995 104.6917536237544 5.0000000000000435
    vertex 278.79999999999995 134.99175362375445 17.000000000000046
  endloop
endfacet
facet normal -1.0 0.0 0.0
  outer loop
    vertex 278.79999999999995 144.69175362375447 5.0000000000000435
    vertex 278.79999999999995 135.63611870514407 15.444365081389641
    vertex 278.79999999999995 136.09175362375444 15.094744111674279
  endloop
endfacet
facet normal -1.0 0.0 0.0
  outer loop
    vertex 278.79999999999995 144.69175362375447 5.0000000000000435
    vertex 278.79999999999995 136.09175362375444 15.094744111674279
    vertex 278.79999999999995 136.62235172452893 14.874963182164095
  endloop
endfacet
facet normal -1.0 0.0 0.0
  outer loop
    vertex 278.79999999999995 144.69175362375447 5.0000000000000435
    vertex 278.79999999999995 136.62235172452893 14.874963182164095
    vertex 278.79999999999995 137.1917536237545 14.800000000000043
  endloop
endfacet
facet normal -1.0 0.0 0.0
  outer loop
    vertex 278.79999999999995 144.69175362375447 5.0000000000000435
    vertex 278.79999999999995 137.1917536237545 14.800000000000043
    vertex 278.79999999999995 137.76115552298003 14.874963182164095
  endloop
endfacet
facet normal -1.0 0.0 0.0
  outer loop
    vertex 278.79999999999995 144.69175362375447 5.0000000000000435
    vertex 278.79999999999995 137.76115552298003 14.874963182164095
    vertex 278.79999999999995 138.29175362375446 15.094744111674279
  endloop
endfacet
facet normal -1.0 0.0 0.0
  outer loop
    vertex 278.79999999999995 144.69175362375447 5.0000000000000435
    vertex 278.79999999999995 138.29175362375446 15.094744111674279
    vertex 278.79999999999995 138.7473885423649 15.444365081389641
  endloop
endfacet
facet normal -1.0 0.0 0.0
  outer loop
    vertex 278.79999999999995 144.69175362375447 5.0000000000000435
    vertex 278.79999999999995 138.7473885423649 15.444365081389641
    vertex 278.79999999999995 139.09700951208023 15.900000000000045
  endloop
endfacet
facet normal -1.0 0.0 0.0
  outer loop
    vertex 278.79999999999995 144.69175362375447 5.0000000000000435
    vertex 278.79999999999995 139.09700951208023 15.900000000000045
    vertex 278.79999999999995 139.31679044159043 16.4305981007745
  endloop
endfacet
facet normal -1.0 0.0 0.0
  outer loop
    vertex 278.79999999999995 144.69175362375447 5.0000000000000435
    vertex 278.79999999999995 139.31679044159043 16.4305981007745
    vertex 278.79999999999995 139.39175362375448 17.000000000000046
  endloop
endfacet
facet normal -1.0 0.0 0.0
  outer loop
    vertex 278.79999999999995 144.69175362375447 5.0000000000000435
    vertex 278.79999999999995 139.39175362375448 17.000000000000046
    vertex 278.79999999999995 144.6917536237544 58.19906365191603
  endloop
endfacet
facet normal -0.7071067811865432 0.0 -0.7071067811865518
  outer loop
    vertex 290.78492424049176 109.69175362375448 11.484924240491795
    vertex 290.34999999999997 104.6917536237544 11.818653347947368
    vertex 290.34999999999997 109.69175362375448 11.818653347947368
  endloop
endfacet
facet normal -0.4999999999999985 0.0 -0.8660254037844396
  outer loop
    vertex 290.34999999999997 104.6917536237544 11.818653347947368
    vertex 290.78492424049176 109.69175362375448 11.484924240491795
    vertex 290.78492424049176 104.6917536237544 11.484924240491795
  endloop
endfacet
facet normal 0.2588190451025165 0.0 0.9659258262890694
  outer loop
    vertex 288.7564800052847 104.6917536237544 7.971555764793002
    vertex 288.24999999999994 109.69175362375448 8.181346652052724
    vertex 288.24999999999994 104.6917536237544 8.181346652052724
  endloop
endfacet
facet normal 0.5000000000000056 0.0 0.8660254037844354
  outer loop
    vertex 288.24999999999994 109.69175362375448 8.181346652052724
    vertex 288.7564800052847 104.6917536237544 7.971555764793002
    vertex 288.7564800052847 109.69175362375448 7.971555764793002
  endloop
endfacet
facet normal -0.7071067811865608 0.0 0.7071067811865344
  outer loop
    vertex 290.78492424049176 104.6917536237544 8.515075759508296
    vertex 290.35 109.69175362375448 8.181346652052724
    vertex 290.35 104.6917536237544 8.181346652052724
  endloop
endfacet
facet normal -0.5000000000000056 0.0 0.8660254037844354
  outer loop
    vertex 290.35 109.69175362375448 8.181346652052724
    vertex 290.78492424049176 104.6917536237544 8.515075759508296
    vertex 290.78492424049176 109.69175362375448 8.515075759508296
  endloop
endfacet
facet normal 1.0 -0.0 -0.0
  outer loop
    vertex 283.79999999999995 143.19175362375444 1.5000000000000453
    vertex 283.79999999999995 109.69175362375444 58.50000000000005
    vertex 283.79999999999995 109.69175362375444 1.5000000000000453
  endloop
endfacet
facet normal 1.0 -0.0 -0.0
  outer loop
    vertex 283.79999999999995 109.69175362375444 58.50000000000005
    vertex 283.79999999999995 143.19175362375444 1.5000000000000453
    vertex 283.79999999999995 135.28649773542867 15.900000000000045
  endloop
endfacet
facet normal 1.0 -0.0 -0.0
  outer loop
    vertex 283.79999999999995 109.69175362375444 58.50000000000005
    vertex 283.79999999999995 135.28649773542867 15.900000000000045
    vertex 283.79999999999995 135.06671680591847 16.4305981007745
  endloop
endfacet
facet normal 1.0 -0.0 -0.0
  outer loop
    vertex 283.79999999999995 109.69175362375444 58.50000000000005
    vertex 283.79999999999995 135.06671680591847 16.4305981007745
    vertex 283.79999999999995 134.99175362375445 17.000000000000046
  endloop
endfacet
facet normal 1.0 -0.0 -0.0
  outer loop
    vertex 283.79999999999995 135.28649773542867 15.900000000000045
    vertex 283.79999999999995 143.19175362375444 1.5000000000000453
    vertex 283.79999999999995 135.63611870514407 15.444365081389641
  endloop
endfacet
facet normal 1.0 -0.0 -0.0
  outer loop
    vertex 283.79999999999995 135.63611870514407 15.444365081389641
    vertex 283.79999999999995 143.19175362375444 1.5000000000000453
    vertex 283.79999999999995 136.09175362375444 15.094744111674279
  endloop
endfacet
facet normal 1.0 -0.0 -0.0
  outer loop
    vertex 283.79999999999995 136.09175362375444 15.094744111674279
    vertex 283.79999999999995 143.19175362375444 1.5000000000000453
    vertex 283.79999999999995 136.62235172452893 14.874963182164095
  endloop
endfacet
facet normal 1.0 -0.0 -0.0
  outer loop
    vertex 283.79999999999995 136.62235172452893 14.874963182164095
    vertex 283.79999999999995 143.19175362375444 1.5000000000000453
    vertex 283.79999999999995 137.1917536237545 14.800000000000043
  endloop
endfacet
facet normal 1.0 -0.0 -0.0
  outer loop
    vertex 283.79999999999995 137.1917536237545 14.800000000000043
    vertex 283.79999999999995 143.19175362375444 1.5000000000000453
    vertex 283.79999999999995 137.76115552298003 14.874963182164095
  endloop
endfacet
facet normal 1.0 -0.0 -0.0
  outer loop
    vertex 283.79999999999995 137.76115552298003 14.874963182164095
    vertex 283.79999999999995 143.19175362375444 1.5000000000000453
    vertex 283.79999999999995 138.29175362375446 15.094744111674279
  endloop
endfacet
facet normal 1.0 -0.0 -0.0
  outer loop
    vertex 283.79999999999995 138.29175362375446 15.094744111674279
    vertex 283.79999999999995 143.19175362375444 1.5000000000000453
    vertex 283.79999999999995 138.7473885423649 15.444365081389641
  endloop
endfacet
facet normal 1.0 -0.0 -0.0
  outer loop
    vertex 283.79999999999995 138.7473885423649 15.444365081389641
    vertex 283.79999999999995 143.19175362375444 1.5000000000000453
    vertex 283.79999999999995 139.09700951208023 15.900000000000045
  endloop
endfacet
facet normal 1.0 -0.0 -0.0
  outer loop
    vertex 283.79999999999995 139.09700951208023 15.900000000000045
    vertex 283.79999999999995 143.19175362375444 1.5000000000000453
    vertex 283.79999999999995 139.31679044159043 16.4305981007745
  endloop
endfacet
facet normal 1.0 -0.0 -0.0
  outer loop
    vertex 283.79999999999995 139.31679044159043 16.4305981007745
    vertex 283.79999999999995 143.19175362375444 1.5000000000000453
    vertex 283.79999999999995 139.39175362375448 17.000000000000046
  endloop
endfacet
facet normal 1.0 -0.0 -0.0
  outer loop
    vertex 283.79999999999995 109.69175362375444 58.50000000000005
    vertex 283.79999999999995 135.06671680591847 17.569401899225593
    vertex 283.79999999999995 143.19175362375444 58.50000000000005
  endloop
endfacet
facet normal 1.0 -0.0 -0.0
  outer loop
    vertex 283.79999999999995 135.06671680591847 17.569401899225593
    vertex 283.79999999999995 109.69175362375444 58.50000000000005
    vertex 283.79999999999995 134.99175362375445 17.000000000000046
  endloop
endfacet
facet normal 1.0 -0.0 -0.0
  outer loop
    vertex 283.79999999999995 143.19175362375444 58.50000000000005
    vertex 283.79999999999995 135.06671680591847 17.569401899225593
    vertex 283.79999999999995 135.28649773542867 18.100000000000044
  endloop
endfacet
facet normal 1.0 -0.0 -0.0
  outer loop
    vertex 283.79999999999995 143.19175362375444 58.50000000000005
    vertex 283.79999999999995 135.28649773542867 18.100000000000044
    vertex 283.79999999999995 135.63611870514407 18.55563491861045
  endloop
endfacet
facet normal 1.0 -0.0 -0.0
  outer loop
    vertex 283.79999999999995 143.19175362375444 58.50000000000005
    vertex 283.79999999999995 135.63611870514407 18.55563491861045
    vertex 283.79999999999995 136.09175362375447 18.90525588832581
  endloop
endfacet
facet normal 1.0 -0.0 -0.0
  outer loop
    vertex 283.79999999999995 143.19175362375444 58.50000000000005
    vertex 283.79999999999995 136.09175362375447 18.90525588832581
    vertex 283.79999999999995 136.62235172452893 19.125036817835998
  endloop
endfacet
facet normal 1.0 -0.0 -0.0
  outer loop
    vertex 283.79999999999995 143.19175362375444 58.50000000000005
    vertex 283.79999999999995 136.62235172452893 19.125036817835998
    vertex 283.79999999999995 137.1917536237545 19.200000000000045
  endloop
endfacet
facet normal 1.0 -0.0 -0.0
  outer loop
    vertex 283.79999999999995 143.19175362375444 58.50000000000005
    vertex 283.79999999999995 137.1917536237545 19.200000000000045
    vertex 283.79999999999995 137.76115552298003 19.125036817835998
  endloop
endfacet
facet normal 1.0 -0.0 -0.0
  outer loop
    vertex 283.79999999999995 143.19175362375444 58.50000000000005
    vertex 283.79999999999995 137.76115552298003 19.125036817835998
    vertex 283.79999999999995 138.29175362375446 18.90525588832581
  endloop
endfacet
facet normal 1.0 -0.0 -0.0
  outer loop
    vertex 283.79999999999995 143.19175362375444 58.50000000000005
    vertex 283.79999999999995 138.29175362375446 18.90525588832581
    vertex 283.79999999999995 138.7473885423649 18.55563491861045
  endloop
endfacet
facet normal 1.0 -0.0 -0.0
  outer loop
    vertex 283.79999999999995 143.19175362375444 58.50000000000005
    vertex 283.79999999999995 138.7473885423649 18.55563491861045
    vertex 283.79999999999995 139.09700951208023 18.100000000000044
  endloop
endfacet
facet normal 1.0 -0.0 -0.0
  outer loop
    vertex 283.79999999999995 143.19175362375444 58.50000000000005
    vertex 283.79999999999995 139.09700951208023 18.100000000000044
    vertex 283.79999999999995 139.31679044159043 17.56940189922559
  endloop
endfacet
facet normal 1.0 -0.0 -0.0
  outer loop
    vertex 283.79999999999995 143.19175362375444 58.50000000000005
    vertex 283.79999999999995 139.31679044159043 17.56940189922559
    vertex 283.79999999999995 139.39175362375448 17.000000000000046
  endloop
endfacet
facet normal 1.0 -0.0 -0.0
  outer loop
    vertex 283.79999999999995 143.19175362375444 58.50000000000005
    vertex 283.79999999999995 139.39175362375448 17.000000000000046
    vertex 283.79999999999995 143.19175362375444 1.5000000000000453
  endloop
endfacet
facet normal -0.9659258262890643 0.0 0.2588190451025354
  outer loop
    vertex 291.32844423520703 109.69175362375448 49.45648000528475
    vertex 291.1186533479473 104.6917536237544 48.95000000000005
    vertex 291.32844423520703 104.6917536237544 49.45648000528475
  endloop
endfacet
facet normal -0.8660254037844454 0.0 0.49999999999998823
  outer loop
    vertex 291.1186533479473 104.6917536237544 48.95000000000005
    vertex 291.32844423520703 109.69175362375448 49.45648000528475
    vertex 291.1186533479473 109.69175362375448 48.95000000000005
  endloop
endfacet
facet normal 3.497419368029197e-19 0.25881904510250575 0.9659258262890723
  outer loop
    vertex 283.79999999999995 136.62235172452893 14.874963182164095
    vertex 278.79999999999995 137.1917536237545 14.800000000000043
    vertex 278.79999999999995 136.62235172452893 14.874963182164095
  endloop
endfacet
facet normal 6.994838736112002e-19 -5.088243750414382e-15 1.0
  outer loop
    vertex 278.79999999999995 137.1917536237545 14.800000000000043
    vertex 283.79999999999995 136.62235172452893 14.874963182164095
    vertex 283.79999999999995 137.1917536237545 14.800000000000043
  endloop
endfacet
facet normal 1.0 0.0 -1.78222197912937e-17
  outer loop
    vertex 287.2 109.69175362375448 50.00000000000005
    vertex 287.2715557647929 104.6917536237544 50.54351999471534
    vertex 287.2 104.6917536237544 50.00000000000005
  endloop
endfacet
facet normal 0.9659258262890754 0.0 -0.2588190451024941
  outer loop
    vertex 287.2715557647929 104.6917536237544 50.54351999471534
    vertex 287.2 109.69175362375448 50.00000000000005
    vertex 287.2715557647929 109.69175362375448 50.54351999471534
  endloop
endfacet
facet normal 0.8660254037844285 0.0 0.5000000000000175
  outer loop
    vertex 287.4813466520526 109.69175362375448 48.950000000000045
    vertex 287.2715557647929 104.6917536237544 49.45648000528475
    vertex 287.4813466520526 104.6917536237544 48.950000000000045
  endloop
endfacet
facet normal 0.9659258262890754 0.0 0.2588190451024941
  outer loop
    vertex 287.2715557647929 104.6917536237544 49.45648000528475
    vertex 287.4813466520526 109.69175362375448 48.950000000000045
    vertex 287.2715557647929 109.69175362375448 49.45648000528475
  endloop
endfacet
facet normal -0.7071067811865401 0.0 -0.7071067811865549
  outer loop
    vertex 290.78492424049176 109.69175362375448 51.4849242404918
    vertex 290.34999999999997 104.6917536237544 51.81865334794737
    vertex 290.34999999999997 109.69175362375448 51.81865334794737
  endloop
endfacet
facet normal -0.500000000000002 0.0 -0.8660254037844375
  outer loop
    vertex 290.34999999999997 104.6917536237544 51.81865334794737
    vertex 290.78492424049176 109.69175362375448 51.4849242404918
    vertex 290.78492424049176 104.6917536237544 51.4849242404918
  endloop
endfacet
facet normal 1.78222197912938e-17 0.0 1.0
  outer loop
    vertex 289.3 104.6917536237544 47.90000000000005
    vertex 288.7564800052847 109.69175362375448 47.971555764793
    vertex 288.7564800052847 104.6917536237544 47.971555764793
  endloop
endfacet
facet normal 0.2588190451025155 0.0 0.9659258262890696
  outer loop
    vertex 288.7564800052847 109.69175362375448 47.971555764793
    vertex 289.3 104.6917536237544 47.90000000000005
    vertex 289.3 109.69175362375448 47.90000000000005
  endloop
endfacet
facet normal 6.518152035286752e-19 -0.8660254037844444 -0.49999999999999006
  outer loop
    vertex 283.79999999999995 139.09700951208023 18.100000000000044
    vertex 278.79999999999995 139.31679044159043 17.56940189922559
    vertex 283.79999999999995 139.31679044159043 17.56940189922559
  endloop
endfacet
facet normal 6.518152035290089e-19 -0.9659258262890629 -0.2588190451025412
  outer loop
    vertex 278.79999999999995 139.31679044159043 17.56940189922559
    vertex 283.79999999999995 139.09700951208023 18.100000000000044
    vertex 278.79999999999995 139.09700951208023 18.100000000000044
  endloop
endfacet
facet normal -0.2588190451025155 0.0 0.9659258262890696
  outer loop
    vertex 289.84351999471534 104.6917536237544 47.971555764793
    vertex 289.3 109.69175362375448 47.90000000000005
    vertex 289.3 104.6917536237544 47.90000000000005
  endloop
endfacet
facet normal 1.78222197912938e-17 0.0 1.0
  outer loop
    vertex 289.3 109.69175362375448 47.90000000000005
    vertex 289.84351999471534 104.6917536237544 47.971555764793
    vertex 289.84351999471534 109.69175362375448 47.971555764793
  endloop
endfacet
facet normal -0.9659258262890648 0.0 -0.2588190451025335
  outer loop
    vertex 291.32844423520703 109.69175362375448 50.54351999471534
    vertex 291.40000000000003 104.6917536237544 50.00000000000005
    vertex 291.32844423520703 104.6917536237544 50.54351999471534
  endloop
endfacet
facet normal -1.0 0.0 1.782221979129389e-17
  outer loop
    vertex 291.40000000000003 104.6917536237544 50.00000000000005
    vertex 291.32844423520703 109.69175362375448 50.54351999471534
    vertex 291.40000000000003 109.69175362375448 50.00000000000005
  endloop
endfacet
facet normal -0.8660254037844453 0.0 0.4999999999999886
  outer loop
    vertex 291.1186533479473 109.69175362375448 8.950000000000045
    vertex 290.78492424049176 104.6917536237544 8.515075759508296
    vertex 291.1186533479473 104.6917536237544 8.950000000000045
  endloop
endfacet
facet normal -0.7071067811865608 0.0 0.7071067811865344
  outer loop
    vertex 290.78492424049176 104.6917536237544 8.515075759508296
    vertex 291.1186533479473 109.69175362375448 8.950000000000045
    vertex 290.78492424049176 109.69175362375448 8.515075759508296
  endloop
endfacet
facet normal 0.9659258262890749 0.0 -0.25881904510249554
  outer loop
    vertex 287.2715557647929 109.69175362375448 10.54351999471534
    vertex 287.4813466520526 104.6917536237544 11.050000000000045
    vertex 287.2715557647929 104.6917536237544 10.54351999471534
  endloop
endfacet
facet normal 0.8660254037844285 0.0 -0.5000000000000174
  outer loop
    vertex 287.4813466520526 104.6917536237544 11.050000000000045
    vertex 287.2715557647929 109.69175362375448 10.54351999471534
    vertex 287.4813466520526 109.69175362375448 11.050000000000045
  endloop
endfacet
facet normal -0.2588190451025305 0.0 -0.9659258262890658
  outer loop
    vertex 289.84351999471534 109.69175362375448 12.02844423520709
    vertex 289.3 104.6917536237544 12.100000000000046
    vertex 289.3 109.69175362375448 12.100000000000046
  endloop
endfacet
facet normal 1.2564664952862123e-15 0.0 -1.0
  outer loop
    vertex 289.3 104.6917536237544 12.100000000000046
    vertex 289.84351999471534 109.69175362375448 12.02844423520709
    vertex 289.84351999471534 104.6917536237544 12.02844423520709
  endloop
endfacet
facet normal -0.8660254037844454 0.0 0.49999999999998823
  outer loop
    vertex 291.1186533479473 109.69175362375448 48.95000000000005
    vertex 290.78492424049176 104.6917536237544 48.5150757595083
    vertex 291.1186533479473 104.6917536237544 48.95000000000005
  endloop
endfacet
facet normal -0.707106781186563 0.0 0.7071067811865323
  outer loop
    vertex 290.78492424049176 104.6917536237544 48.5150757595083
    vertex 291.1186533479473 109.69175362375448 48.95000000000005
    vertex 290.78492424049176 109.69175362375448 48.5150757595083
  endloop
endfacet
facet normal -0.0 -0.0 1.0
  outer loop
    vertex 280.29999999999995 104.6917536237544 60.00000000000005
    vertex 282.29999999999995 108.19175362375448 60.00000000000005
    vertex 280.29999999999995 144.6917536237544 60.00000000000005
  endloop
endfacet
facet normal -0.0 -0.0 1.0
  outer loop
    vertex 282.29999999999995 108.19175362375448 60.00000000000005
    vertex 280.29999999999995 104.6917536237544 60.00000000000005
    vertex 296.29999999999995 104.6917536237544 60.00000000000005
  endloop
endfacet
facet normal -0.0 -0.0 1.0
  outer loop
    vertex 282.29999999999995 108.19175362375448 60.00000000000005
    vertex 296.29999999999995 104.6917536237544 60.00000000000005
    vertex 296.29999999999995 108.19175362375448 60.00000000000005
  endloop
endfacet
facet normal -0.0 -0.0 1.0
  outer loop
    vertex 282.29999999999995 144.6917536237544 60.00000000000005
    vertex 280.29999999999995 144.6917536237544 60.00000000000005
    vertex 282.29999999999995 108.19175362375448 60.00000000000005
  endloop
endfacet
facet normal 0.5000000000000056 0.0 0.8660254037844354
  outer loop
    vertex 288.24999999999994 104.6917536237544 8.181346652052724
    vertex 287.8150757595082 109.69175362375448 8.515075759508296
    vertex 287.8150757595082 104.6917536237544 8.515075759508296
  endloop
endfacet
facet normal 0.7071067811865372 0.0 0.707106781186558
  outer loop
    vertex 287.8150757595082 109.69175362375448 8.515075759508296
    vertex 288.24999999999994 104.6917536237544 8.181346652052724
    vertex 288.24999999999994 109.69175362375448 8.181346652052724
  endloop
endfacet
facet normal 6.994838736112002e-19 -5.088243750414382e-15 1.0
  outer loop
    vertex 283.79999999999995 137.1917536237545 14.800000000000043
    vertex 278.79999999999995 137.76115552298003 14.874963182164095
    vertex 278.79999999999995 137.1917536237545 14.800000000000043
  endloop
endfacet
facet normal 3.4974193680827996e-19 -0.2588190451025253 0.9659258262890672
  outer loop
    vertex 278.79999999999995 137.76115552298003 14.874963182164095
    vertex 283.79999999999995 137.1917536237545 14.800000000000043
    vertex 283.79999999999995 137.76115552298003 14.874963182164095
  endloop
endfacet
facet normal -1.0 0.0 1.782221979129389e-17
  outer loop
    vertex 291.40000000000003 109.69175362375448 50.00000000000005
    vertex 291.32844423520703 104.6917536237544 49.45648000528475
    vertex 291.40000000000003 104.6917536237544 50.00000000000005
  endloop
endfacet
facet normal -0.9659258262890643 0.0 0.2588190451025354
  outer loop
    vertex 291.32844423520703 104.6917536237544 49.45648000528475
    vertex 291.40000000000003 109.69175362375448 50.00000000000005
    vertex 291.32844423520703 109.69175362375448 49.45648000528475
  endloop
endfacet
facet normal 1.01101516478162e-15 1.0 2.1296412682526549e-16
  outer loop
    vertex 273.79999999999995 144.6917536237544 1.5000000000000453
    vertex 282.29999999999995 144.6917536237544 4.511946372076636e-14
    vertex 275.29999999999995 144.6917536237544 4.511946372076636e-14
  endloop
endfacet
facet normal 1.01101516478162e-15 1.0 2.1296412682526549e-16
  outer loop
    vertex 282.29999999999995 144.6917536237544 4.511946372076636e-14
    vertex 273.79999999999995 144.6917536237544 1.5000000000000453
    vertex 278.79999999999995 144.69175362375447 5.0000000000000435
  endloop
endfacet
facet normal 1.01101516478162e-15 1.0 2.1296412682526549e-16
  outer loop
    vertex 282.29999999999995 144.6917536237544 4.511946372076636e-14
    vertex 278.79999999999995 144.69175362375447 5.0000000000000435
    vertex 282.29999999999995 144.6917536237544 60.00000000000005
  endloop
endfacet
facet normal 1.01101516478162e-15 1.0 2.1296412682526549e-16
  outer loop
    vertex 278.79999999999995 144.69175362375447 5.0000000000000435
    vertex 273.79999999999995 144.6917536237544 1.5000000000000453
    vertex 273.79999999999995 144.69175362375447 5.0000000000000435
  endloop
endfacet
facet normal 1.01101516478162e-15 1.0 2.1296412682526549e-16
  outer loop
    vertex 282.29999999999995 144.6917536237544 60.00000000000005
    vertex 278.79999999999995 144.69175362375447 5.0000000000000435
    vertex 278.79999999999995 144.6917536237544 58.19906365191603
  endloop
endfacet
facet normal 1.01101516478162e-15 1.0 2.1296412682526549e-16
  outer loop
    vertex 282.29999999999995 144.6917536237544 60.00000000000005
    vertex 278.79999999999995 144.6917536237544 58.19906365191603
    vertex 280.29999999999995 144.6917536237544 60.00000000000005
  endloop
endfacet
facet normal 0.0 0.0 -1.0
  outer loop
    vertex 282.29999999999995 144.6917536237544 4.511946372076636e-14
    vertex 275.29999999999995 104.6917536237544 4.511946372076636e-14
    vertex 275.29999999999995 144.6917536237544 4.511946372076636e-14
  endloop
endfacet
facet normal 0.0 0.0 -1.0
  outer loop
    vertex 275.29999999999995 104.6917536237544 4.511946372076636e-14
    vertex 282.29999999999995 144.6917536237544 4.511946372076636e-14
    vertex 282.29999999999995 108.19175362375448 4.511946372076636e-14
  endloop
endfacet
facet normal 0.0 0.0 -1.0
  outer loop
    vertex 275.29999999999995 104.6917536237544 4.511946372076636e-14
    vertex 282.29999999999995 108.19175362375448 4.511946372076636e-14
    vertex 296.29999999999995 104.6917536237544 4.511946372076636e-14
  endloop
endfacet
facet normal 0.0 0.0 -1.0
  outer loop
    vertex 296.29999999999995 104.6917536237544 4.511946372076636e-14
    vertex 282.29999999999995 108.19175362375448 4.511946372076636e-14
    vertex 296.29999999999995 108.19175362375448 4.511946372076636e-14
  endloop
endfacet
facet normal 0.5000000000000018 0.0 -0.8660254037844376
  outer loop
    vertex 288.24999999999994 109.69175362375448 51.81865334794737
    vertex 287.8150757595082 104.6917536237544 51.4849242404918
    vertex 287.8150757595082 109.69175362375448 51.4849242404918
  endloop
endfacet
facet normal 0.7071067811865346 0.0 -0.7071067811865603
  outer loop
    vertex 287.8150757595082 104.6917536237544 51.4849242404918
    vertex 288.24999999999994 109.69175362375448 51.81865334794737
    vertex 288.24999999999994 104.6917536237544 51.81865334794737
  endloop
endfacet
facet normal 0.0 0.0 1.0
  outer loop
    vertex 278.79999999999995 104.6917536237544 5.0000000000000435
    vertex 273.79999999999995 144.69175362375447 5.0000000000000435
    vertex 273.79999999999995 104.6917536237544 5.0000000000000435
  endloop
endfacet
facet normal 0.0 0.0 1.0
  outer loop
    vertex 273.79999999999995 144.69175362375447 5.0000000000000435
    vertex 278.79999999999995 104.6917536237544 5.0000000000000435
    vertex 278.79999999999995 144.69175362375447 5.0000000000000435
  endloop
endfacet
facet normal -1.0 0.0 0.0
  outer loop
    vertex 273.79999999999995 144.69175362375447 5.0000000000000435
    vertex 273.79999999999995 104.6917536237544 1.5000000000000437
    vertex 273.79999999999995 104.6917536237544 5.0000000000000435
  endloop
endfacet
facet normal -1.0 0.0 0.0
  outer loop
    vertex 273.79999999999995 104.6917536237544 1.5000000000000437
    vertex 273.79999999999995 144.69175362375447 5.0000000000000435
    vertex 273.79999999999995 144.6917536237544 1.5000000000000453
  endloop
endfacet
endsolid power2
