solid power3
facet normal 1.0799627899080034e-18 0.8660254037844293 -0.5000000000000161
  outer loop
    vertex 256.29999999999995 82.98649773542871 44.5914488875078
    vertex 261.29999999999995 82.76671680591852 44.060850786733354
    vertex 256.29999999999995 82.76671680591852 44.060850786733354
  endloop
endfacet
facet normal 7.116075939839697e-19 0.9659258262890724 -0.25881904510250514
  outer loop
    vertex 261.29999999999995 82.76671680591852 44.060850786733354
    vertex 256.29999999999995 82.98649773542871 44.5914488875078
    vertex 261.29999999999995 82.98649773542871 44.5914488875078
  endloop
endfacet
facet normal -1.0678390695388423e-18 -3.876332804606399e-15 -1.0
  outer loop
    vertex 261.29999999999995 84.89175362375455 45.69144888750781
    vertex 256.29999999999995 84.32235172452897 45.61648570534376
    vertex 256.29999999999995 84.89175362375455 45.69144888750781
  endloop
endfacet
facet normal -3.4974193680546546e-19 0.258819045102518 -0.9659258262890691
  outer loop
    vertex 256.29999999999995 84.32235172452897 45.61648570534376
    vertex 261.29999999999995 84.89175362375455 45.69144888750781
    vertex 261.29999999999995 84.32235172452897 45.61648570534376
  endloop
endfacet
facet normal -9.374922435144784e-30 0.7071067811865416 0.7071067811865536
  outer loop
    vertex 261.29999999999995 83.3361187051441 41.9358139688974
    vertex 256.29999999999995 83.79175362375449 41.586192999182046
    vertex 256.29999999999995 83.3361187051441 41.9358139688974
  endloop
endfacet
facet normal -6.249948290096517e-30 0.49999999999999734 0.8660254037844402
  outer loop
    vertex 256.29999999999995 83.79175362375449 41.586192999182046
    vertex 261.29999999999995 83.3361187051441 41.9358139688974
    vertex 261.29999999999995 83.79175362375449 41.586192999182046
  endloop
endfacet
facet normal -0.7071067811865422 1.2896731139800334e-18 0.7071067811865528
  outer loop
    vertex 257.79999999999995 55.891753623754475 60.00000000000005
    vertex 256.29999999999995 90.8917536237545 58.50000000000005
    vertex 256.29999999999995 57.391753623754454 58.50000000000005
  endloop
endfacet
facet normal -0.7071067811865422 1.2896731139800334e-18 0.7071067811865528
  outer loop
    vertex 256.29999999999995 90.8917536237545 58.50000000000005
    vertex 257.79999999999995 55.891753623754475 60.00000000000005
    vertex 257.79999999999995 92.39175362375445 60.00000000000005
  endloop
endfacet
facet normal 1.4483179858384972e-18 -0.9659258262890624 0.25881904510254283
  outer loop
    vertex 261.29999999999995 87.01679044159047 42.92204698828226
    vertex 256.29999999999995 86.79700951208028 42.391448887507806
    vertex 261.29999999999995 86.79700951208028 42.391448887507806
  endloop
endfacet
facet normal 1.0799627899142444e-18 -0.8660254037844605 0.49999999999996214
  outer loop
    vertex 256.29999999999995 86.79700951208028 42.391448887507806
    vertex 261.29999999999995 87.01679044159047 42.92204698828226
    vertex 256.29999999999995 87.01679044159047 42.92204698828226
  endloop
endfacet
facet normal -0.7071067811865343 0.7071067811865609 -0.0
  outer loop
    vertex 256.29999999999995 90.8917536237545 1.5000000000000453
    vertex 257.79999999999995 92.39175362375445 60.00000000000005
    vertex 257.79999999999995 92.39175362375445 4.511946372076636e-14
  endloop
endfacet
facet normal -0.7071067811865343 0.7071067811865609 -0.0
  outer loop
    vertex 257.79999999999995 92.39175362375445 60.00000000000005
    vertex 256.29999999999995 90.8917536237545 1.5000000000000453
    vertex 256.29999999999995 90.8917536237545 58.50000000000005
  endloop
endfacet
facet normal -3.4974193680546546e-19 0.258819045102518 -0.9659258262890691
  outer loop
    vertex 261.29999999999995 84.32235172452897 45.61648570534376
    vertex 256.29999999999995 83.79175362375453 45.39670477583358
    vertex 256.29999999999995 84.32235172452897 45.61648570534376
  endloop
endfacet
facet normal 8.589863522552547e-19 0.49999999999999306 -0.8660254037844425
  outer loop
    vertex 256.29999999999995 83.79175362375453 45.39670477583358
    vertex 261.29999999999995 84.32235172452897 45.61648570534376
    vertex 261.29999999999995 83.79175362375453 45.39670477583358
  endloop
endfacet
facet normal -3.68355195928048e-19 -0.9659258262890627 -0.25881904510254156
  outer loop
    vertex 261.29999999999995 87.01679044159047 44.06085078673335
    vertex 256.29999999999995 87.09175362375454 43.49144888750781
    vertex 261.29999999999995 87.09175362375454 43.49144888750781
  endloop
endfacet
facet normal -6.736732166076177e-31 -1.0 -6.594221322778749e-16
  outer loop
    vertex 256.29999999999995 87.09175362375454 43.49144888750781
    vertex 261.29999999999995 87.01679044159047 44.06085078673335
    vertex 256.29999999999995 87.01679044159047 44.06085078673335
  endloop
endfacet
facet normal -6.736732166076177e-31 -1.0 -6.594221322778749e-16
  outer loop
    vertex 261.29999999999995 87.09175362375454 43.49144888750781
    vertex 256.29999999999995 87.01679044159047 42.92204698828226
    vertex 261.29999999999995 87.01679044159047 42.92204698828226
  endloop
endfacet
facet normal 1.4483179858384972e-18 -0.9659258262890624 0.25881904510254283
  outer loop
    vertex 256.29999999999995 87.01679044159047 42.92204698828226
    vertex 261.29999999999995 87.09175362375454 43.49144888750781
    vertex 256.29999999999995 87.09175362375454 43.49144888750781
  endloop
endfacet
facet normal -7.116075939891085e-19 -0.25881904510253007 0.9659258262890659
  outer loop
    vertex 261.29999999999995 85.46115552298009 41.36641206967186
    vertex 256.29999999999995 85.99175362375452 41.586192999182046
    vertex 256.29999999999995 85.46115552298009 41.36641206967186
  endloop
endfacet
facet normal -1.0799627899170433e-18 -0.4999999999999775 0.8660254037844517
  outer loop
    vertex 256.29999999999995 85.99175362375452 41.586192999182046
    vertex 261.29999999999995 85.46115552298009 41.36641206967186
    vertex 261.29999999999995 85.99175362375452 41.586192999182046
  endloop
endfacet
facet normal 3.618656571836709e-19 -0.2588190451025253 -0.9659258262890671
  outer loop
    vertex 261.29999999999995 85.46115552298009 45.61648570534376
    vertex 256.29999999999995 84.89175362375455 45.69144888750781
    vertex 256.29999999999995 85.46115552298009 45.61648570534376
  endloop
endfacet
facet normal -1.0678390695388423e-18 -3.876332804606399e-15 -1.0
  outer loop
    vertex 256.29999999999995 84.89175362375455 45.69144888750781
    vertex 261.29999999999995 85.46115552298009 45.61648570534376
    vertex 261.29999999999995 84.89175362375455 45.69144888750781
  endloop
endfacet
facet normal -1.0233803470672307e-15 1.0 2.106273593299083e-16
  outer loop
    vertex 257.79999999999995 92.39175362375445 4.511946372076636e-14
    vertex 261.29999999999995 92.3917536237545 5.0000000000000435
    vertex 264.79999999999995 92.39175362375445 4.511946372076636e-14
  endloop
endfacet
facet normal -1.0233803470672307e-15 1.0 2.106273593299083e-16
  outer loop
    vertex 261.29999999999995 92.3917536237545 5.0000000000000435
    vertex 257.79999999999995 92.39175362375445 4.511946372076636e-14
    vertex 257.79999999999995 92.39175362375445 60.00000000000005
  endloop
endfacet
facet normal -1.0233803470672307e-15 1.0 2.106273593299083e-16
  outer loop
    vertex 264.79999999999995 92.39175362375445 4.511946372076636e-14
    vertex 261.29999999999995 92.3917536237545 5.0000000000000435
    vertex 266.29999999999995 92.39175362375445 1.5000000000000453
  endloop
endfacet
facet normal -1.0233803470672307e-15 1.0 2.106273593299083e-16
  outer loop
    vertex 261.29999999999995 92.3917536237545 5.0000000000000435
    vertex 257.79999999999995 92.39175362375445 60.00000000000005
    vertex 261.29999999999995 92.39175362375445 58.19906365191603
  endloop
endfacet
facet normal -1.0233803470672307e-15 1.0 2.106273593299083e-16
  outer loop
    vertex 261.29999999999995 92.39175362375445 58.19906365191603
    vertex 257.79999999999995 92.39175362375445 60.00000000000005
    vertex 259.79999999999995 92.39175362375445 60.00000000000005
  endloop
endfacet
facet normal -1.0233803470672307e-15 1.0 2.106273593299083e-16
  outer loop
    vertex 266.29999999999995 92.3917536237545 5.0000000000000435
    vertex 266.29999999999995 92.39175362375445 1.5000000000000453
    vertex 261.29999999999995 92.3917536237545 5.0000000000000435
  endloop
endfacet
facet normal -0.7071067811865429 1.289673113980041e-18 -0.7071067811865522
  outer loop
    vertex 257.79999999999995 92.39175362375445 4.511946372076636e-14
    vertex 256.29999999999995 57.391753623754454 1.5000000000000453
    vertex 256.29999999999995 90.8917536237545 1.5000000000000453
  endloop
endfacet
facet normal -0.7071067811865429 1.289673113980041e-18 -0.7071067811865522
  outer loop
    vertex 256.29999999999995 57.391753623754454 1.5000000000000453
    vertex 257.79999999999995 92.39175362375445 4.511946372076636e-14
    vertex 257.79999999999995 55.891753623754475 4.511946372076636e-14
  endloop
endfacet
facet normal 6.2499482900957245e-30 -0.7071067811865595 -0.7071067811865356
  outer loop
    vertex 261.29999999999995 86.44738854236498 45.04708380611821
    vertex 256.29999999999995 86.79700951208028 44.5914488875078
    vertex 261.29999999999995 86.79700951208028 44.5914488875078
  endloop
endfacet
facet normal 6.2499482900956376e-30 -0.86602540378446 -0.4999999999999632
  outer loop
    vertex 256.29999999999995 86.79700951208028 44.5914488875078
    vertex 261.29999999999995 86.44738854236498 45.04708380611821
    vertex 256.29999999999995 86.44738854236498 45.04708380611821
  endloop
endfacet
facet normal 8.589863522552547e-19 0.49999999999999306 -0.8660254037844425
  outer loop
    vertex 261.29999999999995 83.79175362375453 45.39670477583358
    vertex 256.29999999999995 83.3361187051441 45.047083806118216
    vertex 256.29999999999995 83.79175362375453 45.39670477583358
  endloop
endfacet
facet normal 8.589863522521306e-19 0.7071067811865275 -0.7071067811865678
  outer loop
    vertex 256.29999999999995 83.3361187051441 45.047083806118216
    vertex 261.29999999999995 83.79175362375453 45.39670477583358
    vertex 261.29999999999995 83.3361187051441 45.047083806118216
  endloop
endfacet
facet normal 8.861109154493314e-16 -1.0 -3.313348396782006e-16
  outer loop
    vertex 261.29999999999995 52.39175362375447 5.000000000000043
    vertex 251.34351999471528 52.391753623754404 7.9715557647930035
    vertex 250.79999999999998 52.391753623754404 7.900000000000045
  endloop
endfacet
facet normal 8.861109154493314e-16 -1.0 -3.313348396782006e-16
  outer loop
    vertex 251.34351999471528 52.391753623754404 7.9715557647930035
    vertex 261.29999999999995 52.39175362375447 5.000000000000043
    vertex 251.84999999999997 52.391753623754404 8.181346652052726
  endloop
endfacet
facet normal 8.861109154493314e-16 -1.0 -3.313348396782006e-16
  outer loop
    vertex 251.84999999999997 52.391753623754404 8.181346652052726
    vertex 261.29999999999995 52.39175362375447 5.000000000000043
    vertex 252.2849242404917 52.391753623754404 8.515075759508296
  endloop
endfacet
facet normal 8.861109154493314e-16 -1.0 -3.313348396782006e-16
  outer loop
    vertex 252.2849242404917 52.391753623754404 8.515075759508296
    vertex 261.29999999999995 52.39175362375447 5.000000000000043
    vertex 252.61865334794732 52.391753623754404 8.950000000000045
  endloop
endfacet
facet normal 8.861109154493314e-16 -1.0 -3.313348396782006e-16
  outer loop
    vertex 252.61865334794732 52.391753623754404 8.950000000000045
    vertex 261.29999999999995 52.39175362375447 5.000000000000043
    vertex 252.82844423520703 52.391753623754404 9.456480005284751
  endloop
endfacet
facet normal 8.861109154493314e-16 -1.0 -3.313348396782006e-16
  outer loop
    vertex 252.82844423520703 52.391753623754404 9.456480005284751
    vertex 261.29999999999995 52.39175362375447 5.000000000000043
    vertex 261.29999999999995 52.391753623754404 58.19906365191603
  endloop
endfacet
facet normal 8.861109154493314e-16 -1.0 -3.313348396782006e-16
  outer loop
    vertex 252.82844423520703 52.391753623754404 9.456480005284751
    vertex 261.29999999999995 52.391753623754404 58.19906365191603
    vertex 252.89999999999998 52.391753623754404 10.000000000000046
  endloop
endfacet
facet normal 8.861109154493314e-16 -1.0 -3.313348396782006e-16
  outer loop
    vertex 252.89999999999998 52.391753623754404 10.000000000000046
    vertex 261.29999999999995 52.391753623754404 58.19906365191603
    vertex 252.82844423520703 52.391753623754404 10.54351999471534
  endloop
endfacet
facet normal 8.861109154493314e-16 -1.0 -3.313348396782006e-16
  outer loop
    vertex 252.82844423520703 52.391753623754404 10.54351999471534
    vertex 261.29999999999995 52.391753623754404 58.19906365191603
    vertex 252.61865334794732 52.391753623754404 11.050000000000045
  endloop
endfacet
facet normal 8.861109154493314e-16 -1.0 -3.313348396782006e-16
  outer loop
    vertex 252.61865334794732 52.391753623754404 11.050000000000045
    vertex 261.29999999999995 52.391753623754404 58.19906365191603
    vertex 252.2849242404917 52.391753623754404 11.484924240491793
  endloop
endfacet
facet normal 8.861109154493314e-16 -1.0 -3.313348396782006e-16
  outer loop
    vertex 252.2849242404917 52.391753623754404 11.484924240491793
    vertex 261.29999999999995 52.391753623754404 58.19906365191603
    vertex 251.84999999999997 52.391753623754404 11.818653347947368
  endloop
endfacet
facet normal 8.861109154493314e-16 -1.0 -3.313348396782006e-16
  outer loop
    vertex 251.84999999999997 52.391753623754404 11.818653347947368
    vertex 261.29999999999995 52.391753623754404 58.19906365191603
    vertex 251.34351999471528 52.391753623754404 12.02844423520709
  endloop
endfacet
facet normal 8.861109154493314e-16 -1.0 -3.313348396782006e-16
  outer loop
    vertex 251.34351999471528 52.391753623754404 12.02844423520709
    vertex 261.29999999999995 52.391753623754404 58.19906365191603
    vertex 250.79999999999998 52.391753623754404 12.100000000000046
  endloop
endfacet
facet normal 8.861109154493314e-16 -1.0 -3.313348396782006e-16
  outer loop
    vertex 250.79999999999998 52.391753623754404 12.100000000000046
    vertex 261.29999999999995 52.391753623754404 58.19906365191603
    vertex 252.2849242404917 52.391753623754404 48.5150757595083
  endloop
endfacet
facet normal 8.861109154493314e-16 -1.0 -3.313348396782006e-16
  outer loop
    vertex 250.79999999999998 52.391753623754404 12.100000000000046
    vertex 252.2849242404917 52.391753623754404 48.5150757595083
    vertex 251.84999999999997 52.391753623754404 48.181346652052724
  endloop
endfacet
facet normal 8.861109154493314e-16 -1.0 -3.313348396782006e-16
  outer loop
    vertex 250.79999999999998 52.391753623754404 12.100000000000046
    vertex 251.84999999999997 52.391753623754404 48.181346652052724
    vertex 251.34351999471528 52.391753623754404 47.971555764793
  endloop
endfacet
facet normal 8.861109154493314e-16 -1.0 -3.313348396782006e-16
  outer loop
    vertex 250.79999999999998 52.391753623754404 12.100000000000046
    vertex 251.34351999471528 52.391753623754404 47.971555764793
    vertex 250.79999999999998 52.391753623754404 47.90000000000005
  endloop
endfacet
facet normal 8.861109154493314e-16 -1.0 -3.313348396782006e-16
  outer loop
    vertex 252.2849242404917 52.391753623754404 48.5150757595083
    vertex 261.29999999999995 52.391753623754404 58.19906365191603
    vertex 252.61865334794732 52.391753623754404 48.950000000000045
  endloop
endfacet
facet normal 8.861109154493314e-16 -1.0 -3.313348396782006e-16
  outer loop
    vertex 252.61865334794732 52.391753623754404 48.950000000000045
    vertex 261.29999999999995 52.391753623754404 58.19906365191603
    vertex 252.82844423520703 52.391753623754404 49.45648000528475
  endloop
endfacet
facet normal 8.861109154493314e-16 -1.0 -3.313348396782006e-16
  outer loop
    vertex 252.82844423520703 52.391753623754404 49.45648000528475
    vertex 261.29999999999995 52.391753623754404 58.19906365191603
    vertex 252.89999999999998 52.391753623754404 50.00000000000005
  endloop
endfacet
facet normal 8.861109154493314e-16 -1.0 -3.313348396782006e-16
  outer loop
    vertex 252.89999999999998 52.391753623754404 50.00000000000005
    vertex 261.29999999999995 52.391753623754404 58.19906365191603
    vertex 252.82844423520703 52.391753623754404 50.54351999471534
  endloop
endfacet
facet normal 8.861109154493314e-16 -1.0 -3.313348396782006e-16
  outer loop
    vertex 252.82844423520703 52.391753623754404 50.54351999471534
    vertex 261.29999999999995 52.391753623754404 58.19906365191603
    vertex 252.61865334794732 52.391753623754404 51.050000000000054
  endloop
endfacet
facet normal 8.861109154493314e-16 -1.0 -3.313348396782006e-16
  outer loop
    vertex 252.61865334794732 52.391753623754404 51.050000000000054
    vertex 261.29999999999995 52.391753623754404 58.19906365191603
    vertex 252.2849242404917 52.391753623754404 51.4849242404918
  endloop
endfacet
facet normal 8.861109154493314e-16 -1.0 -3.313348396782006e-16
  outer loop
    vertex 252.2849242404917 52.391753623754404 51.4849242404918
    vertex 261.29999999999995 52.391753623754404 58.19906365191603
    vertex 251.84999999999997 52.391753623754404 51.81865334794737
  endloop
endfacet
facet normal 8.861109154493314e-16 -1.0 -3.313348396782006e-16
  outer loop
    vertex 251.84999999999997 52.391753623754404 51.81865334794737
    vertex 261.29999999999995 52.391753623754404 58.19906365191603
    vertex 251.34351999471528 52.391753623754404 52.02844423520709
  endloop
endfacet
facet normal 8.861109154493314e-16 -1.0 -3.313348396782006e-16
  outer loop
    vertex 251.34351999471528 52.391753623754404 52.02844423520709
    vertex 261.29999999999995 52.391753623754404 58.19906365191603
    vertex 250.79999999999998 52.391753623754404 52.10000000000005
  endloop
endfacet
facet normal 8.861109154493314e-16 -1.0 -3.313348396782006e-16
  outer loop
    vertex 266.29999999999995 52.391753623754404 1.5000000000000437
    vertex 243.79999999999995 52.391753623754404 4.511946372076636e-14
    vertex 264.79999999999995 52.391753623754404 4.511946372076636e-14
  endloop
endfacet
facet normal 8.861109154493314e-16 -1.0 -3.313348396782006e-16
  outer loop
    vertex 243.79999999999995 52.391753623754404 4.511946372076636e-14
    vertex 266.29999999999995 52.391753623754404 1.5000000000000437
    vertex 250.25648000528466 52.391753623754404 7.9715557647930035
  endloop
endfacet
facet normal 8.861109154493314e-16 -1.0 -3.313348396782006e-16
  outer loop
    vertex 243.79999999999995 52.391753623754404 4.511946372076636e-14
    vertex 250.25648000528466 52.391753623754404 7.9715557647930035
    vertex 249.74999999999997 52.391753623754404 8.181346652052726
  endloop
endfacet
facet normal 8.861109154493314e-16 -1.0 -3.313348396782006e-16
  outer loop
    vertex 243.79999999999995 52.391753623754404 4.511946372076636e-14
    vertex 249.74999999999997 52.391753623754404 8.181346652052726
    vertex 249.31507575950823 52.391753623754404 8.515075759508296
  endloop
endfacet
facet normal 8.861109154493314e-16 -1.0 -3.313348396782006e-16
  outer loop
    vertex 243.79999999999995 52.391753623754404 4.511946372076636e-14
    vertex 249.31507575950823 52.391753623754404 8.515075759508296
    vertex 248.98134665205262 52.391753623754404 8.950000000000045
  endloop
endfacet
facet normal 8.861109154493314e-16 -1.0 -3.313348396782006e-16
  outer loop
    vertex 243.79999999999995 52.391753623754404 4.511946372076636e-14
    vertex 248.98134665205262 52.391753623754404 8.950000000000045
    vertex 248.7715557647929 52.391753623754404 9.456480005284753
  endloop
endfacet
facet normal 8.861109154493314e-16 -1.0 -3.313348396782006e-16
  outer loop
    vertex 243.79999999999995 52.391753623754404 4.511946372076636e-14
    vertex 248.7715557647929 52.391753623754404 9.456480005284753
    vertex 248.69999999999996 52.391753623754404 10.000000000000046
  endloop
endfacet
facet normal 8.861109154493314e-16 -1.0 -3.313348396782006e-16
  outer loop
    vertex 243.79999999999995 52.391753623754404 4.511946372076636e-14
    vertex 248.69999999999996 52.391753623754404 10.000000000000046
    vertex 243.79999999999995 52.391753623754404 60.00000000000005
  endloop
endfacet
facet normal 8.861109154493314e-16 -1.0 -3.313348396782006e-16
  outer loop
    vertex 250.25648000528466 52.391753623754404 7.9715557647930035
    vertex 266.29999999999995 52.391753623754404 1.5000000000000437
    vertex 261.29999999999995 52.39175362375447 5.000000000000043
  endloop
endfacet
facet normal 8.861109154493314e-16 -1.0 -3.313348396782006e-16
  outer loop
    vertex 261.29999999999995 52.39175362375447 5.000000000000043
    vertex 266.29999999999995 52.391753623754404 1.5000000000000437
    vertex 266.29999999999995 52.39175362375447 5.000000000000043
  endloop
endfacet
facet normal 8.861109154493314e-16 -1.0 -3.313348396782006e-16
  outer loop
    vertex 250.25648000528466 52.391753623754404 7.9715557647930035
    vertex 261.29999999999995 52.39175362375447 5.000000000000043
    vertex 250.79999999999998 52.391753623754404 7.900000000000045
  endloop
endfacet
facet normal 8.861109154493314e-16 -1.0 -3.313348396782006e-16
  outer loop
    vertex 243.79999999999995 52.391753623754404 60.00000000000005
    vertex 248.69999999999996 52.391753623754404 10.000000000000046
    vertex 248.7715557647929 52.391753623754404 10.54351999471534
  endloop
endfacet
facet normal 8.861109154493314e-16 -1.0 -3.313348396782006e-16
  outer loop
    vertex 243.79999999999995 52.391753623754404 60.00000000000005
    vertex 248.7715557647929 52.391753623754404 10.54351999471534
    vertex 248.98134665205262 52.391753623754404 11.050000000000047
  endloop
endfacet
facet normal 8.861109154493314e-16 -1.0 -3.313348396782006e-16
  outer loop
    vertex 243.79999999999995 52.391753623754404 60.00000000000005
    vertex 248.98134665205262 52.391753623754404 11.050000000000047
    vertex 249.31507575950823 52.391753623754404 11.484924240491797
  endloop
endfacet
facet normal 8.861109154493314e-16 -1.0 -3.313348396782006e-16
  outer loop
    vertex 243.79999999999995 52.391753623754404 60.00000000000005
    vertex 249.31507575950823 52.391753623754404 11.484924240491797
    vertex 249.75 52.391753623754404 11.818653347947368
  endloop
endfacet
facet normal 8.861109154493314e-16 -1.0 -3.313348396782006e-16
  outer loop
    vertex 243.79999999999995 52.391753623754404 60.00000000000005
    vertex 249.75 52.391753623754404 11.818653347947368
    vertex 250.25648000528466 52.391753623754404 12.02844423520709
  endloop
endfacet
facet normal 8.861109154493314e-16 -1.0 -3.313348396782006e-16
  outer loop
    vertex 243.79999999999995 52.391753623754404 60.00000000000005
    vertex 250.25648000528466 52.391753623754404 12.02844423520709
    vertex 250.79999999999998 52.391753623754404 12.100000000000046
  endloop
endfacet
facet normal 8.861109154493314e-16 -1.0 -3.313348396782006e-16
  outer loop
    vertex 243.79999999999995 52.391753623754404 60.00000000000005
    vertex 250.79999999999998 52.391753623754404 12.100000000000046
    vertex 248.98134665205262 52.391753623754404 48.95000000000005
  endloop
endfacet
facet normal 8.861109154493314e-16 -1.0 -3.313348396782006e-16
  outer loop
    vertex 248.98134665205262 52.391753623754404 48.95000000000005
    vertex 250.79999999999998 52.391753623754404 12.100000000000046
    vertex 249.31507575950823 52.391753623754404 48.5150757595083
  endloop
endfacet
facet normal 8.861109154493314e-16 -1.0 -3.313348396782006e-16
  outer loop
    vertex 249.31507575950823 52.391753623754404 48.5150757595083
    vertex 250.79999999999998 52.391753623754404 12.100000000000046
    vertex 249.74999999999997 52.391753623754404 48.181346652052724
  endloop
endfacet
facet normal 8.861109154493314e-16 -1.0 -3.313348396782006e-16
  outer loop
    vertex 249.74999999999997 52.391753623754404 48.181346652052724
    vertex 250.79999999999998 52.391753623754404 12.100000000000046
    vertex 250.25648000528466 52.391753623754404 47.971555764793
  endloop
endfacet
facet normal 8.861109154493314e-16 -1.0 -3.313348396782006e-16
  outer loop
    vertex 250.25648000528466 52.391753623754404 47.971555764793
    vertex 250.79999999999998 52.391753623754404 12.100000000000046
    vertex 250.79999999999998 52.391753623754404 47.90000000000005
  endloop
endfacet
facet normal 8.861109154493314e-16 -1.0 -3.313348396782006e-16
  outer loop
    vertex 243.79999999999995 52.391753623754404 60.00000000000005
    vertex 248.98134665205262 52.391753623754404 48.95000000000005
    vertex 248.7715557647929 52.391753623754404 49.45648000528475
  endloop
endfacet
facet normal 8.861109154493314e-16 -1.0 -3.313348396782006e-16
  outer loop
    vertex 243.79999999999995 52.391753623754404 60.00000000000005
    vertex 248.7715557647929 52.391753623754404 49.45648000528475
    vertex 248.69999999999996 52.391753623754404 50.00000000000005
  endloop
endfacet
facet normal 8.861109154493314e-16 -1.0 -3.313348396782006e-16
  outer loop
    vertex 243.79999999999995 52.391753623754404 60.00000000000005
    vertex 248.69999999999996 52.391753623754404 50.00000000000005
    vertex 248.7715557647929 52.391753623754404 50.54351999471534
  endloop
endfacet
facet normal 8.861109154493314e-16 -1.0 -3.313348396782006e-16
  outer loop
    vertex 243.79999999999995 52.391753623754404 60.00000000000005
    vertex 248.7715557647929 52.391753623754404 50.54351999471534
    vertex 248.98134665205262 52.391753623754404 51.050000000000054
  endloop
endfacet
facet normal 8.861109154493314e-16 -1.0 -3.313348396782006e-16
  outer loop
    vertex 243.79999999999995 52.391753623754404 60.00000000000005
    vertex 248.98134665205262 52.391753623754404 51.050000000000054
    vertex 249.31507575950823 52.391753623754404 51.4849242404918
  endloop
endfacet
facet normal 8.861109154493314e-16 -1.0 -3.313348396782006e-16
  outer loop
    vertex 243.79999999999995 52.391753623754404 60.00000000000005
    vertex 249.31507575950823 52.391753623754404 51.4849242404918
    vertex 249.75 52.391753623754404 51.81865334794737
  endloop
endfacet
facet normal 8.861109154493314e-16 -1.0 -3.313348396782006e-16
  outer loop
    vertex 243.79999999999995 52.391753623754404 60.00000000000005
    vertex 249.75 52.391753623754404 51.81865334794737
    vertex 250.25648000528466 52.391753623754404 52.0284442352071
  endloop
endfacet
facet normal 8.861109154493314e-16 -1.0 -3.313348396782006e-16
  outer loop
    vertex 243.79999999999995 52.391753623754404 60.00000000000005
    vertex 250.25648000528466 52.391753623754404 52.0284442352071
    vertex 250.79999999999998 52.391753623754404 52.10000000000005
  endloop
endfacet
facet normal 8.861109154493314e-16 -1.0 -3.313348396782006e-16
  outer loop
    vertex 243.79999999999995 52.391753623754404 60.00000000000005
    vertex 250.79999999999998 52.391753623754404 52.10000000000005
    vertex 261.29999999999995 52.391753623754404 58.19906365191603
  endloop
endfacet
facet normal 8.861109154493314e-16 -1.0 -3.313348396782006e-16
  outer loop
    vertex 243.79999999999995 52.391753623754404 60.00000000000005
    vertex 261.29999999999995 52.391753623754404 58.19906365191603
    vertex 259.79999999999995 52.391753623754404 60.00000000000005
  endloop
endfacet
facet normal -0.7071067811865582 0.7071067811865369 0.0
  outer loop
    vertex 245.29999999999993 57.3917536237545 58.50000000000005
    vertex 243.79999999999995 55.891753623754475 4.511946372076636e-14
    vertex 243.79999999999995 55.891753623754475 60.00000000000005
  endloop
endfacet
facet normal -0.7071067811865582 0.7071067811865369 0.0
  outer loop
    vertex 243.79999999999995 55.891753623754475 4.511946372076636e-14
    vertex 245.29999999999993 57.3917536237545 58.50000000000005
    vertex 245.29999999999993 57.3917536237545 1.5000000000000453
  endloop
endfacet
facet normal 3.683551959279405e-19 -3.885243914502051e-15 1.0
  outer loop
    vertex 261.29999999999995 84.89175362375455 41.291448887507805
    vertex 256.29999999999995 85.46115552298009 41.36641206967186
    vertex 256.29999999999995 84.89175362375455 41.291448887507805
  endloop
endfacet
facet normal -7.116075939891085e-19 -0.25881904510253007 0.9659258262890659
  outer loop
    vertex 256.29999999999995 85.46115552298009 41.36641206967186
    vertex 261.29999999999995 84.89175362375455 41.291448887507805
    vertex 261.29999999999995 85.46115552298009 41.36641206967186
  endloop
endfacet
facet normal -1.4483179858382865e-18 0.9659258262890724 0.25881904510250514
  outer loop
    vertex 256.29999999999995 82.76671680591852 42.92204698828226
    vertex 261.29999999999995 82.98649773542871 42.391448887507806
    vertex 256.29999999999995 82.98649773542871 42.391448887507806
  endloop
endfacet
facet normal -1.0799627899142532e-18 0.8660254037844293 0.5000000000000161
  outer loop
    vertex 261.29999999999995 82.98649773542871 42.391448887507806
    vertex 256.29999999999995 82.76671680591852 42.92204698828226
    vertex 261.29999999999995 82.76671680591852 42.92204698828226
  endloop
endfacet
facet normal -1.0799627899142532e-18 0.8660254037844293 0.5000000000000161
  outer loop
    vertex 256.29999999999995 82.98649773542871 42.391448887507806
    vertex 261.29999999999995 83.3361187051441 41.9358139688974
    vertex 256.29999999999995 83.3361187051441 41.9358139688974
  endloop
endfacet
facet normal -9.374922435144784e-30 0.7071067811865416 0.7071067811865536
  outer loop
    vertex 261.29999999999995 83.3361187051441 41.9358139688974
    vertex 256.29999999999995 82.98649773542871 42.391448887507806
    vertex 261.29999999999995 82.98649773542871 42.391448887507806
  endloop
endfacet
facet normal 6.2499482900956376e-30 -0.86602540378446 -0.4999999999999632
  outer loop
    vertex 261.29999999999995 86.79700951208028 44.5914488875078
    vertex 256.29999999999995 87.01679044159047 44.06085078673335
    vertex 261.29999999999995 87.01679044159047 44.06085078673335
  endloop
endfacet
facet normal -3.68355195928048e-19 -0.9659258262890627 -0.25881904510254156
  outer loop
    vertex 256.29999999999995 87.01679044159047 44.06085078673335
    vertex 261.29999999999995 86.79700951208028 44.5914488875078
    vertex 256.29999999999995 86.79700951208028 44.5914488875078
  endloop
endfacet
facet normal -1.0799627899170433e-18 -0.4999999999999775 0.8660254037844517
  outer loop
    vertex 261.29999999999995 85.99175362375452 41.586192999182046
    vertex 256.29999999999995 86.44738854236498 41.9358139688974
    vertex 256.29999999999995 85.99175362375452 41.586192999182046
  endloop
endfacet
facet normal 3.1249741450478416e-30 -0.707106781186556 0.7071067811865389
  outer loop
    vertex 256.29999999999995 86.44738854236498 41.9358139688974
    vertex 261.29999999999995 85.99175362375452 41.586192999182046
    vertex 261.29999999999995 86.44738854236498 41.9358139688974
  endloop
endfacet
facet normal -7.367103918543121e-19 1.0 0.0
  outer loop
    vertex 256.29999999999995 82.6917536237545 43.49144888750781
    vertex 261.29999999999995 82.76671680591852 42.92204698828226
    vertex 256.29999999999995 82.76671680591852 42.92204698828226
  endloop
endfacet
facet normal -1.4483179858382865e-18 0.9659258262890724 0.25881904510250514
  outer loop
    vertex 261.29999999999995 82.76671680591852 42.92204698828226
    vertex 256.29999999999995 82.6917536237545 43.49144888750781
    vertex 261.29999999999995 82.6917536237545 43.49144888750781
  endloop
endfacet
facet normal 0.0 0.25881904510250814 0.9659258262890716
  outer loop
    vertex 261.29999999999995 84.32235172452897 41.36641206967186
    vertex 256.29999999999995 84.89175362375455 41.291448887507805
    vertex 256.29999999999995 84.32235172452897 41.36641206967186
  endloop
endfacet
facet normal 3.683551959279405e-19 -3.885243914502051e-15 1.0
  outer loop
    vertex 256.29999999999995 84.89175362375455 41.291448887507805
    vertex 261.29999999999995 84.32235172452897 41.36641206967186
    vertex 261.29999999999995 84.89175362375455 41.291448887507805
  endloop
endfacet
facet normal 8.589863522521306e-19 0.7071067811865275 -0.7071067811865678
  outer loop
    vertex 256.29999999999995 83.3361187051441 45.047083806118216
    vertex 261.29999999999995 82.98649773542871 44.5914488875078
    vertex 256.29999999999995 82.98649773542871 44.5914488875078
  endloop
endfacet
facet normal 1.0799627899080034e-18 0.8660254037844293 -0.5000000000000161
  outer loop
    vertex 261.29999999999995 82.98649773542871 44.5914488875078
    vertex 256.29999999999995 83.3361187051441 45.047083806118216
    vertex 261.29999999999995 83.3361187051441 45.047083806118216
  endloop
endfacet
facet normal 6.2499482900957245e-30 -0.7071067811865595 -0.7071067811865356
  outer loop
    vertex 261.29999999999995 86.44738854236498 45.04708380611821
    vertex 256.29999999999995 85.99175362375452 45.39670477583358
    vertex 256.29999999999995 86.44738854236498 45.04708380611821
  endloop
endfacet
facet normal 1.0799627899170443e-18 -0.49999999999998423 -0.8660254037844477
  outer loop
    vertex 256.29999999999995 85.99175362375452 45.39670477583358
    vertex 261.29999999999995 86.44738854236498 45.04708380611821
    vertex 261.29999999999995 85.99175362375452 45.39670477583358
  endloop
endfacet
facet normal -1.0 0.0 0.0
  outer loop
    vertex 243.79999999999995 55.891753623754475 60.00000000000005
    vertex 243.79999999999995 52.391753623754404 4.511946372076636e-14
    vertex 243.79999999999995 52.391753623754404 60.00000000000005
  endloop
endfacet
facet normal -1.0 0.0 0.0
  outer loop
    vertex 243.79999999999995 52.391753623754404 4.511946372076636e-14
    vertex 243.79999999999995 55.891753623754475 60.00000000000005
    vertex 243.79999999999995 55.891753623754475 4.511946372076636e-14
  endloop
endfacet
facet normal 1.0799627899170443e-18 -0.49999999999998423 -0.8660254037844477
  outer loop
    vertex 261.29999999999995 85.99175362375452 45.39670477583358
    vertex 256.29999999999995 85.46115552298009 45.61648570534376
    vertex 256.29999999999995 85.99175362375452 45.39670477583358
  endloop
endfacet
facet normal 3.618656571836709e-19 -0.2588190451025253 -0.9659258262890671
  outer loop
    vertex 256.29999999999995 85.46115552298009 45.61648570534376
    vertex 261.29999999999995 85.99175362375452 45.39670477583358
    vertex 261.29999999999995 85.46115552298009 45.61648570534376
  endloop
endfacet
facet normal 7.116075939839697e-19 0.9659258262890724 -0.25881904510250514
  outer loop
    vertex 256.29999999999995 82.76671680591852 44.060850786733354
    vertex 261.29999999999995 82.6917536237545 43.49144888750781
    vertex 256.29999999999995 82.6917536237545 43.49144888750781
  endloop
endfacet
facet normal -7.367103918543121e-19 1.0 0.0
  outer loop
    vertex 261.29999999999995 82.6917536237545 43.49144888750781
    vertex 256.29999999999995 82.76671680591852 44.060850786733354
    vertex 261.29999999999995 82.76671680591852 44.060850786733354
  endloop
endfacet
facet normal 1.0799627899142444e-18 -0.8660254037844605 0.49999999999996214
  outer loop
    vertex 261.29999999999995 86.79700951208028 42.391448887507806
    vertex 256.29999999999995 86.44738854236498 41.9358139688974
    vertex 261.29999999999995 86.44738854236498 41.9358139688974
  endloop
endfacet
facet normal 3.1249741450478416e-30 -0.707106781186556 0.7071067811865389
  outer loop
    vertex 256.29999999999995 86.44738854236498 41.9358139688974
    vertex 261.29999999999995 86.79700951208028 42.391448887507806
    vertex 256.29999999999995 86.79700951208028 42.391448887507806
  endloop
endfacet
facet normal -6.249948290096517e-30 0.49999999999999734 0.8660254037844402
  outer loop
    vertex 261.29999999999995 83.79175362375449 41.586192999182046
    vertex 256.29999999999995 84.32235172452897 41.36641206967186
    vertex 256.29999999999995 83.79175362375449 41.586192999182046
  endloop
endfacet
facet normal 0.0 0.25881904510250814 0.9659258262890716
  outer loop
    vertex 256.29999999999995 84.32235172452897 41.36641206967186
    vertex 261.29999999999995 83.79175362375449 41.586192999182046
    vertex 261.29999999999995 84.32235172452897 41.36641206967186
  endloop
endfacet
facet normal -0.0 -0.0 1.0
  outer loop
    vertex 259.79999999999995 52.391753623754404 60.00000000000005
    vertex 243.79999999999995 55.891753623754475 60.00000000000005
    vertex 243.79999999999995 52.391753623754404 60.00000000000005
  endloop
endfacet
facet normal -0.0 -0.0 1.0
  outer loop
    vertex 243.79999999999995 55.891753623754475 60.00000000000005
    vertex 259.79999999999995 52.391753623754404 60.00000000000005
    vertex 257.79999999999995 55.891753623754475 60.00000000000005
  endloop
endfacet
facet normal -0.0 -0.0 1.0
  outer loop
    vertex 257.79999999999995 55.891753623754475 60.00000000000005
    vertex 259.79999999999995 52.391753623754404 60.00000000000005
    vertex 257.79999999999995 92.39175362375445 60.00000000000005
  endloop
endfacet
facet normal -0.0 -0.0 1.0
  outer loop
    vertex 257.79999999999995 92.39175362375445 60.00000000000005
    vertex 259.79999999999995 52.391753623754404 60.00000000000005
    vertex 259.79999999999995 92.39175362375445 60.00000000000005
  endloop
endfacet
facet normal -0.8660254037844285 0.0 0.5000000000000175
  outer loop
    vertex 252.61865334794732 57.3917536237545 48.950000000000045
    vertex 252.2849242404917 52.391753623754404 48.5150757595083
    vertex 252.61865334794732 52.391753623754404 48.950000000000045
  endloop
endfacet
facet normal -0.7071067811865376 5.231811891271401e-30 0.7071067811865576
  outer loop
    vertex 252.2849242404917 52.391753623754404 48.5150757595083
    vertex 252.61865334794732 57.3917536237545 48.950000000000045
    vertex 252.2849242404917 57.3917536237545 48.5150757595083
  endloop
endfacet
facet normal 4.101769429160568e-15 1.0 -0.0
  outer loop
    vertex 245.29999999999993 57.3917536237545 1.5000000000000453
    vertex 249.31507575950823 57.3917536237545 8.515075759508296
    vertex 256.29999999999995 57.391753623754454 1.5000000000000453
  endloop
endfacet
facet normal 4.101769429160568e-15 1.0 -0.0
  outer loop
    vertex 249.31507575950823 57.3917536237545 8.515075759508296
    vertex 245.29999999999993 57.3917536237545 1.5000000000000453
    vertex 248.98134665205262 57.3917536237545 8.950000000000045
  endloop
endfacet
facet normal 4.101769429160568e-15 1.0 -0.0
  outer loop
    vertex 248.98134665205262 57.3917536237545 8.950000000000045
    vertex 245.29999999999993 57.3917536237545 1.5000000000000453
    vertex 248.7715557647929 57.3917536237545 9.456480005284753
  endloop
endfacet
facet normal 4.101769429160568e-15 1.0 -0.0
  outer loop
    vertex 248.7715557647929 57.3917536237545 9.456480005284753
    vertex 245.29999999999993 57.3917536237545 1.5000000000000453
    vertex 248.69999999999996 57.3917536237545 10.000000000000046
  endloop
endfacet
facet normal 4.101769429160568e-15 1.0 -0.0
  outer loop
    vertex 248.69999999999996 57.3917536237545 10.000000000000046
    vertex 245.29999999999993 57.3917536237545 1.5000000000000453
    vertex 245.29999999999993 57.3917536237545 58.50000000000005
  endloop
endfacet
facet normal 4.101769429160568e-15 1.0 -0.0
  outer loop
    vertex 256.29999999999995 57.391753623754454 1.5000000000000453
    vertex 249.31507575950823 57.3917536237545 8.515075759508296
    vertex 249.74999999999997 57.3917536237545 8.181346652052726
  endloop
endfacet
facet normal 4.101769429160568e-15 1.0 -0.0
  outer loop
    vertex 256.29999999999995 57.391753623754454 1.5000000000000453
    vertex 249.74999999999997 57.3917536237545 8.181346652052726
    vertex 250.25648000528466 57.3917536237545 7.9715557647930035
  endloop
endfacet
facet normal 4.101769429160568e-15 1.0 -0.0
  outer loop
    vertex 256.29999999999995 57.391753623754454 1.5000000000000453
    vertex 250.25648000528466 57.3917536237545 7.9715557647930035
    vertex 250.79999999999998 57.3917536237545 7.900000000000045
  endloop
endfacet
facet normal 4.101769429160568e-15 1.0 -0.0
  outer loop
    vertex 248.69999999999996 57.3917536237545 10.000000000000046
    vertex 245.29999999999993 57.3917536237545 58.50000000000005
    vertex 248.7715557647929 57.3917536237545 10.54351999471534
  endloop
endfacet
facet normal 4.101769429160568e-15 1.0 -0.0
  outer loop
    vertex 248.7715557647929 57.3917536237545 10.54351999471534
    vertex 245.29999999999993 57.3917536237545 58.50000000000005
    vertex 248.98134665205262 57.3917536237545 11.050000000000047
  endloop
endfacet
facet normal 4.101769429160568e-15 1.0 -0.0
  outer loop
    vertex 248.98134665205262 57.3917536237545 11.050000000000047
    vertex 245.29999999999993 57.3917536237545 58.50000000000005
    vertex 249.31507575950823 57.3917536237545 11.484924240491797
  endloop
endfacet
facet normal 4.101769429160568e-15 1.0 -0.0
  outer loop
    vertex 249.31507575950823 57.3917536237545 11.484924240491797
    vertex 245.29999999999993 57.3917536237545 58.50000000000005
    vertex 249.75 57.3917536237545 11.818653347947368
  endloop
endfacet
facet normal 4.101769429160568e-15 1.0 -0.0
  outer loop
    vertex 249.75 57.3917536237545 11.818653347947368
    vertex 245.29999999999993 57.3917536237545 58.50000000000005
    vertex 250.25648000528466 57.3917536237545 12.02844423520709
  endloop
endfacet
facet normal 4.101769429160568e-15 1.0 -0.0
  outer loop
    vertex 250.25648000528466 57.3917536237545 12.02844423520709
    vertex 245.29999999999993 57.3917536237545 58.50000000000005
    vertex 250.79999999999998 57.3917536237545 12.100000000000046
  endloop
endfacet
facet normal 4.101769429160568e-15 1.0 -0.0
  outer loop
    vertex 250.79999999999998 57.3917536237545 12.100000000000046
    vertex 245.29999999999993 57.3917536237545 58.50000000000005
    vertex 248.7715557647929 57.3917536237545 49.45648000528475
  endloop
endfacet
facet normal 4.101769429160568e-15 1.0 -0.0
  outer loop
    vertex 250.79999999999998 57.3917536237545 12.100000000000046
    vertex 248.7715557647929 57.3917536237545 49.45648000528475
    vertex 248.98134665205262 57.3917536237545 48.95000000000005
  endloop
endfacet
facet normal 4.101769429160568e-15 1.0 -0.0
  outer loop
    vertex 250.79999999999998 57.3917536237545 12.100000000000046
    vertex 248.98134665205262 57.3917536237545 48.95000000000005
    vertex 249.31507575950823 57.3917536237545 48.5150757595083
  endloop
endfacet
facet normal 4.101769429160568e-15 1.0 -0.0
  outer loop
    vertex 250.79999999999998 57.3917536237545 12.100000000000046
    vertex 249.31507575950823 57.3917536237545 48.5150757595083
    vertex 249.74999999999997 57.3917536237545 48.181346652052724
  endloop
endfacet
facet normal 4.101769429160568e-15 1.0 -0.0
  outer loop
    vertex 250.79999999999998 57.3917536237545 12.100000000000046
    vertex 249.74999999999997 57.3917536237545 48.181346652052724
    vertex 250.25648000528466 57.3917536237545 47.971555764793
  endloop
endfacet
facet normal 4.101769429160568e-15 1.0 -0.0
  outer loop
    vertex 250.79999999999998 57.3917536237545 12.100000000000046
    vertex 250.25648000528466 57.3917536237545 47.971555764793
    vertex 250.79999999999998 57.3917536237545 47.90000000000005
  endloop
endfacet
facet normal 4.101769429160568e-15 1.0 -0.0
  outer loop
    vertex 248.7715557647929 57.3917536237545 49.45648000528475
    vertex 245.29999999999993 57.3917536237545 58.50000000000005
    vertex 248.69999999999996 57.3917536237545 50.00000000000005
  endloop
endfacet
facet normal 4.101769429160568e-15 1.0 -0.0
  outer loop
    vertex 248.69999999999996 57.3917536237545 50.00000000000005
    vertex 245.29999999999993 57.3917536237545 58.50000000000005
    vertex 248.7715557647929 57.3917536237545 50.54351999471534
  endloop
endfacet
facet normal 4.101769429160568e-15 1.0 -0.0
  outer loop
    vertex 248.7715557647929 57.3917536237545 50.54351999471534
    vertex 245.29999999999993 57.3917536237545 58.50000000000005
    vertex 248.98134665205262 57.3917536237545 51.050000000000054
  endloop
endfacet
facet normal 4.101769429160568e-15 1.0 -0.0
  outer loop
    vertex 248.98134665205262 57.3917536237545 51.050000000000054
    vertex 245.29999999999993 57.3917536237545 58.50000000000005
    vertex 249.31507575950823 57.3917536237545 51.4849242404918
  endloop
endfacet
facet normal 4.101769429160568e-15 1.0 -0.0
  outer loop
    vertex 249.31507575950823 57.3917536237545 51.4849242404918
    vertex 245.29999999999993 57.3917536237545 58.50000000000005
    vertex 249.75 57.3917536237545 51.81865334794737
  endloop
endfacet
facet normal 4.101769429160568e-15 1.0 -0.0
  outer loop
    vertex 249.75 57.3917536237545 51.81865334794737
    vertex 245.29999999999993 57.3917536237545 58.50000000000005
    vertex 250.25648000528466 57.3917536237545 52.0284442352071
  endloop
endfacet
facet normal 4.101769429160568e-15 1.0 -0.0
  outer loop
    vertex 250.25648000528466 57.3917536237545 52.0284442352071
    vertex 245.29999999999993 57.3917536237545 58.50000000000005
    vertex 250.79999999999998 57.3917536237545 52.10000000000005
  endloop
endfacet
facet normal 4.101769429160568e-15 1.0 -0.0
  outer loop
    vertex 256.29999999999995 57.391753623754454 1.5000000000000453
    vertex 252.89999999999998 57.3917536237545 10.000000000000046
    vertex 256.29999999999995 57.391753623754454 58.50000000000005
  endloop
endfacet
facet normal 4.101769429160568e-15 1.0 -0.0
  outer loop
    vertex 252.89999999999998 57.3917536237545 10.000000000000046
    vertex 256.29999999999995 57.391753623754454 1.5000000000000453
    vertex 252.82844423520703 57.3917536237545 9.456480005284751
  endloop
endfacet
facet normal 4.101769429160568e-15 1.0 -0.0
  outer loop
    vertex 252.82844423520703 57.3917536237545 9.456480005284751
    vertex 256.29999999999995 57.391753623754454 1.5000000000000453
    vertex 252.61865334794732 57.3917536237545 8.950000000000045
  endloop
endfacet
facet normal 4.101769429160568e-15 1.0 -0.0
  outer loop
    vertex 252.61865334794732 57.3917536237545 8.950000000000045
    vertex 256.29999999999995 57.391753623754454 1.5000000000000453
    vertex 252.2849242404917 57.3917536237545 8.515075759508296
  endloop
endfacet
facet normal 4.101769429160568e-15 1.0 -0.0
  outer loop
    vertex 252.2849242404917 57.3917536237545 8.515075759508296
    vertex 256.29999999999995 57.391753623754454 1.5000000000000453
    vertex 251.84999999999997 57.3917536237545 8.181346652052726
  endloop
endfacet
facet normal 4.101769429160568e-15 1.0 -0.0
  outer loop
    vertex 251.84999999999997 57.3917536237545 8.181346652052726
    vertex 256.29999999999995 57.391753623754454 1.5000000000000453
    vertex 251.34351999471528 57.3917536237545 7.9715557647930035
  endloop
endfacet
facet normal 4.101769429160568e-15 1.0 -0.0
  outer loop
    vertex 251.34351999471528 57.3917536237545 7.9715557647930035
    vertex 256.29999999999995 57.391753623754454 1.5000000000000453
    vertex 250.79999999999998 57.3917536237545 7.900000000000045
  endloop
endfacet
facet normal 4.101769429160568e-15 1.0 -0.0
  outer loop
    vertex 256.29999999999995 57.391753623754454 58.50000000000005
    vertex 252.89999999999998 57.3917536237545 10.000000000000046
    vertex 252.82844423520703 57.3917536237545 10.54351999471534
  endloop
endfacet
facet normal 4.101769429160568e-15 1.0 -0.0
  outer loop
    vertex 256.29999999999995 57.391753623754454 58.50000000000005
    vertex 252.82844423520703 57.3917536237545 10.54351999471534
    vertex 252.61865334794732 57.3917536237545 11.050000000000045
  endloop
endfacet
facet normal 4.101769429160568e-15 1.0 -0.0
  outer loop
    vertex 256.29999999999995 57.391753623754454 58.50000000000005
    vertex 252.61865334794732 57.3917536237545 11.050000000000045
    vertex 252.2849242404917 57.3917536237545 11.484924240491793
  endloop
endfacet
facet normal 4.101769429160568e-15 1.0 -0.0
  outer loop
    vertex 256.29999999999995 57.391753623754454 58.50000000000005
    vertex 252.2849242404917 57.3917536237545 11.484924240491793
    vertex 251.84999999999997 57.3917536237545 11.818653347947368
  endloop
endfacet
facet normal 4.101769429160568e-15 1.0 -0.0
  outer loop
    vertex 256.29999999999995 57.391753623754454 58.50000000000005
    vertex 251.84999999999997 57.3917536237545 11.818653347947368
    vertex 251.34351999471528 57.3917536237545 12.02844423520709
  endloop
endfacet
facet normal 4.101769429160568e-15 1.0 -0.0
  outer loop
    vertex 256.29999999999995 57.391753623754454 58.50000000000005
    vertex 251.34351999471528 57.3917536237545 12.02844423520709
    vertex 250.79999999999998 57.3917536237545 12.100000000000046
  endloop
endfacet
facet normal 4.101769429160568e-15 1.0 -0.0
  outer loop
    vertex 256.29999999999995 57.391753623754454 58.50000000000005
    vertex 250.79999999999998 57.3917536237545 12.100000000000046
    vertex 252.82844423520703 57.3917536237545 49.45648000528475
  endloop
endfacet
facet normal 4.101769429160568e-15 1.0 -0.0
  outer loop
    vertex 252.82844423520703 57.3917536237545 49.45648000528475
    vertex 250.79999999999998 57.3917536237545 12.100000000000046
    vertex 252.61865334794732 57.3917536237545 48.950000000000045
  endloop
endfacet
facet normal 4.101769429160568e-15 1.0 -0.0
  outer loop
    vertex 252.61865334794732 57.3917536237545 48.950000000000045
    vertex 250.79999999999998 57.3917536237545 12.100000000000046
    vertex 252.2849242404917 57.3917536237545 48.5150757595083
  endloop
endfacet
facet normal 4.101769429160568e-15 1.0 -0.0
  outer loop
    vertex 252.2849242404917 57.3917536237545 48.5150757595083
    vertex 250.79999999999998 57.3917536237545 12.100000000000046
    vertex 251.84999999999997 57.3917536237545 48.181346652052724
  endloop
endfacet
facet normal 4.101769429160568e-15 1.0 -0.0
  outer loop
    vertex 251.84999999999997 57.3917536237545 48.181346652052724
    vertex 250.79999999999998 57.3917536237545 12.100000000000046
    vertex 251.34351999471528 57.3917536237545 47.971555764793
  endloop
endfacet
facet normal 4.101769429160568e-15 1.0 -0.0
  outer loop
    vertex 251.34351999471528 57.3917536237545 47.971555764793
    vertex 250.79999999999998 57.3917536237545 12.100000000000046
    vertex 250.79999999999998 57.3917536237545 47.90000000000005
  endloop
endfacet
facet normal 4.101769429160568e-15 1.0 -0.0
  outer loop
    vertex 256.29999999999995 57.391753623754454 58.50000000000005
    vertex 252.82844423520703 57.3917536237545 49.45648000528475
    vertex 252.89999999999998 57.3917536237545 50.00000000000005
  endloop
endfacet
facet normal 4.101769429160568e-15 1.0 -0.0
  outer loop
    vertex 256.29999999999995 57.391753623754454 58.50000000000005
    vertex 252.89999999999998 57.3917536237545 50.00000000000005
    vertex 252.82844423520703 57.3917536237545 50.54351999471534
  endloop
endfacet
facet normal 4.101769429160568e-15 1.0 -0.0
  outer loop
    vertex 256.29999999999995 57.391753623754454 58.50000000000005
    vertex 252.82844423520703 57.3917536237545 50.54351999471534
    vertex 252.61865334794732 57.3917536237545 51.050000000000054
  endloop
endfacet
facet normal 4.101769429160568e-15 1.0 -0.0
  outer loop
    vertex 256.29999999999995 57.391753623754454 58.50000000000005
    vertex 252.61865334794732 57.3917536237545 51.050000000000054
    vertex 252.2849242404917 57.3917536237545 51.4849242404918
  endloop
endfacet
facet normal 4.101769429160568e-15 1.0 -0.0
  outer loop
    vertex 256.29999999999995 57.391753623754454 58.50000000000005
    vertex 252.2849242404917 57.3917536237545 51.4849242404918
    vertex 251.84999999999997 57.3917536237545 51.81865334794737
  endloop
endfacet
facet normal 4.101769429160568e-15 1.0 -0.0
  outer loop
    vertex 256.29999999999995 57.391753623754454 58.50000000000005
    vertex 251.84999999999997 57.3917536237545 51.81865334794737
    vertex 251.34351999471528 57.3917536237545 52.02844423520709
  endloop
endfacet
facet normal 4.101769429160568e-15 1.0 -0.0
  outer loop
    vertex 256.29999999999995 57.391753623754454 58.50000000000005
    vertex 251.34351999471528 57.3917536237545 52.02844423520709
    vertex 250.79999999999998 57.3917536237545 52.10000000000005
  endloop
endfacet
facet normal 4.101769429160568e-15 1.0 -0.0
  outer loop
    vertex 256.29999999999995 57.391753623754454 58.50000000000005
    vertex 250.79999999999998 57.3917536237545 52.10000000000005
    vertex 245.29999999999993 57.3917536237545 58.50000000000005
  endloop
endfacet
facet normal 0.7683849843760547 8.953224346767045e-19 0.6399879028430226
  outer loop
    vertex 261.29999999999995 92.39175362375445 58.19906365191603
    vertex 259.79999999999995 52.391753623754404 60.00000000000005
    vertex 261.29999999999995 52.391753623754404 58.19906365191603
  endloop
endfacet
facet normal 0.7683849843760547 8.953224346767045e-19 0.6399879028430226
  outer loop
    vertex 259.79999999999995 52.391753623754404 60.00000000000005
    vertex 261.29999999999995 92.39175362375445 58.19906365191603
    vertex 259.79999999999995 92.39175362375445 60.00000000000005
  endloop
endfacet
facet normal 0.258819045102535 -1.5575918454363285e-30 -0.9659258262890643
  outer loop
    vertex 250.25648000528466 57.3917536237545 52.0284442352071
    vertex 249.75 52.391753623754404 51.81865334794737
    vertex 249.75 57.3917536237545 51.81865334794737
  endloop
endfacet
facet normal 0.500000000000002 1.1194528091663284e-18 -0.8660254037844375
  outer loop
    vertex 249.75 52.391753623754404 51.81865334794737
    vertex 250.25648000528466 57.3917536237545 52.0284442352071
    vertex 250.25648000528466 52.391753623754404 52.0284442352071
  endloop
endfacet
facet normal 0.7071067811865533 1.1870634968488993e-17 -0.7071067811865417
  outer loop
    vertex 264.79999999999995 92.39175362375445 4.511946372076636e-14
    vertex 266.29999999999995 52.391753623754404 1.5000000000000437
    vertex 264.79999999999995 52.391753623754404 4.511946372076636e-14
  endloop
endfacet
facet normal 0.7071067811865533 1.1870634968488993e-17 -0.7071067811865417
  outer loop
    vertex 266.29999999999995 52.391753623754404 1.5000000000000437
    vertex 264.79999999999995 92.39175362375445 4.511946372076636e-14
    vertex 266.29999999999995 92.39175362375445 1.5000000000000453
  endloop
endfacet
facet normal -0.9659258262890749 0.0 0.25881904510249565
  outer loop
    vertex 252.82844423520703 57.3917536237545 9.456480005284751
    vertex 252.61865334794732 52.391753623754404 8.950000000000045
    vertex 252.82844423520703 52.391753623754404 9.456480005284751
  endloop
endfacet
facet normal -0.8660254037844282 -3.906217681310296e-31 0.500000000000018
  outer loop
    vertex 252.61865334794732 52.391753623754404 8.950000000000045
    vertex 252.82844423520703 57.3917536237545 9.456480005284751
    vertex 252.61865334794732 57.3917536237545 8.950000000000045
  endloop
endfacet
facet normal -0.9659258262890748 0.0 -0.258819045102496
  outer loop
    vertex 252.82844423520703 57.3917536237545 10.54351999471534
    vertex 252.89999999999998 52.391753623754404 10.000000000000046
    vertex 252.82844423520703 52.391753623754404 10.54351999471534
  endloop
endfacet
facet normal -1.0 0.0 -3.2079995624328646e-16
  outer loop
    vertex 252.89999999999998 52.391753623754404 10.000000000000046
    vertex 252.82844423520703 57.3917536237545 10.54351999471534
    vertex 252.89999999999998 57.3917536237545 10.000000000000046
  endloop
endfacet
facet normal 1.10842522103244e-15 0.7071067811865476 0.7071067811865476
  outer loop
    vertex 243.79999999999995 55.891753623754475 60.00000000000005
    vertex 256.29999999999995 57.391753623754454 58.50000000000005
    vertex 245.29999999999993 57.3917536237545 58.50000000000005
  endloop
endfacet
facet normal 1.10842522103244e-15 0.7071067811865476 0.7071067811865476
  outer loop
    vertex 256.29999999999995 57.391753623754454 58.50000000000005
    vertex 243.79999999999995 55.891753623754475 60.00000000000005
    vertex 257.79999999999995 55.891753623754475 60.00000000000005
  endloop
endfacet
facet normal 1.0 0.0 0.0
  outer loop
    vertex 248.69999999999996 57.3917536237545 10.000000000000046
    vertex 248.7715557647929 52.391753623754404 10.54351999471534
    vertex 248.69999999999996 52.391753623754404 10.000000000000046
  endloop
endfacet
facet normal 0.9659258262890752 0.0 -0.25881904510249504
  outer loop
    vertex 248.7715557647929 52.391753623754404 10.54351999471534
    vertex 248.69999999999996 57.3917536237545 10.000000000000046
    vertex 248.7715557647929 57.3917536237545 10.54351999471534
  endloop
endfacet
facet normal 0.7071067811865398 -6.486841152658994e-30 0.7071067811865551
  outer loop
    vertex 249.31507575950823 57.3917536237545 48.5150757595083
    vertex 248.98134665205262 52.391753623754404 48.95000000000005
    vertex 249.31507575950823 52.391753623754404 48.5150757595083
  endloop
endfacet
facet normal 0.866025403784429 -1.079962789912748e-18 0.5000000000000164
  outer loop
    vertex 248.98134665205262 52.391753623754404 48.95000000000005
    vertex 249.31507575950823 57.3917536237545 48.5150757595083
    vertex 248.98134665205262 57.3917536237545 48.95000000000005
  endloop
endfacet
facet normal -0.7071067811865387 5.859326521965196e-30 -0.7071067811865565
  outer loop
    vertex 252.2849242404917 57.3917536237545 11.484924240491793
    vertex 251.84999999999997 52.391753623754404 11.818653347947368
    vertex 251.84999999999997 57.3917536237545 11.818653347947368
  endloop
endfacet
facet normal -0.5000000000000074 6.2499482900962584e-30 -0.8660254037844344
  outer loop
    vertex 251.84999999999997 52.391753623754404 11.818653347947368
    vertex 252.2849242404917 57.3917536237545 11.484924240491793
    vertex 252.2849242404917 52.391753623754404 11.484924240491793
  endloop
endfacet
facet normal -0.2588190451025256 -3.6835519592781847e-19 -0.965925826289067
  outer loop
    vertex 251.34351999471528 57.3917536237545 52.02844423520709
    vertex 250.79999999999998 52.391753623754404 52.10000000000005
    vertex 250.79999999999998 57.3917536237545 52.10000000000005
  endloop
endfacet
facet normal -1.5567708987695145e-14 -3.683551959278191e-19 -1.0
  outer loop
    vertex 250.79999999999998 52.391753623754404 52.10000000000005
    vertex 251.34351999471528 57.3917536237545 52.02844423520709
    vertex 251.34351999471528 52.391753623754404 52.02844423520709
  endloop
endfacet
facet normal 1.0 3.350170990656167e-31 0.0
  outer loop
    vertex 248.69999999999996 57.3917536237545 50.00000000000005
    vertex 248.7715557647929 52.391753623754404 50.54351999471534
    vertex 248.69999999999996 52.391753623754404 50.00000000000005
  endloop
endfacet
facet normal 0.9659258262890754 1.6750854953280989e-31 -0.2588190451024941
  outer loop
    vertex 248.7715557647929 52.391753623754404 50.54351999471534
    vertex 248.69999999999996 57.3917536237545 50.00000000000005
    vertex 248.7715557647929 57.3917536237545 50.54351999471534
  endloop
endfacet
facet normal 0.5000000000000056 -6.249948290096224e-30 0.8660254037844354
  outer loop
    vertex 249.74999999999997 52.391753623754404 8.181346652052726
    vertex 249.31507575950823 57.3917536237545 8.515075759508296
    vertex 249.31507575950823 52.391753623754404 8.515075759508296
  endloop
endfacet
facet normal 0.7071067811865372 -6.249948290096194e-30 0.707106781186558
  outer loop
    vertex 249.31507575950823 57.3917536237545 8.515075759508296
    vertex 249.74999999999997 52.391753623754404 8.181346652052726
    vertex 249.74999999999997 57.3917536237545 8.181346652052726
  endloop
endfacet
facet normal 0.8660254037844285 1.5624870725241254e-30 -0.5000000000000175
  outer loop
    vertex 248.98134665205262 57.3917536237545 51.050000000000054
    vertex 249.31507575950823 52.391753623754404 51.4849242404918
    vertex 248.98134665205262 52.391753623754404 51.050000000000054
  endloop
endfacet
facet normal 0.707106781186517 1.1194528091694542e-18 -0.7071067811865782
  outer loop
    vertex 249.31507575950823 52.391753623754404 51.4849242404918
    vertex 248.98134665205262 57.3917536237545 51.050000000000054
    vertex 249.31507575950823 57.3917536237545 51.4849242404918
  endloop
endfacet
facet normal -0.5000000000000053 5.231811891271433e-30 0.8660254037844355
  outer loop
    vertex 251.84999999999997 52.391753623754404 48.181346652052724
    vertex 251.34351999471528 57.3917536237545 47.971555764793
    vertex 251.34351999471528 52.391753623754404 47.971555764793
  endloop
endfacet
facet normal -0.25881904510252063 -3.683551959265179e-19 0.9659258262890683
  outer loop
    vertex 251.34351999471528 57.3917536237545 47.971555764793
    vertex 251.84999999999997 52.391753623754404 48.181346652052724
    vertex 251.84999999999997 57.3917536237545 48.181346652052724
  endloop
endfacet
facet normal -1.0 3.350170990656167e-31 0.0
  outer loop
    vertex 252.89999999999998 57.3917536237545 50.00000000000005
    vertex 252.82844423520703 52.391753623754404 49.45648000528475
    vertex 252.89999999999998 52.391753623754404 50.00000000000005
  endloop
endfacet
facet normal -0.9659258262890754 1.6750854953280989e-31 0.2588190451024941
  outer loop
    vertex 252.82844423520703 52.391753623754404 49.45648000528475
    vertex 252.89999999999998 57.3917536237545 50.00000000000005
    vertex 252.82844423520703 57.3917536237545 49.45648000528475
  endloop
endfacet
facet normal 0.2588190451025155 -1.272353754030923e-30 0.9659258262890696
  outer loop
    vertex 250.25648000528466 52.391753623754404 47.971555764793
    vertex 249.74999999999997 57.3917536237545 48.181346652052724
    vertex 249.74999999999997 52.391753623754404 48.181346652052724
  endloop
endfacet
facet normal 0.5000000000000053 -7.268084688921087e-30 0.8660254037844355
  outer loop
    vertex 249.74999999999997 57.3917536237545 48.181346652052724
    vertex 250.25648000528466 52.391753623754404 47.971555764793
    vertex 250.25648000528466 57.3917536237545 47.971555764793
  endloop
endfacet
facet normal -1.5567708987695145e-14 -3.683551959278191e-19 -1.0
  outer loop
    vertex 250.79999999999998 57.3917536237545 52.10000000000005
    vertex 250.25648000528466 52.391753623754404 52.0284442352071
    vertex 250.25648000528466 57.3917536237545 52.0284442352071
  endloop
endfacet
facet normal 0.258819045102535 -1.5575918454363285e-30 -0.9659258262890643
  outer loop
    vertex 250.25648000528466 52.391753623754404 52.0284442352071
    vertex 250.79999999999998 57.3917536237545 52.10000000000005
    vertex 250.79999999999998 52.391753623754404 52.10000000000005
  endloop
endfacet
facet normal -0.8660254037844285 1.5624870725241254e-30 -0.5000000000000175
  outer loop
    vertex 252.61865334794732 57.3917536237545 51.050000000000054
    vertex 252.82844423520703 52.391753623754404 50.54351999471534
    vertex 252.61865334794732 52.391753623754404 51.050000000000054
  endloop
endfacet
facet normal -0.9659258262890754 1.6750854953280987e-31 -0.2588190451024941
  outer loop
    vertex 252.82844423520703 52.391753623754404 50.54351999471534
    vertex 252.61865334794732 57.3917536237545 51.050000000000054
    vertex 252.82844423520703 57.3917536237545 50.54351999471534
  endloop
endfacet
facet normal -0.7071067811865346 1.1194528091756574e-18 -0.7071067811865603
  outer loop
    vertex 252.2849242404917 57.3917536237545 51.4849242404918
    vertex 252.61865334794732 52.391753623754404 51.050000000000054
    vertex 252.2849242404917 52.391753623754404 51.4849242404918
  endloop
endfacet
facet normal -0.8660254037844285 1.5624870725241254e-30 -0.5000000000000175
  outer loop
    vertex 252.61865334794732 52.391753623754404 51.050000000000054
    vertex 252.2849242404917 57.3917536237545 51.4849242404918
    vertex 252.61865334794732 57.3917536237545 51.050000000000054
  endloop
endfacet
facet normal -0.9659258262890754 1.6750854953280987e-31 -0.2588190451024941
  outer loop
    vertex 252.82844423520703 57.3917536237545 50.54351999471534
    vertex 252.89999999999998 52.391753623754404 50.00000000000005
    vertex 252.82844423520703 52.391753623754404 50.54351999471534
  endloop
endfacet
facet normal -1.0 3.350170990656167e-31 0.0
  outer loop
    vertex 252.89999999999998 52.391753623754404 50.00000000000005
    vertex 252.82844423520703 57.3917536237545 50.54351999471534
    vertex 252.89999999999998 57.3917536237545 50.00000000000005
  endloop
endfacet
facet normal -0.25881904510252063 -3.683551959265179e-19 0.9659258262890683
  outer loop
    vertex 251.34351999471528 52.391753623754404 47.971555764793
    vertex 250.79999999999998 57.3917536237545 47.90000000000005
    vertex 250.79999999999998 52.391753623754404 47.90000000000005
  endloop
endfacet
facet normal -5.373399267075084e-15 -3.683551959277907e-19 1.0
  outer loop
    vertex 250.79999999999998 57.3917536237545 47.90000000000005
    vertex 251.34351999471528 52.391753623754404 47.971555764793
    vertex 251.34351999471528 57.3917536237545 47.971555764793
  endloop
endfacet
facet normal -0.7071067811865372 5.859326521965166e-30 0.707106781186558
  outer loop
    vertex 252.2849242404917 52.391753623754404 8.515075759508296
    vertex 251.84999999999997 57.3917536237545 8.181346652052726
    vertex 251.84999999999997 52.391753623754404 8.181346652052726
  endloop
endfacet
facet normal -0.5000000000000056 6.249948290096224e-30 0.8660254037844354
  outer loop
    vertex 251.84999999999997 57.3917536237545 8.181346652052726
    vertex 252.2849242404917 52.391753623754404 8.515075759508296
    vertex 252.2849242404917 57.3917536237545 8.515075759508296
  endloop
endfacet
facet normal 0.9659258262890748 -1.0799627899133615e-18 0.258819045102496
  outer loop
    vertex 248.7715557647929 57.3917536237545 49.45648000528475
    vertex 248.69999999999996 52.391753623754404 50.00000000000005
    vertex 248.7715557647929 52.391753623754404 49.45648000528475
  endloop
endfacet
facet normal 1.0 3.350170990656167e-31 0.0
  outer loop
    vertex 248.69999999999996 52.391753623754404 50.00000000000005
    vertex 248.7715557647929 57.3917536237545 49.45648000528475
    vertex 248.69999999999996 57.3917536237545 50.00000000000005
  endloop
endfacet
facet normal 0.2588190451025305 -4.521704216330427e-30 -0.9659258262890658
  outer loop
    vertex 250.25648000528466 57.3917536237545 12.02844423520709
    vertex 249.75 52.391753623754404 11.818653347947368
    vertex 249.75 57.3917536237545 11.818653347947368
  endloop
endfacet
facet normal 0.4999999999999976 -4.521704216330397e-30 -0.86602540378444
  outer loop
    vertex 249.75 52.391753623754404 11.818653347947368
    vertex 250.25648000528466 57.3917536237545 12.02844423520709
    vertex 250.25648000528466 52.391753623754404 12.02844423520709
  endloop
endfacet
facet normal -0.7071067811865376 5.231811891271401e-30 0.7071067811865576
  outer loop
    vertex 252.2849242404917 52.391753623754404 48.5150757595083
    vertex 251.84999999999997 57.3917536237545 48.181346652052724
    vertex 251.84999999999997 52.391753623754404 48.181346652052724
  endloop
endfacet
facet normal -0.5000000000000053 5.231811891271433e-30 0.8660254037844355
  outer loop
    vertex 251.84999999999997 57.3917536237545 48.181346652052724
    vertex 252.2849242404917 52.391753623754404 48.5150757595083
    vertex 252.2849242404917 57.3917536237545 48.5150757595083
  endloop
endfacet
facet normal 1.1034323146313943e-15 0.7071067811865482 -0.7071067811865469
  outer loop
    vertex 245.29999999999993 57.3917536237545 1.5000000000000453
    vertex 257.79999999999995 55.891753623754475 4.511946372076636e-14
    vertex 243.79999999999995 55.891753623754475 4.511946372076636e-14
  endloop
endfacet
facet normal 1.1034323146313943e-15 0.7071067811865482 -0.7071067811865469
  outer loop
    vertex 257.79999999999995 55.891753623754475 4.511946372076636e-14
    vertex 245.29999999999993 57.3917536237545 1.5000000000000453
    vertex 256.29999999999995 57.391753623754454 1.5000000000000453
  endloop
endfacet
facet normal 0.500000000000002 1.1194528091663284e-18 -0.8660254037844375
  outer loop
    vertex 249.75 57.3917536237545 51.81865334794737
    vertex 249.31507575950823 52.391753623754404 51.4849242404918
    vertex 249.31507575950823 57.3917536237545 51.4849242404918
  endloop
endfacet
facet normal 0.707106781186517 1.1194528091694542e-18 -0.7071067811865782
  outer loop
    vertex 249.31507575950823 52.391753623754404 51.4849242404918
    vertex 249.75 57.3917536237545 51.81865334794737
    vertex 249.75 52.391753623754404 51.81865334794737
  endloop
endfacet
facet normal 0.2588190451025178 0.0 0.965925826289069
  outer loop
    vertex 250.25648000528466 52.391753623754404 7.9715557647930035
    vertex 249.74999999999997 57.3917536237545 8.181346652052726
    vertex 249.74999999999997 52.391753623754404 8.181346652052726
  endloop
endfacet
facet normal 0.5000000000000056 -6.249948290096224e-30 0.8660254037844354
  outer loop
    vertex 249.74999999999997 57.3917536237545 8.181346652052726
    vertex 250.25648000528466 52.391753623754404 7.9715557647930035
    vertex 250.25648000528466 57.3917536237545 7.9715557647930035
  endloop
endfacet
facet normal -0.8660254037844282 -3.906217681310296e-31 -0.500000000000018
  outer loop
    vertex 252.61865334794732 57.3917536237545 11.050000000000045
    vertex 252.82844423520703 52.391753623754404 10.54351999471534
    vertex 252.61865334794732 52.391753623754404 11.050000000000045
  endloop
endfacet
facet normal -0.9659258262890748 0.0 -0.258819045102496
  outer loop
    vertex 252.82844423520703 52.391753623754404 10.54351999471534
    vertex 252.61865334794732 57.3917536237545 11.050000000000045
    vertex 252.82844423520703 57.3917536237545 10.54351999471534
  endloop
endfacet
facet normal 0.866025403784429 -1.079962789912748e-18 0.5000000000000164
  outer loop
    vertex 248.98134665205262 57.3917536237545 48.95000000000005
    vertex 248.7715557647929 52.391753623754404 49.45648000528475
    vertex 248.98134665205262 52.391753623754404 48.95000000000005
  endloop
endfacet
facet normal 0.9659258262890748 -1.0799627899133615e-18 0.258819045102496
  outer loop
    vertex 248.7715557647929 52.391753623754404 49.45648000528475
    vertex 248.98134665205262 57.3917536237545 48.95000000000005
    vertex 248.7715557647929 57.3917536237545 49.45648000528475
  endloop
endfacet
facet normal 0.0 0.0 -1.0
  outer loop
    vertex 264.79999999999995 92.39175362375445 4.511946372076636e-14
    vertex 257.79999999999995 55.891753623754475 4.511946372076636e-14
    vertex 257.79999999999995 92.39175362375445 4.511946372076636e-14
  endloop
endfacet
facet normal 0.0 0.0 -1.0
  outer loop
    vertex 257.79999999999995 55.891753623754475 4.511946372076636e-14
    vertex 243.79999999999995 52.391753623754404 4.511946372076636e-14
    vertex 243.79999999999995 55.891753623754475 4.511946372076636e-14
  endloop
endfacet
facet normal 0.0 0.0 -1.0
  outer loop
    vertex 243.79999999999995 52.391753623754404 4.511946372076636e-14
    vertex 257.79999999999995 55.891753623754475 4.511946372076636e-14
    vertex 264.79999999999995 52.391753623754404 4.511946372076636e-14
  endloop
endfacet
facet normal 0.0 0.0 -1.0
  outer loop
    vertex 264.79999999999995 52.391753623754404 4.511946372076636e-14
    vertex 257.79999999999995 55.891753623754475 4.511946372076636e-14
    vertex 264.79999999999995 92.39175362375445 4.511946372076636e-14
  endloop
endfacet
facet normal -0.25881904510252046 -1.8613259125506788e-20 -0.9659258262890683
  outer loop
    vertex 251.34351999471528 57.3917536237545 12.02844423520709
    vertex 250.79999999999998 52.391753623754404 12.100000000000046
    vertex 250.79999999999998 57.3917536237545 12.100000000000046
  endloop
endfacet
facet normal -5.3733992670750815e-15 -1.861325912550679e-20 -1.0
  outer loop
    vertex 250.79999999999998 52.391753623754404 12.100000000000046
    vertex 251.34351999471528 57.3917536237545 12.02844423520709
    vertex 251.34351999471528 52.391753623754404 12.02844423520709
  endloop
endfacet
facet normal -0.7071067811865387 5.859326521965196e-30 -0.7071067811865565
  outer loop
    vertex 252.2849242404917 57.3917536237545 11.484924240491793
    vertex 252.61865334794732 52.391753623754404 11.050000000000045
    vertex 252.2849242404917 52.391753623754404 11.484924240491793
  endloop
endfacet
facet normal -0.8660254037844282 -3.906217681310296e-31 -0.500000000000018
  outer loop
    vertex 252.61865334794732 52.391753623754404 11.050000000000045
    vertex 252.2849242404917 57.3917536237545 11.484924240491793
    vertex 252.61865334794732 57.3917536237545 11.050000000000045
  endloop
endfacet
facet normal -0.258819045102523 -3.6835519592524566e-19 0.9659258262890676
  outer loop
    vertex 251.34351999471528 52.391753623754404 7.9715557647930035
    vertex 250.79999999999998 57.3917536237545 7.900000000000045
    vertex 250.79999999999998 52.391753623754404 7.900000000000045
  endloop
endfacet
facet normal -5.373399267075084e-15 -3.68355195925246e-19 1.0
  outer loop
    vertex 250.79999999999998 57.3917536237545 7.900000000000045
    vertex 251.34351999471528 52.391753623754404 7.9715557647930035
    vertex 251.34351999471528 57.3917536237545 7.9715557647930035
  endloop
endfacet
facet normal 0.9659258262890752 -2.455551088844533e-31 0.25881904510249504
  outer loop
    vertex 248.7715557647929 57.3917536237545 9.456480005284753
    vertex 248.69999999999996 52.391753623754404 10.000000000000046
    vertex 248.7715557647929 52.391753623754404 9.456480005284753
  endloop
endfacet
facet normal 1.0 0.0 0.0
  outer loop
    vertex 248.69999999999996 52.391753623754404 10.000000000000046
    vertex 248.7715557647929 57.3917536237545 9.456480005284753
    vertex 248.69999999999996 57.3917536237545 10.000000000000046
  endloop
endfacet
facet normal 0.8660254037844287 3.906217681310297e-31 -0.5000000000000172
  outer loop
    vertex 248.98134665205262 57.3917536237545 11.050000000000047
    vertex 249.31507575950823 52.391753623754404 11.484924240491797
    vertex 248.98134665205262 52.391753623754404 11.050000000000047
  endloop
endfacet
facet normal 0.7071067811865195 3.9062176813102806e-31 -0.7071067811865756
  outer loop
    vertex 249.31507575950823 52.391753623754404 11.484924240491797
    vertex 248.98134665205262 57.3917536237545 11.050000000000047
    vertex 249.31507575950823 57.3917536237545 11.484924240491797
  endloop
endfacet
facet normal -0.5000000000000056 6.249948290096224e-30 0.8660254037844354
  outer loop
    vertex 251.84999999999997 52.391753623754404 8.181346652052726
    vertex 251.34351999471528 57.3917536237545 7.9715557647930035
    vertex 251.34351999471528 52.391753623754404 7.9715557647930035
  endloop
endfacet
facet normal -0.258819045102523 -3.6835519592524566e-19 0.9659258262890676
  outer loop
    vertex 251.34351999471528 57.3917536237545 7.9715557647930035
    vertex 251.84999999999997 52.391753623754404 8.181346652052726
    vertex 251.84999999999997 57.3917536237545 8.181346652052726
  endloop
endfacet
facet normal 0.9659258262890754 1.6750854953280989e-31 -0.2588190451024941
  outer loop
    vertex 248.7715557647929 57.3917536237545 50.54351999471534
    vertex 248.98134665205262 52.391753623754404 51.050000000000054
    vertex 248.7715557647929 52.391753623754404 50.54351999471534
  endloop
endfacet
facet normal 0.8660254037844285 1.5624870725241254e-30 -0.5000000000000175
  outer loop
    vertex 248.98134665205262 52.391753623754404 51.050000000000054
    vertex 248.7715557647929 57.3917536237545 50.54351999471534
    vertex 248.98134665205262 57.3917536237545 51.050000000000054
  endloop
endfacet
facet normal 0.4999999999999976 -4.521704216330397e-30 -0.86602540378444
  outer loop
    vertex 249.75 57.3917536237545 11.818653347947368
    vertex 249.31507575950823 52.391753623754404 11.484924240491797
    vertex 249.31507575950823 57.3917536237545 11.484924240491797
  endloop
endfacet
facet normal 0.7071067811865195 3.9062176813102806e-31 -0.7071067811865756
  outer loop
    vertex 249.31507575950823 52.391753623754404 11.484924240491797
    vertex 249.75 57.3917536237545 11.818653347947368
    vertex 249.75 52.391753623754404 11.818653347947368
  endloop
endfacet
facet normal 1.0 -0.0 -0.0
  outer loop
    vertex 266.29999999999995 92.39175362375445 1.5000000000000453
    vertex 266.29999999999995 52.39175362375447 5.000000000000043
    vertex 266.29999999999995 52.391753623754404 1.5000000000000437
  endloop
endfacet
facet normal 1.0 -0.0 -0.0
  outer loop
    vertex 266.29999999999995 52.39175362375447 5.000000000000043
    vertex 266.29999999999995 92.39175362375445 1.5000000000000453
    vertex 266.29999999999995 92.3917536237545 5.0000000000000435
  endloop
endfacet
facet normal -5.3733992670750815e-15 -1.861325912550679e-20 -1.0
  outer loop
    vertex 250.79999999999998 57.3917536237545 12.100000000000046
    vertex 250.25648000528466 52.391753623754404 12.02844423520709
    vertex 250.25648000528466 57.3917536237545 12.02844423520709
  endloop
endfacet
facet normal 0.2588190451025305 -4.521704216330427e-30 -0.9659258262890658
  outer loop
    vertex 250.25648000528466 52.391753623754404 12.02844423520709
    vertex 250.79999999999998 57.3917536237545 12.100000000000046
    vertex 250.79999999999998 52.391753623754404 12.100000000000046
  endloop
endfacet
facet normal -7.175989880622676e-46 -3.5249581031848696e-17 1.0
  outer loop
    vertex 266.29999999999995 52.39175362375447 5.000000000000043
    vertex 261.29999999999995 92.3917536237545 5.0000000000000435
    vertex 261.29999999999995 52.39175362375447 5.000000000000043
  endloop
endfacet
facet normal -7.175989880622676e-46 -3.5249581031848696e-17 1.0
  outer loop
    vertex 261.29999999999995 92.3917536237545 5.0000000000000435
    vertex 266.29999999999995 52.39175362375447 5.000000000000043
    vertex 266.29999999999995 92.3917536237545 5.0000000000000435
  endloop
endfacet
facet normal 0.5000000000000053 -7.268084688921087e-30 0.8660254037844355
  outer loop
    vertex 249.74999999999997 52.391753623754404 48.181346652052724
    vertex 249.31507575950823 57.3917536237545 48.5150757595083
    vertex 249.31507575950823 52.391753623754404 48.5150757595083
  endloop
endfacet
facet normal 0.7071067811865398 -6.486841152658994e-30 0.7071067811865551
  outer loop
    vertex 249.31507575950823 57.3917536237545 48.5150757595083
    vertex 249.74999999999997 52.391753623754404 48.181346652052724
    vertex 249.74999999999997 57.3917536237545 48.181346652052724
  endloop
endfacet
facet normal -0.7071067811865346 1.1194528091756574e-18 -0.7071067811865603
  outer loop
    vertex 252.2849242404917 57.3917536237545 51.4849242404918
    vertex 251.84999999999997 52.391753623754404 51.81865334794737
    vertex 251.84999999999997 57.3917536237545 51.81865334794737
  endloop
endfacet
facet normal -0.5000000000000018 1.1194528091741007e-18 -0.8660254037844376
  outer loop
    vertex 251.84999999999997 52.391753623754404 51.81865334794737
    vertex 252.2849242404917 57.3917536237545 51.4849242404918
    vertex 252.2849242404917 52.391753623754404 51.4849242404918
  endloop
endfacet
facet normal -0.5000000000000018 1.1194528091741007e-18 -0.8660254037844376
  outer loop
    vertex 251.84999999999997 57.3917536237545 51.81865334794737
    vertex 251.34351999471528 52.391753623754404 52.02844423520709
    vertex 251.34351999471528 57.3917536237545 52.02844423520709
  endloop
endfacet
facet normal -0.2588190451025256 -3.6835519592781847e-19 -0.965925826289067
  outer loop
    vertex 251.34351999471528 52.391753623754404 52.02844423520709
    vertex 251.84999999999997 57.3917536237545 51.81865334794737
    vertex 251.84999999999997 52.391753623754404 51.81865334794737
  endloop
endfacet
facet normal 0.7071067811865372 -6.249948290096194e-30 0.707106781186558
  outer loop
    vertex 249.31507575950823 57.3917536237545 8.515075759508296
    vertex 248.98134665205262 52.391753623754404 8.950000000000045
    vertex 249.31507575950823 52.391753623754404 8.515075759508296
  endloop
endfacet
facet normal 0.8660254037844287 -2.455551088844535e-31 0.5000000000000172
  outer loop
    vertex 248.98134665205262 52.391753623754404 8.950000000000045
    vertex 249.31507575950823 57.3917536237545 8.515075759508296
    vertex 248.98134665205262 57.3917536237545 8.950000000000045
  endloop
endfacet
facet normal -0.9659258262890754 1.6750854953280989e-31 0.2588190451024941
  outer loop
    vertex 252.82844423520703 57.3917536237545 49.45648000528475
    vertex 252.61865334794732 52.391753623754404 48.950000000000045
    vertex 252.82844423520703 52.391753623754404 49.45648000528475
  endloop
endfacet
facet normal -0.8660254037844285 0.0 0.5000000000000175
  outer loop
    vertex 252.61865334794732 52.391753623754404 48.950000000000045
    vertex 252.82844423520703 57.3917536237545 49.45648000528475
    vertex 252.61865334794732 57.3917536237545 48.950000000000045
  endloop
endfacet
facet normal -1.0 0.0 -3.2079995624328646e-16
  outer loop
    vertex 252.89999999999998 57.3917536237545 10.000000000000046
    vertex 252.82844423520703 52.391753623754404 9.456480005284751
    vertex 252.89999999999998 52.391753623754404 10.000000000000046
  endloop
endfacet
facet normal -0.9659258262890749 0.0 0.25881904510249565
  outer loop
    vertex 252.82844423520703 52.391753623754404 9.456480005284751
    vertex 252.89999999999998 57.3917536237545 10.000000000000046
    vertex 252.82844423520703 57.3917536237545 9.456480005284751
  endloop
endfacet
facet normal 0.9659258262890752 0.0 -0.25881904510249504
  outer loop
    vertex 248.7715557647929 57.3917536237545 10.54351999471534
    vertex 248.98134665205262 52.391753623754404 11.050000000000047
    vertex 248.7715557647929 52.391753623754404 10.54351999471534
  endloop
endfacet
facet normal 0.8660254037844287 3.906217681310297e-31 -0.5000000000000172
  outer loop
    vertex 248.98134665205262 52.391753623754404 11.050000000000047
    vertex 248.7715557647929 57.3917536237545 10.54351999471534
    vertex 248.98134665205262 57.3917536237545 11.050000000000047
  endloop
endfacet
facet normal 0.8660254037844287 -2.455551088844535e-31 0.5000000000000172
  outer loop
    vertex 248.98134665205262 57.3917536237545 8.950000000000045
    vertex 248.7715557647929 52.391753623754404 9.456480005284753
    vertex 248.98134665205262 52.391753623754404 8.950000000000045
  endloop
endfacet
facet normal 0.9659258262890752 -2.455551088844533e-31 0.25881904510249504
  outer loop
    vertex 248.7715557647929 52.391753623754404 9.456480005284753
    vertex 248.98134665205262 57.3917536237545 8.950000000000045
    vertex 248.7715557647929 57.3917536237545 9.456480005284753
  endloop
endfacet
facet normal -0.8660254037844282 -3.906217681310296e-31 0.500000000000018
  outer loop
    vertex 252.61865334794732 57.3917536237545 8.950000000000045
    vertex 252.2849242404917 52.391753623754404 8.515075759508296
    vertex 252.61865334794732 52.391753623754404 8.950000000000045
  endloop
endfacet
facet normal -0.7071067811865372 5.859326521965166e-30 0.707106781186558
  outer loop
    vertex 252.2849242404917 52.391753623754404 8.515075759508296
    vertex 252.61865334794732 57.3917536237545 8.950000000000045
    vertex 252.2849242404917 57.3917536237545 8.515075759508296
  endloop
endfacet
facet normal -5.373399267075084e-15 -3.683551959277907e-19 1.0
  outer loop
    vertex 250.79999999999998 52.391753623754404 47.90000000000005
    vertex 250.25648000528466 57.3917536237545 47.971555764793
    vertex 250.25648000528466 52.391753623754404 47.971555764793
  endloop
endfacet
facet normal 0.2588190451025155 -1.272353754030923e-30 0.9659258262890696
  outer loop
    vertex 250.25648000528466 57.3917536237545 47.971555764793
    vertex 250.79999999999998 52.391753623754404 47.90000000000005
    vertex 250.79999999999998 57.3917536237545 47.90000000000005
  endloop
endfacet
facet normal -0.5000000000000074 6.2499482900962584e-30 -0.8660254037844344
  outer loop
    vertex 251.84999999999997 57.3917536237545 11.818653347947368
    vertex 251.34351999471528 52.391753623754404 12.02844423520709
    vertex 251.34351999471528 57.3917536237545 12.02844423520709
  endloop
endfacet
facet normal -0.25881904510252046 -1.8613259125506788e-20 -0.9659258262890683
  outer loop
    vertex 251.34351999471528 52.391753623754404 12.02844423520709
    vertex 251.84999999999997 57.3917536237545 11.818653347947368
    vertex 251.84999999999997 52.391753623754404 11.818653347947368
  endloop
endfacet
facet normal -5.373399267075084e-15 -3.68355195925246e-19 1.0
  outer loop
    vertex 250.79999999999998 52.391753623754404 7.900000000000045
    vertex 250.25648000528466 57.3917536237545 7.9715557647930035
    vertex 250.25648000528466 52.391753623754404 7.9715557647930035
  endloop
endfacet
facet normal 0.2588190451025178 0.0 0.965925826289069
  outer loop
    vertex 250.25648000528466 57.3917536237545 7.9715557647930035
    vertex 250.79999999999998 52.391753623754404 7.900000000000045
    vertex 250.79999999999998 57.3917536237545 7.900000000000045
  endloop
endfacet
facet normal -1.0 0.0 0.0
  outer loop
    vertex 256.29999999999995 90.8917536237545 58.50000000000005
    vertex 256.29999999999995 57.391753623754454 1.5000000000000453
    vertex 256.29999999999995 57.391753623754454 58.50000000000005
  endloop
endfacet
facet normal -1.0 0.0 0.0
  outer loop
    vertex 256.29999999999995 57.391753623754454 1.5000000000000453
    vertex 256.29999999999995 90.8917536237545 58.50000000000005
    vertex 256.29999999999995 82.98649773542871 44.5914488875078
  endloop
endfacet
facet normal -1.0 0.0 0.0
  outer loop
    vertex 256.29999999999995 57.391753623754454 1.5000000000000453
    vertex 256.29999999999995 82.98649773542871 44.5914488875078
    vertex 256.29999999999995 82.76671680591852 44.060850786733354
  endloop
endfacet
facet normal -1.0 0.0 0.0
  outer loop
    vertex 256.29999999999995 57.391753623754454 1.5000000000000453
    vertex 256.29999999999995 82.76671680591852 44.060850786733354
    vertex 256.29999999999995 82.6917536237545 43.49144888750781
  endloop
endfacet
facet normal -1.0 0.0 0.0
  outer loop
    vertex 256.29999999999995 82.98649773542871 44.5914488875078
    vertex 256.29999999999995 90.8917536237545 58.50000000000005
    vertex 256.29999999999995 83.3361187051441 45.047083806118216
  endloop
endfacet
facet normal -1.0 0.0 0.0
  outer loop
    vertex 256.29999999999995 83.3361187051441 45.047083806118216
    vertex 256.29999999999995 90.8917536237545 58.50000000000005
    vertex 256.29999999999995 83.79175362375453 45.39670477583358
  endloop
endfacet
facet normal -1.0 0.0 0.0
  outer loop
    vertex 256.29999999999995 83.79175362375453 45.39670477583358
    vertex 256.29999999999995 90.8917536237545 58.50000000000005
    vertex 256.29999999999995 84.32235172452897 45.61648570534376
  endloop
endfacet
facet normal -1.0 0.0 0.0
  outer loop
    vertex 256.29999999999995 84.32235172452897 45.61648570534376
    vertex 256.29999999999995 90.8917536237545 58.50000000000005
    vertex 256.29999999999995 84.89175362375455 45.69144888750781
  endloop
endfacet
facet normal -1.0 0.0 0.0
  outer loop
    vertex 256.29999999999995 84.89175362375455 45.69144888750781
    vertex 256.29999999999995 90.8917536237545 58.50000000000005
    vertex 256.29999999999995 85.46115552298009 45.61648570534376
  endloop
endfacet
facet normal -1.0 0.0 0.0
  outer loop
    vertex 256.29999999999995 85.46115552298009 45.61648570534376
    vertex 256.29999999999995 90.8917536237545 58.50000000000005
    vertex 256.29999999999995 85.99175362375452 45.39670477583358
  endloop
endfacet
facet normal -1.0 0.0 0.0
  outer loop
    vertex 256.29999999999995 85.99175362375452 45.39670477583358
    vertex 256.29999999999995 90.8917536237545 58.50000000000005
    vertex 256.29999999999995 86.44738854236498 45.04708380611821
  endloop
endfacet
facet normal -1.0 0.0 0.0
  outer loop
    vertex 256.29999999999995 86.44738854236498 45.04708380611821
    vertex 256.29999999999995 90.8917536237545 58.50000000000005
    vertex 256.29999999999995 86.79700951208028 44.5914488875078
  endloop
endfacet
facet normal -1.0 0.0 0.0
  outer loop
    vertex 256.29999999999995 86.79700951208028 44.5914488875078
    vertex 256.29999999999995 90.8917536237545 58.50000000000005
    vertex 256.29999999999995 87.01679044159047 44.06085078673335
  endloop
endfacet
facet normal -1.0 0.0 0.0
  outer loop
    vertex 256.29999999999995 87.01679044159047 44.06085078673335
    vertex 256.29999999999995 90.8917536237545 58.50000000000005
    vertex 256.29999999999995 87.09175362375454 43.49144888750781
  endloop
endfacet
facet normal -1.0 0.0 0.0
  outer loop
    vertex 256.29999999999995 57.391753623754454 1.5000000000000453
    vertex 256.29999999999995 82.76671680591852 42.92204698828226
    vertex 256.29999999999995 90.8917536237545 1.5000000000000453
  endloop
endfacet
facet normal -1.0 0.0 0.0
  outer loop
    vertex 256.29999999999995 82.76671680591852 42.92204698828226
    vertex 256.29999999999995 57.391753623754454 1.5000000000000453
    vertex 256.29999999999995 82.6917536237545 43.49144888750781
  endloop
endfacet
facet normal -1.0 0.0 0.0
  outer loop
    vertex 256.29999999999995 90.8917536237545 1.5000000000000453
    vertex 256.29999999999995 82.76671680591852 42.92204698828226
    vertex 256.29999999999995 82.98649773542871 42.391448887507806
  endloop
endfacet
facet normal -1.0 0.0 0.0
  outer loop
    vertex 256.29999999999995 90.8917536237545 1.5000000000000453
    vertex 256.29999999999995 82.98649773542871 42.391448887507806
    vertex 256.29999999999995 83.3361187051441 41.9358139688974
  endloop
endfacet
facet normal -1.0 0.0 0.0
  outer loop
    vertex 256.29999999999995 90.8917536237545 1.5000000000000453
    vertex 256.29999999999995 83.3361187051441 41.9358139688974
    vertex 256.29999999999995 83.79175362375449 41.586192999182046
  endloop
endfacet
facet normal -1.0 0.0 0.0
  outer loop
    vertex 256.29999999999995 90.8917536237545 1.5000000000000453
    vertex 256.29999999999995 83.79175362375449 41.586192999182046
    vertex 256.29999999999995 84.32235172452897 41.36641206967186
  endloop
endfacet
facet normal -1.0 0.0 0.0
  outer loop
    vertex 256.29999999999995 90.8917536237545 1.5000000000000453
    vertex 256.29999999999995 84.32235172452897 41.36641206967186
    vertex 256.29999999999995 84.89175362375455 41.291448887507805
  endloop
endfacet
facet normal -1.0 0.0 0.0
  outer loop
    vertex 256.29999999999995 90.8917536237545 1.5000000000000453
    vertex 256.29999999999995 84.89175362375455 41.291448887507805
    vertex 256.29999999999995 85.46115552298009 41.36641206967186
  endloop
endfacet
facet normal -1.0 0.0 0.0
  outer loop
    vertex 256.29999999999995 90.8917536237545 1.5000000000000453
    vertex 256.29999999999995 85.46115552298009 41.36641206967186
    vertex 256.29999999999995 85.99175362375452 41.586192999182046
  endloop
endfacet
facet normal -1.0 0.0 0.0
  outer loop
    vertex 256.29999999999995 90.8917536237545 1.5000000000000453
    vertex 256.29999999999995 85.99175362375452 41.586192999182046
    vertex 256.29999999999995 86.44738854236498 41.9358139688974
  endloop
endfacet
facet normal -1.0 0.0 0.0
  outer loop
    vertex 256.29999999999995 90.8917536237545 1.5000000000000453
    vertex 256.29999999999995 86.44738854236498 41.9358139688974
    vertex 256.29999999999995 86.79700951208028 42.391448887507806
  endloop
endfacet
facet normal -1.0 0.0 0.0
  outer loop
    vertex 256.29999999999995 90.8917536237545 1.5000000000000453
    vertex 256.29999999999995 86.79700951208028 42.391448887507806
    vertex 256.29999999999995 87.01679044159047 42.92204698828226
  endloop
endfacet
facet normal -1.0 0.0 0.0
  outer loop
    vertex 256.29999999999995 90.8917536237545 1.5000000000000453
    vertex 256.29999999999995 87.01679044159047 42.92204698828226
    vertex 256.29999999999995 87.09175362375454 43.49144888750781
  endloop
endfacet
facet normal -1.0 0.0 0.0
  outer loop
    vertex 256.29999999999995 90.8917536237545 1.5000000000000453
    vertex 256.29999999999995 87.09175362375454 43.49144888750781
    vertex 256.29999999999995 90.8917536237545 58.50000000000005
  endloop
endfacet
facet normal 1.0 -0.0 -0.0
  outer loop
    vertex 261.29999999999995 52.39175362375447 5.000000000000043
    vertex 261.29999999999995 82.76671680591852 42.92204698828226
    vertex 261.29999999999995 82.6917536237545 43.49144888750781
  endloop
endfacet
facet normal 1.0 -0.0 -0.0
  outer loop
    vertex 261.29999999999995 82.76671680591852 42.92204698828226
    vertex 261.29999999999995 52.39175362375447 5.000000000000043
    vertex 261.29999999999995 92.3917536237545 5.0000000000000435
  endloop
endfacet
facet normal 1.0 -0.0 -0.0
  outer loop
    vertex 261.29999999999995 82.76671680591852 42.92204698828226
    vertex 261.29999999999995 92.3917536237545 5.0000000000000435
    vertex 261.29999999999995 82.98649773542871 42.391448887507806
  endloop
endfacet
facet normal 1.0 -0.0 -0.0
  outer loop
    vertex 261.29999999999995 82.98649773542871 42.391448887507806
    vertex 261.29999999999995 92.3917536237545 5.0000000000000435
    vertex 261.29999999999995 83.3361187051441 41.9358139688974
  endloop
endfacet
facet normal 1.0 -0.0 -0.0
  outer loop
    vertex 261.29999999999995 83.3361187051441 41.9358139688974
    vertex 261.29999999999995 92.3917536237545 5.0000000000000435
    vertex 261.29999999999995 83.79175362375449 41.586192999182046
  endloop
endfacet
facet normal 1.0 -0.0 -0.0
  outer loop
    vertex 261.29999999999995 83.79175362375449 41.586192999182046
    vertex 261.29999999999995 92.3917536237545 5.0000000000000435
    vertex 261.29999999999995 84.32235172452897 41.36641206967186
  endloop
endfacet
facet normal 1.0 -0.0 -0.0
  outer loop
    vertex 261.29999999999995 84.32235172452897 41.36641206967186
    vertex 261.29999999999995 92.3917536237545 5.0000000000000435
    vertex 261.29999999999995 84.89175362375455 41.291448887507805
  endloop
endfacet
facet normal 1.0 -0.0 -0.0
  outer loop
    vertex 261.29999999999995 84.89175362375455 41.291448887507805
    vertex 261.29999999999995 92.3917536237545 5.0000000000000435
    vertex 261.29999999999995 85.46115552298009 41.36641206967186
  endloop
endfacet
facet normal 1.0 -0.0 -0.0
  outer loop
    vertex 261.29999999999995 85.46115552298009 41.36641206967186
    vertex 261.29999999999995 92.3917536237545 5.0000000000000435
    vertex 261.29999999999995 85.99175362375452 41.586192999182046
  endloop
endfacet
facet normal 1.0 -0.0 -0.0
  outer loop
    vertex 261.29999999999995 85.99175362375452 41.586192999182046
    vertex 261.29999999999995 92.3917536237545 5.0000000000000435
    vertex 261.29999999999995 86.44738854236498 41.9358139688974
  endloop
endfacet
facet normal 1.0 -0.0 -0.0
  outer loop
    vertex 261.29999999999995 86.44738854236498 41.9358139688974
    vertex 261.29999999999995 92.3917536237545 5.0000000000000435
    vertex 261.29999999999995 86.79700951208028 42.391448887507806
  endloop
endfacet
facet normal 1.0 -0.0 -0.0
  outer loop
    vertex 261.29999999999995 86.79700951208028 42.391448887507806
    vertex 261.29999999999995 92.3917536237545 5.0000000000000435
    vertex 261.29999999999995 87.01679044159047 42.92204698828226
  endloop
endfacet
facet normal 1.0 -0.0 -0.0
  outer loop
    vertex 261.29999999999995 87.01679044159047 42.92204698828226
    vertex 261.29999999999995 92.3917536237545 5.0000000000000435
    vertex 261.29999999999995 87.09175362375454 43.49144888750781
  endloop
endfacet
facet normal 1.0 -0.0 -0.0
  outer loop
    vertex 261.29999999999995 87.09175362375454 43.49144888750781
    vertex 261.29999999999995 92.3917536237545 5.0000000000000435
    vertex 261.29999999999995 92.39175362375445 58.19906365191603
  endloop
endfacet
facet normal 1.0 -0.0 -0.0
  outer loop
    vertex 261.29999999999995 52.39175362375447 5.000000000000043
    vertex 261.29999999999995 92.39175362375445 58.19906365191603
    vertex 261.29999999999995 52.391753623754404 58.19906365191603
  endloop
endfacet
facet normal 1.0 -0.0 -0.0
  outer loop
    vertex 261.29999999999995 92.39175362375445 58.19906365191603
    vertex 261.29999999999995 52.39175362375447 5.000000000000043
    vertex 261.29999999999995 82.98649773542871 44.5914488875078
  endloop
endfacet
facet normal 1.0 -0.0 -0.0
  outer loop
    vertex 261.29999999999995 82.98649773542871 44.5914488875078
    vertex 261.29999999999995 52.39175362375447 5.000000000000043
    vertex 261.29999999999995 82.76671680591852 44.060850786733354
  endloop
endfacet
facet normal 1.0 -0.0 -0.0
  outer loop
    vertex 261.29999999999995 82.76671680591852 44.060850786733354
    vertex 261.29999999999995 52.39175362375447 5.000000000000043
    vertex 261.29999999999995 82.6917536237545 43.49144888750781
  endloop
endfacet
facet normal 1.0 -0.0 -0.0
  outer loop
    vertex 261.29999999999995 92.39175362375445 58.19906365191603
    vertex 261.29999999999995 82.98649773542871 44.5914488875078
    vertex 261.29999999999995 83.3361187051441 45.047083806118216
  endloop
endfacet
facet normal 1.0 -0.0 -0.0
  outer loop
    vertex 261.29999999999995 92.39175362375445 58.19906365191603
    vertex 261.29999999999995 83.3361187051441 45.047083806118216
    vertex 261.29999999999995 83.79175362375453 45.39670477583358
  endloop
endfacet
facet normal 1.0 -0.0 -0.0
  outer loop
    vertex 261.29999999999995 92.39175362375445 58.19906365191603
    vertex 261.29999999999995 83.79175362375453 45.39670477583358
    vertex 261.29999999999995 84.32235172452897 45.61648570534376
  endloop
endfacet
facet normal 1.0 -0.0 -0.0
  outer loop
    vertex 261.29999999999995 92.39175362375445 58.19906365191603
    vertex 261.29999999999995 84.32235172452897 45.61648570534376
    vertex 261.29999999999995 84.89175362375455 45.69144888750781
  endloop
endfacet
facet normal 1.0 -0.0 -0.0
  outer loop
    vertex 261.29999999999995 92.39175362375445 58.19906365191603
    vertex 261.29999999999995 84.89175362375455 45.69144888750781
    vertex 261.29999999999995 85.46115552298009 45.61648570534376
  endloop
endfacet
facet normal 1.0 -0.0 -0.0
  outer loop
    vertex 261.29999999999995 92.39175362375445 58.19906365191603
    vertex 261.29999999999995 85.46115552298009 45.61648570534376
    vertex 261.29999999999995 85.99175362375452 45.39670477583358
  endloop
endfacet
facet normal 1.0 -0.0 -0.0
  outer loop
    vertex 261.29999999999995 92.39175362375445 58.19906365191603
    vertex 261.29999999999995 85.99175362375452 45.39670477583358
    vertex 261.29999999999995 86.44738854236498 45.04708380611821
  endloop
endfacet
facet normal 1.0 -0.0 -0.0
  outer loop
    vertex 261.29999999999995 92.39175362375445 58.19906365191603
    vertex 261.29999999999995 86.44738854236498 45.04708380611821
    vertex 261.29999999999995 86.79700951208028 44.5914488875078
  endloop
endfacet
facet normal 1.0 -0.0 -0.0
  outer loop
    vertex 261.29999999999995 92.39175362375445 58.19906365191603
    vertex 261.29999999999995 86.79700951208028 44.5914488875078
    vertex 261.29999999999995 87.01679044159047 44.06085078673335
  endloop
endfacet
facet normal 1.0 -0.0 -0.0
  outer loop
    vertex 261.29999999999995 92.39175362375445 58.19906365191603
    vertex 261.29999999999995 87.01679044159047 44.06085078673335
    vertex 261.29999999999995 87.09175362375454 43.49144888750781
  endloop
endfacet
endsolid power3
